<svg width="400" height="400" fill="none" xmlns="http://www.w3.org/2000/svg"><g clip-path="url(#prefix__clip0_47_1606)"><g clip-path="url(#prefix__clip1_47_1606)"><path d="M384.861 34.78H87.781v106.26h297.08V34.78z" fill="#EFF6FF"/><path d="M109.232 60.752c-.149 0-.288-.021-.416-.064-.405-.085-.693-.33-.864-.736-.128-.363-.096-.768.096-1.216.213-.448.491-.95.832-1.504.128-.192.245-.384.352-.576a8.53 8.53 0 00.32-.576c.043-.064.075-.117.096-.16.021-.064.043-.117.064-.16-.64-.107-1.387-.128-2.24-.064-.832.043-1.771.203-2.816.48-.917.235-1.909.544-2.976.928-1.045.363-2.155.8-3.328 1.312a1 1 0 01-.704 0 .872.872 0 01-.512-.48.813.813 0 01-.032-.736c.107-.277.277-.459.512-.544a45.94 45.94 0 013.424-1.376 28.512 28.512 0 013.136-.96c2.624-.661 4.768-.768 6.432-.32.491.128.832.427 1.024.896.192.47.149.992-.128 1.568a19.168 19.168 0 01-.992 1.792 1.449 1.449 0 01-.096.16 2.095 2.095 0 00-.128.224c.491-.107 1.216-.32 2.176-.64.96-.32 2.283-.79 3.968-1.408a.824.824 0 01.704.064.863.863 0 01.512.544.884.884 0 010 .736c-.107.235-.299.405-.576.512-.981.341-1.877.65-2.688.928-.811.277-1.536.512-2.176.704a38.02 38.02 0 01-1.952.544c-.448.085-.789.128-1.024.128zm18.844 0c-.15 0-.288-.021-.416-.064-.406-.085-.694-.33-.864-.736-.128-.363-.096-.768.096-1.216.213-.448.49-.95.832-1.504.128-.192.245-.384.352-.576.128-.213.234-.405.32-.576.042-.064.074-.117.096-.16.021-.064.042-.117.064-.16-.64-.107-1.387-.128-2.24-.064-.832.043-1.771.203-2.816.48-.918.235-1.91.544-2.976.928-1.046.363-2.155.8-3.328 1.312a1 1 0 01-.704 0 .87.87 0 01-.512-.48.812.812 0 01-.032-.736c.106-.277.277-.459.512-.544a45.82 45.82 0 013.424-1.376 28.446 28.446 0 013.136-.96c2.624-.661 4.768-.768 6.432-.32.49.128.832.427 1.024.896.192.47.149.992-.128 1.568a19.4 19.4 0 01-.992 1.792 1.851 1.851 0 01-.096.16 1.937 1.937 0 00-.128.224c.49-.107 1.216-.32 2.176-.64.96-.32 2.282-.79 3.968-1.408a.824.824 0 01.704.064.865.865 0 01.512.544.891.891 0 010 .736c-.107.235-.299.405-.576.512-.982.341-1.878.65-2.688.928-.811.277-1.536.512-2.176.704a38.31 38.31 0 01-1.952.544c-.448.085-.79.128-1.024.128zm14.908.32a.936.936 0 01-.64-.224c-.342-.277-.438-.63-.288-1.056 0-.021.074-.277.224-.768l.576-1.664c.106-.363.202-.672.288-.928l.224-.736c-.576.213-1.28.48-2.112.8-.832.299-1.707.619-2.624.96-.896.341-1.771.672-2.624.992a.901.901 0 01-.705-.032 1.103 1.103 0 01-.544-.576.825.825 0 01.064-.704.975.975 0 01.544-.544l2.977-1.056a374.14 374.14 0 012.848-1.056c.874-.341 1.589-.619 2.144-.832l.832-.32c.106-.021.213-.032.32-.032a.437.437 0 01.288.032c.298.043.512.213.64.512.106.17.149.395.128.672 0 .256-.054.63-.16 1.12-.064.277-.15.587-.256.928-.086.32-.203.693-.352 1.12-.022.085-.043.16-.064.224a2.645 2.645 0 00-.064.224c.853-.47 1.898-.96 3.136-1.472a.814.814 0 01.704 0 .77.77 0 01.512.48c.128.235.138.48.032.736a.991.991 0 01-.512.544c-.96.427-1.824.832-2.592 1.216-.747.384-1.344.693-1.793.928l-.671.352a.724.724 0 01-.48.16zm16.373-.32c-.149 0-.288-.021-.416-.064-.405-.085-.693-.33-.864-.736-.128-.363-.096-.768.096-1.216.213-.448.491-.95.832-1.504.128-.192.245-.384.352-.576a8.53 8.53 0 00.32-.576c.043-.064.075-.117.096-.16.021-.064.043-.117.064-.16-.64-.107-1.387-.128-2.24-.064-.832.043-1.771.203-2.816.48-.917.235-1.909.544-2.976.928-1.045.363-2.155.8-3.328 1.312a1 1 0 01-.704 0 .872.872 0 01-.512-.48.812.812 0 01-.032-.736c.107-.277.277-.459.512-.544a45.992 45.992 0 013.424-1.376 28.512 28.512 0 013.136-.96c2.624-.661 4.768-.768 6.432-.32.491.128.832.427 1.024.896.192.47.149.992-.128 1.568a19.168 19.168 0 01-.992 1.792 1.449 1.449 0 01-.096.16 2.095 2.095 0 00-.128.224c.491-.107 1.216-.32 2.176-.64.96-.32 2.283-.79 3.968-1.408a.824.824 0 01.704.064.863.863 0 01.512.544.884.884 0 010 .736c-.107.235-.299.405-.576.512-.981.341-1.877.65-2.688.928-.811.277-1.536.512-2.176.704a38.02 38.02 0 01-1.952.544c-.448.085-.789.128-1.024.128zm14.908.32a.936.936 0 01-.64-.224c-.342-.277-.438-.63-.288-1.056 0-.021.074-.277.224-.768l.576-1.664c.106-.363.202-.672.288-.928l.224-.736c-.576.213-1.28.48-2.112.8-.832.299-1.707.619-2.624.96-.896.341-1.771.672-2.624.992a.899.899 0 01-.704-.032 1.1 1.1 0 01-.544-.576.821.821 0 01.064-.704.972.972 0 01.544-.544l2.976-1.056a374.14 374.14 0 012.848-1.056 443.655 443.655 0 012.976-1.152c.106-.021.213-.032.32-.032a.437.437 0 01.288.032c.298.043.512.213.64.512.106.17.149.395.128.672 0 .256-.054.63-.16 1.12-.064.277-.15.587-.256.928-.086.32-.203.693-.352 1.12-.022.085-.043.16-.064.224a2.645 2.645 0 00-.064.224c.853-.47 1.898-.96 3.136-1.472a.814.814 0 01.704 0 .77.77 0 01.512.48c.128.235.138.48.032.736a.991.991 0 01-.512.544c-.96.427-1.824.832-2.592 1.216-.747.384-1.344.693-1.792.928l-.672.352a.724.724 0 01-.48.16zm16.373-.32c-.149 0-.288-.021-.416-.064-.405-.085-.693-.33-.864-.736-.128-.363-.096-.768.096-1.216.214-.448.491-.95.832-1.504.128-.192.246-.384.352-.576a8.53 8.53 0 00.32-.576c.043-.064.075-.117.096-.16.022-.064.043-.117.064-.16-.64-.107-1.386-.128-2.24-.064-.832.043-1.77.203-2.816.48-.917.235-1.909.544-2.976.928a46.53 46.53 0 00-3.328 1.312 1 1 0 01-.704 0 .875.875 0 01-.512-.48.815.815 0 01-.032-.736c.107-.277.278-.459.512-.544a45.992 45.992 0 013.424-1.376 28.577 28.577 0 013.136-.96c2.624-.661 4.768-.768 6.432-.32.491.128.832.427 1.024.896.192.47.15.992-.128 1.568a19.168 19.168 0 01-.992 1.792 1.449 1.449 0 01-.096.16 2.282 2.282 0 00-.128.224c.491-.107 1.216-.32 2.176-.64.96-.32 2.283-.79 3.968-1.408a.823.823 0 01.704.064.863.863 0 01.512.544.884.884 0 010 .736c-.106.235-.298.405-.576.512-.981.341-1.877.65-2.688.928-.81.277-1.536.512-2.176.704a38.02 38.02 0 01-1.952.544c-.448.085-.789.128-1.024.128zm11.868-.64a.832.832 0 01-.256-.032c-.341-.085-.587-.213-.736-.384a2.745 2.745 0 01-.256-.448c-.149-.47-.096-.95.16-1.44a11.34 11.34 0 01.992-1.6c.128-.17.245-.352.352-.544.128-.213.235-.395.32-.544.021-.021.053-.064.096-.128a5.58 5.58 0 00-.48.192 4.49 4.49 0 00-.608.384 8.409 8.409 0 00-1.216.928c-.427.363-.864.747-1.312 1.152a21.07 21.07 0 00-.352.288l-.32.32a.98.98 0 01-.672.256.916.916 0 01-.672-.352.818.818 0 01-.256-.672.96.96 0 01.32-.672 5.34 5.34 0 01.352-.32c.107-.107.213-.203.32-.288a34.274 34.274 0 012.016-1.696c.661-.533 1.312-.939 1.952-1.216.64-.277 1.259-.33 1.856-.16.363.085.619.235.768.448.171.192.267.363.288.512.192.47.149.97-.128 1.504a18.693 18.693 0 01-1.056 1.696 1.221 1.221 0 00-.16.224c-.043.085-.096.17-.16.256.32-.128.736-.288 1.248-.48s1.131-.427 1.856-.704a.956.956 0 01.768.064.87.87 0 01.48.544c.107.235.096.48-.032.736a1 1 0 01-.512.512l-1.856.64a40.554 40.554 0 00-1.984.736c-.149.043-.288.085-.416.128a4.092 4.092 0 00-.384.128 1.63 1.63 0 01-.32.032zm7.117 2.784a1.63 1.63 0 01-.449-.064l-.447-.064c-.384-.107-.651-.33-.8-.672-.192-.427-.192-.939 0-1.536.213-.619.554-1.408 1.024-2.368.085-.17.17-.363.256-.576.106-.213.202-.416.288-.608-.278.107-.576.288-.896.544-.299.235-.608.48-.928.736-.214.15-.448.213-.705.192a1.09 1.09 0 01-.672-.352.924.924 0 01-.16-.704c.022-.256.128-.48.32-.672.299-.213.608-.448.929-.704a6.68 6.68 0 011.024-.64c.874-.448 1.674-.565 2.4-.352.341.064.597.277.768.64.17.341.16.768-.032 1.28-.171.512-.47 1.205-.896 2.08-.107.256-.224.512-.352.768-.107.256-.214.501-.32.736a.744.744 0 01-.096.224l-.064.192c.448-.064 1.098-.288 1.951-.672.875-.405 2.049-1.195 3.52-2.368a41.025 41.025 0 002.145-1.792 64.342 64.342 0 002.112-2.048c.256-.299.565-.395.928-.288.17.021.309.096.416.224.106.107.192.213.256.32.149.299.16.65.032 1.056-.107.384-.342 1.013-.704 1.888l-.384.832c-.107.277-.214.533-.32.768-.022.085-.043.16-.064.224a.288.288 0 01-.032.128c.405-.064.832-.235 1.28-.512.469-.299.917-.63 1.344-.992.448-.363.821-.672 1.12-.928.213-.192.448-.277.704-.256.256.021.48.128.672.32a.97.97 0 01.224.704c0 .256-.107.48-.321.672a29.742 29.742 0 01-2.047 1.632 8.084 8.084 0 01-2.08 1.152 3.636 3.636 0 01-2.08.096c-.342-.15-.587-.363-.736-.64a1.907 1.907 0 01-.128-.992c.064-.363.192-.81.384-1.344-.235.213-.48.416-.736.608-.235.192-.491.405-.768.64-2.944 2.325-5.238 3.488-6.88 3.488zm17.031 0c-.15 0-.299-.021-.448-.064l-.448-.064c-.384-.107-.651-.33-.8-.672-.192-.427-.192-.939 0-1.536.213-.619.554-1.408 1.024-2.368.085-.17.17-.363.256-.576.106-.213.202-.416.288-.608-.278.107-.576.288-.896.544-.299.235-.608.48-.928.736-.214.15-.448.213-.704.192a1.085 1.085 0 01-.672-.352.916.916 0 01-.16-.704c.021-.256.128-.48.32-.672.298-.213.608-.448.928-.704a6.68 6.68 0 011.024-.64c.874-.448 1.674-.565 2.4-.352.341.064.597.277.768.64.17.341.16.768-.032 1.28-.171.512-.47 1.205-.896 2.08-.107.256-.224.512-.352.768-.107.256-.214.501-.32.736a.744.744 0 01-.096.224l-.064.192c.448-.064 1.098-.288 1.952-.672.874-.405 2.048-1.195 3.52-2.368a41.4 41.4 0 002.144-1.792 64.342 64.342 0 001.536-1.472l.576-.576c.256-.299.565-.395.928-.288.17.021.309.096.416.224.106.107.192.213.256.32.149.299.16.65.032 1.056-.107.384-.342 1.013-.704 1.888l-.384.832c-.107.277-.214.533-.32.768-.022.085-.043.16-.064.224a.288.288 0 01-.032.128c.405-.064.832-.235 1.28-.512.469-.299.917-.63 1.344-.992.448-.363.821-.672 1.12-.928.213-.192.448-.277.704-.256.256.021.48.128.672.32a.97.97 0 01.224.704c0 .256-.107.48-.32.672a30.003 30.003 0 01-2.048 1.632 8.084 8.084 0 01-2.08 1.152 3.636 3.636 0 01-2.08.096c-.342-.15-.587-.363-.736-.64a1.907 1.907 0 01-.128-.992c.064-.363.192-.81.384-1.344-.235.213-.48.416-.736.608-.235.192-.491.405-.768.64-2.944 2.325-5.238 3.488-6.88 3.488zm21.767-1.824a.938.938 0 01-.64-.224c-.341-.277-.437-.63-.288-1.056 0-.021.075-.277.224-.768.171-.49.363-1.045.576-1.664.107-.363.203-.672.288-.928l.224-.736c-.576.213-1.28.48-2.112.8-.832.299-1.707.619-2.624.96-.896.341-1.771.672-2.624.992a.899.899 0 01-.704-.032 1.103 1.103 0 01-.544-.576.825.825 0 01.064-.704.975.975 0 01.544-.544l2.976-1.056a374.14 374.14 0 012.848-1.056 488.68 488.68 0 012.976-1.152 1.63 1.63 0 01.32-.032.436.436 0 01.288.032c.299.043.512.213.64.512.107.17.149.395.128.672 0 .256-.053.63-.16 1.12-.064.277-.149.587-.256.928-.085.32-.203.693-.352 1.12a3.08 3.08 0 01-.064.224 3.08 3.08 0 00-.064.224c.853-.47 1.899-.96 3.136-1.472a.814.814 0 01.704 0 .769.769 0 01.512.48c.128.235.139.48.032.736a.988.988 0 01-.512.544c-.96.427-1.824.832-2.592 1.216-.747.384-1.344.693-1.792.928l-.672.352a.724.724 0 01-.48.16zm16.374-.32c-.15 0-.288-.021-.416-.064-.406-.085-.694-.33-.864-.736-.128-.363-.096-.768.096-1.216.213-.448.49-.95.832-1.504.128-.192.245-.384.352-.576.128-.213.234-.405.32-.576.042-.064.074-.117.096-.16.021-.064.042-.117.064-.16-.64-.107-1.387-.128-2.24-.064-.832.043-1.771.203-2.816.48-.918.235-1.91.544-2.976.928-1.046.363-2.155.8-3.328 1.312-.235.085-.47.085-.705 0a.875.875 0 01-.512-.48.815.815 0 01-.032-.736c.107-.277.278-.459.512-.544a46.008 46.008 0 013.425-1.376 28.446 28.446 0 013.136-.96c2.624-.661 4.768-.768 6.432-.32.49.128.832.427 1.024.896.192.47.149.992-.128 1.568a19.4 19.4 0 01-.992 1.792 1.851 1.851 0 01-.096.16 1.937 1.937 0 00-.128.224c.49-.107 1.216-.32 2.176-.64.96-.32 2.282-.79 3.968-1.408a.824.824 0 01.704.064.865.865 0 01.512.544.891.891 0 010 .736c-.107.235-.299.405-.576.512-.982.341-1.878.65-2.688.928-.811.277-1.536.512-2.176.704a38.31 38.31 0 01-1.952.544c-.448.085-.79.128-1.024.128zm34.406 0c-.15 0-.288-.021-.416-.064-.406-.085-.694-.33-.864-.736-.128-.363-.096-.768.096-1.216.213-.448.49-.95.832-1.504.128-.192.245-.384.352-.576.128-.213.234-.405.32-.576.042-.064.074-.117.096-.16.021-.064.042-.117.064-.16-.64-.107-1.387-.128-2.24-.064-.832.043-1.771.203-2.816.48-.918.235-1.91.544-2.976.928-1.046.363-2.155.8-3.328 1.312a1 1 0 01-.704 0 .87.87 0 01-.512-.48.812.812 0 01-.032-.736c.106-.277.277-.459.512-.544a45.82 45.82 0 013.424-1.376 28.446 28.446 0 013.136-.96c2.624-.661 4.768-.768 6.432-.32.49.128.832.427 1.024.896.192.47.149.992-.128 1.568a19.4 19.4 0 01-.992 1.792 1.851 1.851 0 01-.096.16 1.937 1.937 0 00-.128.224c.49-.107 1.216-.32 2.176-.64.96-.32 2.282-.79 3.968-1.408a.824.824 0 01.704.064.865.865 0 01.512.544.891.891 0 010 .736c-.107.235-.299.405-.576.512-.982.341-1.878.65-2.688.928-.811.277-1.536.512-2.176.704a38.31 38.31 0 01-1.952.544c-.448.085-.79.128-1.024.128zm18.844 0c-.15 0-.288-.021-.416-.064-.406-.085-.694-.33-.864-.736-.128-.363-.096-.768.096-1.216.213-.448.49-.95.832-1.504.128-.192.245-.384.352-.576.128-.213.234-.405.32-.576.042-.064.074-.117.096-.16.021-.064.042-.117.064-.16-.64-.107-1.387-.128-2.24-.064-.832.043-1.771.203-2.816.48-.918.235-1.91.544-2.976.928-1.046.363-2.155.8-3.328 1.312-.235.085-.47.085-.705 0a.875.875 0 01-.512-.48.815.815 0 01-.032-.736c.107-.277.278-.459.512-.544a46.008 46.008 0 013.425-1.376 28.446 28.446 0 013.136-.96c2.624-.661 4.768-.768 6.432-.32.49.128.832.427 1.024.896.192.47.149.992-.128 1.568a19.4 19.4 0 01-.992 1.792 1.851 1.851 0 01-.096.16 1.937 1.937 0 00-.128.224c.49-.107 1.216-.32 2.176-.64.96-.32 2.282-.79 3.968-1.408a.824.824 0 01.704.064.865.865 0 01.512.544.891.891 0 010 .736c-.107.235-.299.405-.576.512-.982.341-1.878.65-2.688.928-.811.277-1.536.512-2.176.704a38.31 38.31 0 01-1.952.544c-.448.085-.79.128-1.024.128zm18.843 0c-.149 0-.288-.021-.416-.064-.405-.085-.693-.33-.864-.736-.128-.363-.096-.768.096-1.216.214-.448.491-.95.832-1.504.128-.192.246-.384.352-.576a8.53 8.53 0 00.32-.576c.043-.064.075-.117.096-.16.022-.064.043-.117.064-.16-.64-.107-1.386-.128-2.24-.064-.832.043-1.77.203-2.816.48-.917.235-1.909.544-2.976.928a46.53 46.53 0 00-3.328 1.312 1 1 0 01-.704 0 .875.875 0 01-.512-.48.815.815 0 01-.032-.736c.107-.277.278-.459.512-.544a45.992 45.992 0 013.424-1.376 28.577 28.577 0 013.136-.96c2.624-.661 4.768-.768 6.432-.32.491.128.832.427 1.024.896.192.47.15.992-.128 1.568a19.168 19.168 0 01-.992 1.792 1.449 1.449 0 01-.096.16 2.282 2.282 0 00-.128.224c.491-.107 1.216-.32 2.176-.64.96-.32 2.283-.79 3.968-1.408a.823.823 0 01.704.064.863.863 0 01.512.544.884.884 0 010 .736c-.106.235-.298.405-.576.512-.981.341-1.877.65-2.688.928-.81.277-1.536.512-2.176.704a38.02 38.02 0 01-1.952.544c-.448.085-.789.128-1.024.128zm18.844 0c-.149 0-.288-.021-.416-.064-.405-.085-.693-.33-.864-.736-.128-.363-.096-.768.096-1.216.213-.448.491-.95.832-1.504.128-.192.245-.384.352-.576a8.53 8.53 0 00.32-.576c.043-.064.075-.117.096-.16.021-.064.043-.117.064-.16-.64-.107-1.387-.128-2.24-.064-.832.043-1.771.203-2.816.48-.917.235-1.909.544-2.976.928-1.045.363-2.155.8-3.328 1.312a1 1 0 01-.704 0 .872.872 0 01-.512-.48.812.812 0 01-.032-.736c.107-.277.277-.459.512-.544a45.992 45.992 0 013.424-1.376 28.512 28.512 0 013.136-.96c2.624-.661 4.768-.768 6.432-.32.491.128.832.427 1.024.896.192.47.149.992-.128 1.568a19.168 19.168 0 01-.992 1.792 1.449 1.449 0 01-.096.16 2.095 2.095 0 00-.128.224c.491-.107 1.216-.32 2.176-.64.96-.32 2.283-.79 3.968-1.408a.824.824 0 01.704.064.863.863 0 01.512.544.884.884 0 010 .736c-.107.235-.299.405-.576.512-.981.341-1.877.65-2.688.928-.811.277-1.536.512-2.176.704a38.02 38.02 0 01-1.952.544c-.448.085-.789.128-1.024.128zm-253.476 31.36a.832.832 0 01-.256-.032c-.341-.085-.587-.213-.736-.384a2.745 2.745 0 01-.256-.448c-.149-.47-.096-.95.16-1.44a11.34 11.34 0 01.992-1.6c.128-.17.245-.352.352-.544.128-.213.235-.395.32-.544.021-.021.053-.064.096-.128a5.58 5.58 0 00-.48.192 4.49 4.49 0 00-.608.384 8.409 8.409 0 00-1.216.928c-.427.363-.864.747-1.312 1.152a22.37 22.37 0 00-.352.288l-.32.32a.98.98 0 01-.672.256.915.915 0 01-.672-.352.818.818 0 01-.256-.672.96.96 0 01.32-.672c.107-.107.224-.213.352-.32.107-.107.213-.203.32-.288a34.08 34.08 0 012.016-1.696c.661-.533 1.312-.939 1.952-1.216.64-.277 1.259-.33 1.856-.16.363.085.619.235.768.448.171.192.267.363.288.512.192.47.149.97-.128 1.504a18.693 18.693 0 01-1.056 1.696 1.221 1.221 0 00-.16.224c-.043.085-.096.17-.16.256.32-.128.736-.288 1.248-.48s1.131-.427 1.856-.704a.956.956 0 01.768.064.87.87 0 01.48.544c.107.235.096.48-.032.736a1 1 0 01-.512.512l-1.856.64a40.554 40.554 0 00-1.984.736c-.149.043-.288.085-.416.128a4.092 4.092 0 00-.384.128 1.63 1.63 0 01-.32.032zm24.151 2.848a1.63 1.63 0 01-.32-.032c-.107 0-.224-.01-.352-.032-.256-.085-.469-.267-.64-.544-.085-.17-.128-.405-.128-.704 0-.299.096-.79.288-1.472.192-.683.501-1.696.928-3.04-.469.17-1.013.373-1.632.608a86.11 86.11 0 01-1.856.704.899.899 0 01-.704-.032 1.103 1.103 0 01-.544-.576.825.825 0 01.064-.704.975.975 0 01.544-.544c.917-.341 1.771-.661 2.56-.96a372.545 372.545 0 002.752-1.024.862.862 0 01.608-.032c.277.064.48.224.608.48.107.192.139.363.096.512-.021.15-.053.31-.096.48a1.115 1.115 0 00-.096.288 4.18 4.18 0 01-.096.32c-.149.363-.309.81-.48 1.344a60.55 60.55 0 01-.48 1.568 13.443 13.443 0 00-.416 1.344c.405-.085.992-.33 1.76-.736a41.716 41.716 0 002.112-1.248c.768-.49 1.547-1.003 2.336-1.536l.512-.32c.192-.107.363-.224.512-.352a.91.91 0 01.736-.128.885.885 0 01.64.416.826.826 0 01.128.704.868.868 0 01-.416.608c-.171.128-.352.256-.544.384-.171.107-.352.224-.544.352-.811.533-1.6 1.045-2.368 1.536-.768.49-1.493.917-2.176 1.28-1.387.725-2.485 1.088-3.296 1.088zm12.693-2.848a.832.832 0 01-.256-.032c-.342-.085-.587-.213-.736-.384a2.67 2.67 0 01-.256-.448c-.15-.47-.096-.95.16-1.44.256-.512.586-1.045.992-1.6.128-.17.245-.352.352-.544.128-.213.234-.395.32-.544.021-.021.053-.064.096-.128a5.58 5.58 0 00-.48.192 4.43 4.43 0 00-.608.384c-.384.235-.79.544-1.216.928-.427.363-.864.747-1.312 1.152a21.07 21.07 0 00-.352.288l-.32.32a.98.98 0 01-.672.256.912.912 0 01-.672-.352.815.815 0 01-.256-.672.96.96 0 01.32-.672c.106-.107.224-.213.352-.32.106-.107.213-.203.32-.288a33.633 33.633 0 012.016-1.696c.661-.533 1.312-.939 1.952-1.216.64-.277 1.258-.33 1.856-.16.362.085.618.235.768.448.17.192.266.363.288.512.192.47.149.97-.128 1.504-.278.512-.63 1.077-1.056 1.696a1.221 1.221 0 00-.16.224c-.043.085-.096.17-.16.256.32-.128.736-.288 1.248-.48s1.13-.427 1.856-.704a.956.956 0 01.768.064.876.876 0 01.48.544c.106.235.096.48-.032.736a1.003 1.003 0 01-.512.512l-1.856.64a40.554 40.554 0 00-1.984.736c-.15.043-.288.085-.416.128-.15.043-.278.085-.384.128a1.638 1.638 0 01-.32.032zm15.788.64c-.149 0-.288-.021-.416-.064-.405-.085-.693-.33-.864-.736-.128-.363-.096-.768.096-1.216.214-.448.491-.95.832-1.504.128-.192.246-.384.352-.576a8.53 8.53 0 00.32-.576c.043-.064.075-.117.096-.16.022-.064.043-.117.064-.16-.64-.107-1.386-.128-2.24-.064-.832.043-1.77.203-2.816.48-.917.235-1.909.544-2.976.928a46.53 46.53 0 00-3.328 1.312 1 1 0 01-.704 0 .875.875 0 01-.512-.48.815.815 0 01-.032-.736c.107-.277.278-.459.512-.544a45.992 45.992 0 013.424-1.376 28.577 28.577 0 013.136-.96c2.624-.661 4.768-.768 6.432-.32.491.128.832.427 1.024.896.192.47.15.992-.128 1.568a19.168 19.168 0 01-.992 1.792 1.449 1.449 0 01-.096.16 2.282 2.282 0 00-.128.224c.491-.107 1.216-.32 2.176-.64.96-.32 2.283-.79 3.968-1.408a.823.823 0 01.704.064.863.863 0 01.512.544.884.884 0 010 .736c-.106.235-.298.405-.576.512-.981.341-1.877.65-2.688.928-.81.277-1.536.512-2.176.704a38.02 38.02 0 01-1.952.544c-.448.085-.789.128-1.024.128zm11.868-.64a.832.832 0 01-.256-.032c-.341-.085-.587-.213-.736-.384a2.745 2.745 0 01-.256-.448c-.149-.47-.096-.95.16-1.44a11.34 11.34 0 01.992-1.6c.128-.17.245-.352.352-.544.128-.213.235-.395.32-.544.021-.021.053-.064.096-.128a5.58 5.58 0 00-.48.192 4.49 4.49 0 00-.608.384 8.409 8.409 0 00-1.216.928c-.427.363-.864.747-1.312 1.152a21.07 21.07 0 00-.352.288l-.32.32a.98.98 0 01-.672.256.916.916 0 01-.672-.352.818.818 0 01-.256-.672.96.96 0 01.32-.672 5.34 5.34 0 01.352-.32c.107-.107.213-.203.32-.288a34.274 34.274 0 012.016-1.696c.661-.533 1.312-.939 1.952-1.216.64-.277 1.259-.33 1.856-.16.363.085.619.235.768.448.171.192.267.363.288.512.192.47.149.97-.128 1.504a18.693 18.693 0 01-1.056 1.696 1.221 1.221 0 00-.16.224c-.043.085-.096.17-.16.256.32-.128.736-.288 1.248-.48s1.131-.427 1.856-.704a.956.956 0 01.768.064.87.87 0 01.48.544c.107.235.096.48-.032.736a1 1 0 01-.512.512l-1.856.64a40.554 40.554 0 00-1.984.736c-.149.043-.288.085-.416.128a4.092 4.092 0 00-.384.128 1.63 1.63 0 01-.32.032zm24.375 0a.832.832 0 01-.256-.032c-.341-.085-.587-.213-.736-.384a2.745 2.745 0 01-.256-.448c-.149-.47-.096-.95.16-1.44a11.34 11.34 0 01.992-1.6c.128-.17.245-.352.352-.544.128-.213.235-.395.32-.544.021-.021.053-.064.096-.128a5.58 5.58 0 00-.48.192 4.49 4.49 0 00-.608.384 8.409 8.409 0 00-1.216.928c-.427.363-.864.747-1.312 1.152a21.07 21.07 0 00-.352.288l-.32.32a.98.98 0 01-.672.256.916.916 0 01-.672-.352.818.818 0 01-.256-.672.96.96 0 01.32-.672 5.34 5.34 0 01.352-.32c.107-.107.213-.203.32-.288a34.274 34.274 0 012.016-1.696c.661-.533 1.312-.939 1.952-1.216.64-.277 1.259-.33 1.856-.16.363.085.619.235.768.448.171.192.267.363.288.512.192.47.149.97-.128 1.504a18.693 18.693 0 01-1.056 1.696 1.221 1.221 0 00-.16.224c-.043.085-.096.17-.16.256.32-.128.736-.288 1.248-.48s1.131-.427 1.856-.704a.956.956 0 01.768.064.87.87 0 01.48.544c.107.235.096.48-.032.736a1 1 0 01-.512.512l-1.856.64a40.554 40.554 0 00-1.984.736c-.149.043-.288.085-.416.128a4.092 4.092 0 00-.384.128 1.63 1.63 0 01-.32.032zm24.151 2.848a1.63 1.63 0 01-.32-.032c-.107 0-.224-.01-.352-.032-.256-.085-.469-.267-.64-.544-.085-.17-.128-.405-.128-.704 0-.299.096-.79.288-1.472.192-.683.501-1.696.928-3.04-.469.17-1.013.373-1.632.608a86.11 86.11 0 01-1.856.704.899.899 0 01-.704-.032 1.103 1.103 0 01-.544-.576.825.825 0 01.064-.704.975.975 0 01.544-.544c.917-.341 1.771-.661 2.56-.96a372.545 372.545 0 002.752-1.024.862.862 0 01.608-.032c.277.064.48.224.608.48.107.192.139.363.096.512-.021.15-.053.31-.096.48a1.115 1.115 0 00-.096.288 4.18 4.18 0 01-.096.32c-.149.363-.309.81-.48 1.344a60.55 60.55 0 01-.48 1.568 13.443 13.443 0 00-.416 1.344c.405-.085.992-.33 1.76-.736a41.716 41.716 0 002.112-1.248c.768-.49 1.547-1.003 2.336-1.536l.512-.32c.192-.107.363-.224.512-.352a.91.91 0 01.736-.128.885.885 0 01.64.416.826.826 0 01.128.704.868.868 0 01-.416.608c-.171.128-.352.256-.544.384-.171.107-.352.224-.544.352-.811.533-1.6 1.045-2.368 1.536-.768.49-1.493.917-2.176 1.28-1.387.725-2.485 1.088-3.296 1.088zm10.997-.064c-.15 0-.299-.021-.448-.064l-.448-.064c-.384-.107-.651-.33-.8-.672-.192-.427-.192-.939 0-1.536.213-.619.554-1.408 1.024-2.368.085-.17.17-.363.256-.576.106-.213.202-.416.288-.608-.278.107-.576.288-.896.544-.299.235-.608.48-.928.736-.214.15-.448.213-.704.192a1.085 1.085 0 01-.672-.352.916.916 0 01-.16-.704c.021-.256.128-.48.32-.672.298-.213.608-.448.928-.704a6.68 6.68 0 011.024-.64c.874-.448 1.674-.565 2.4-.352.341.064.597.277.768.64.17.341.16.768-.032 1.28-.171.512-.47 1.205-.896 2.08-.107.256-.224.512-.352.768-.107.256-.214.501-.32.736a.744.744 0 01-.096.224l-.064.192c.448-.064 1.098-.288 1.952-.672.874-.405 2.048-1.195 3.52-2.368a41.4 41.4 0 002.144-1.792 64.342 64.342 0 002.112-2.048c.256-.299.565-.395.928-.288.17.021.309.096.416.224.106.107.192.213.256.32.149.299.16.65.032 1.056-.107.384-.342 1.013-.704 1.888l-.384.832c-.107.277-.214.533-.32.768-.022.085-.043.16-.064.224a.288.288 0 01-.032.128c.405-.064.832-.235 1.28-.512.469-.299.917-.63 1.344-.992.448-.363.821-.672 1.12-.928.213-.192.448-.277.704-.256.256.021.48.128.672.32a.97.97 0 01.224.704c0 .256-.107.48-.32.672a30.003 30.003 0 01-2.048 1.632 8.084 8.084 0 01-2.08 1.152 3.636 3.636 0 01-2.08.096c-.342-.15-.587-.363-.736-.64a1.907 1.907 0 01-.128-.992c.064-.363.192-.81.384-1.344-.235.213-.48.416-.736.608-.235.192-.491.405-.768.64-2.944 2.325-5.238 3.488-6.88 3.488zm25.703-2.144c-.149 0-.288-.021-.416-.064-.405-.085-.693-.33-.864-.736-.128-.363-.096-.768.096-1.216.213-.448.491-.95.832-1.504.128-.192.245-.384.352-.576a8.53 8.53 0 00.32-.576c.043-.064.075-.117.096-.16.021-.064.043-.117.064-.16-.64-.107-1.387-.128-2.24-.064-.832.043-1.771.203-2.816.48-.917.235-1.909.544-2.976.928-1.045.363-2.155.8-3.328 1.312a1 1 0 01-.704 0 .872.872 0 01-.512-.48.812.812 0 01-.032-.736c.107-.277.277-.459.512-.544a45.992 45.992 0 013.424-1.376 28.512 28.512 0 013.136-.96c2.624-.661 4.768-.768 6.432-.32.491.128.832.427 1.024.896.192.47.149.992-.128 1.568a19.168 19.168 0 01-.992 1.792 1.449 1.449 0 01-.096.16 2.095 2.095 0 00-.128.224c.491-.107 1.216-.32 2.176-.64.96-.32 2.283-.79 3.968-1.408a.824.824 0 01.704.064.863.863 0 01.512.544.884.884 0 010 .736c-.107.235-.299.405-.576.512-.981.341-1.877.65-2.688.928-.811.277-1.536.512-2.176.704a38.02 38.02 0 01-1.952.544c-.448.085-.789.128-1.024.128zm25.734 2.144c-.149 0-.298-.021-.448-.064l-.448-.064c-.384-.107-.65-.33-.8-.672-.192-.427-.192-.939 0-1.536.214-.619.555-1.408 1.024-2.368.086-.17.171-.363.256-.576.107-.213.203-.416.288-.608a3.475 3.475 0 00-.896.544c-.298.235-.608.48-.928.736-.213.15-.448.213-.704.192a1.09 1.09 0 01-.672-.352.924.924 0 01-.16-.704c.022-.256.128-.48.32-.672.299-.213.608-.448.928-.704.342-.256.683-.47 1.024-.64.875-.448 1.675-.565 2.4-.352.342.064.598.277.768.64.171.341.16.768-.032 1.28-.17.512-.469 1.205-.896 2.08-.106.256-.224.512-.352.768a22.81 22.81 0 01-.32.736.697.697 0 01-.096.224l-.064.192c.448-.064 1.099-.288 1.952-.672.875-.405 2.048-1.195 3.52-2.368a40.982 40.982 0 002.144-1.792 64.342 64.342 0 002.112-2.048c.256-.299.566-.395.928-.288a.62.62 0 01.416.224c.107.107.192.213.256.32.15.299.16.65.032 1.056-.106.384-.341 1.013-.704 1.888l-.384.832c-.106.277-.213.533-.32.768-.021.085-.042.16-.064.224 0 .043-.01.085-.032.128.406-.064.832-.235 1.28-.512.47-.299.918-.63 1.344-.992.448-.363.822-.672 1.12-.928.214-.192.448-.277.704-.256.256.021.48.128.672.32a.96.96 0 01.224.704c0 .256-.106.48-.32.672a29.76 29.76 0 01-2.048 1.632 8.068 8.068 0 01-2.08 1.152 3.636 3.636 0 01-2.08.096c-.341-.15-.586-.363-.736-.64a1.918 1.918 0 01-.128-.992c.064-.363.192-.81.384-1.344-.234.213-.48.416-.736.608-.234.192-.49.405-.768.64-2.944 2.325-5.237 3.488-6.88 3.488zm25.704-2.144c-.15 0-.288-.021-.416-.064-.406-.085-.694-.33-.864-.736-.128-.363-.096-.768.096-1.216.213-.448.49-.95.832-1.504.128-.192.245-.384.352-.576.128-.213.234-.405.32-.576.042-.064.074-.117.096-.16.021-.064.042-.117.064-.16-.64-.107-1.387-.128-2.24-.064-.832.043-1.771.203-2.816.48-.918.235-1.91.544-2.976.928-1.046.363-2.155.8-3.328 1.312-.235.085-.47.085-.705 0a.875.875 0 01-.512-.48.815.815 0 01-.032-.736c.107-.277.278-.459.512-.544a46.008 46.008 0 013.425-1.376 28.446 28.446 0 013.136-.96c2.624-.661 4.768-.768 6.432-.32.49.128.832.427 1.024.896.192.47.149.992-.128 1.568a19.4 19.4 0 01-.992 1.792 1.851 1.851 0 01-.096.16 1.937 1.937 0 00-.128.224c.49-.107 1.216-.32 2.176-.64.96-.32 2.282-.79 3.968-1.408a.824.824 0 01.704.064.865.865 0 01.512.544.891.891 0 010 .736c-.107.235-.299.405-.576.512-.982.341-1.878.65-2.688.928-.811.277-1.536.512-2.176.704a38.31 38.31 0 01-1.952.544c-.448.085-.79.128-1.024.128zm25.734 2.144c-.15 0-.299-.021-.448-.064l-.448-.064c-.384-.107-.651-.33-.8-.672-.192-.427-.192-.939 0-1.536.213-.619.554-1.408 1.024-2.368.085-.17.17-.363.256-.576.106-.213.202-.416.288-.608-.278.107-.576.288-.896.544-.299.235-.608.48-.928.736-.214.15-.448.213-.704.192a1.085 1.085 0 01-.672-.352.916.916 0 01-.16-.704c.021-.256.128-.48.32-.672.298-.213.608-.448.928-.704a6.68 6.68 0 011.024-.64c.874-.448 1.674-.565 2.4-.352.341.064.597.277.768.64.17.341.16.768-.032 1.28-.171.512-.47 1.205-.896 2.08-.107.256-.224.512-.352.768-.107.256-.214.501-.32.736a.744.744 0 01-.096.224l-.064.192c.448-.064 1.098-.288 1.952-.672.874-.405 2.048-1.195 3.52-2.368a41.4 41.4 0 002.144-1.792 64.342 64.342 0 002.112-2.048c.256-.299.565-.395.928-.288.17.021.309.096.416.224.106.107.192.213.256.32.149.299.16.65.032 1.056-.107.384-.342 1.013-.704 1.888l-.384.832c-.107.277-.214.533-.32.768-.022.085-.043.16-.064.224a.288.288 0 01-.032.128c.405-.064.832-.235 1.28-.512.469-.299.917-.63 1.344-.992.448-.363.821-.672 1.12-.928.213-.192.448-.277.704-.256.256.021.48.128.672.32a.97.97 0 01.224.704c0 .256-.107.48-.32.672a30.003 30.003 0 01-2.048 1.632 8.084 8.084 0 01-2.08 1.152 3.636 3.636 0 01-2.08.096c-.342-.15-.587-.363-.736-.64a1.907 1.907 0 01-.128-.992c.064-.363.192-.81.384-1.344-.235.213-.48.416-.736.608-.235.192-.491.405-.768.64-2.944 2.325-5.238 3.488-6.88 3.488zm21.767-1.824a.938.938 0 01-.64-.224c-.341-.277-.437-.63-.288-1.056 0-.021.075-.277.224-.768.171-.49.363-1.045.576-1.664.107-.363.203-.672.288-.928l.224-.736c-.576.213-1.28.48-2.112.8-.832.299-1.707.619-2.624.96-.896.341-1.771.672-2.624.992a.899.899 0 01-.704-.032 1.103 1.103 0 01-.544-.576.825.825 0 01.064-.704.975.975 0 01.544-.544l2.976-1.056a374.14 374.14 0 012.848-1.056 488.68 488.68 0 012.144-.832l.832-.32a1.63 1.63 0 01.32-.032.436.436 0 01.288.032c.299.043.512.213.64.512.107.17.149.395.128.672 0 .256-.053.63-.16 1.12-.064.277-.149.587-.256.928-.085.32-.203.693-.352 1.12a3.08 3.08 0 01-.064.224 3.08 3.08 0 00-.064.224c.853-.47 1.899-.96 3.136-1.472a.814.814 0 01.704 0 .769.769 0 01.512.48c.128.235.139.48.032.736a.988.988 0 01-.512.544c-.96.427-1.824.832-2.592 1.216-.747.384-1.344.693-1.792.928l-.672.352a.724.724 0 01-.48.16zm7.702 1.824a1.63 1.63 0 01-.449-.064l-.447-.064c-.384-.107-.651-.33-.8-.672-.192-.427-.192-.939 0-1.536.213-.619.554-1.408 1.024-2.368.085-.17.17-.363.256-.576.106-.213.202-.416.288-.608-.278.107-.576.288-.896.544-.299.235-.608.48-.928.736-.214.15-.448.213-.705.192a1.09 1.09 0 01-.672-.352.924.924 0 01-.16-.704c.022-.256.128-.48.32-.672.299-.213.608-.448.929-.704a6.68 6.68 0 011.024-.64c.874-.448 1.674-.565 2.4-.352.341.064.597.277.768.64.17.341.16.768-.032 1.28-.171.512-.47 1.205-.896 2.08-.107.256-.224.512-.352.768-.107.256-.214.501-.32.736a.744.744 0 01-.096.224l-.064.192c.448-.064 1.098-.288 1.951-.672.875-.405 2.049-1.195 3.52-2.368a41.025 41.025 0 002.145-1.792 64.342 64.342 0 002.112-2.048c.256-.299.565-.395.928-.288.17.021.309.096.416.224.106.107.192.213.256.32.149.299.16.65.032 1.056-.107.384-.342 1.013-.704 1.888l-.384.832c-.107.277-.214.533-.32.768-.022.085-.043.16-.064.224a.288.288 0 01-.032.128c.405-.064.832-.235 1.28-.512.469-.299.917-.63 1.344-.992.448-.363.821-.672 1.12-.928.213-.192.448-.277.704-.256.256.021.48.128.672.32a.97.97 0 01.224.704c0 .256-.107.48-.321.672a29.742 29.742 0 01-2.047 1.632 8.084 8.084 0 01-2.08 1.152 3.636 3.636 0 01-2.08.096c-.342-.15-.587-.363-.736-.64a1.907 1.907 0 01-.128-.992c.064-.363.192-.81.384-1.344-.235.213-.48.416-.736.608-.235.192-.491.405-.768.64-2.944 2.325-5.238 3.488-6.88 3.488zm-256.367 29.216a.841.841 0 01-.256-.032c-.341-.085-.587-.213-.736-.384a2.732 2.732 0 01-.256-.448c-.149-.469-.096-.949.16-1.44.256-.512.587-1.045.992-1.6.128-.171.245-.352.352-.544.128-.213.235-.395.32-.544a.99.99 0 00.096-.128 5.784 5.784 0 00-.48.192 4.432 4.432 0 00-.608.384 8.43 8.43 0 00-1.216.928c-.427.363-.864.747-1.312 1.152-.107.085-.224.181-.352.288l-.32.32a.978.978 0 01-.672.256.915.915 0 01-.672-.352.818.818 0 01-.256-.672.962.962 0 01.32-.672c.107-.107.224-.213.352-.32.107-.107.213-.203.32-.288a33.964 33.964 0 012.016-1.696c.661-.533 1.312-.939 1.952-1.216.64-.277 1.259-.331 1.856-.16.363.085.619.235.768.448.171.192.267.363.288.512.192.469.149.971-.128 1.504a18.735 18.735 0 01-1.056 1.696 1.221 1.221 0 00-.16.224 1.708 1.708 0 01-.16.256c.32-.128.736-.288 1.248-.48s1.131-.427 1.856-.704a.958.958 0 01.768.064.87.87 0 01.48.544c.107.235.096.48-.032.736a1 1 0 01-.512.512l-1.856.64a41.188 41.188 0 00-1.984.736c-.149.043-.288.085-.416.128a4.092 4.092 0 00-.384.128 1.654 1.654 0 01-.32.032zm31.351.64a1.3 1.3 0 01-.416-.064c-.405-.085-.693-.331-.864-.736-.128-.363-.096-.768.096-1.216.213-.448.491-.949.832-1.504.128-.192.245-.384.352-.576.128-.213.235-.405.32-.576.043-.064.075-.117.096-.16.021-.064.043-.117.064-.16-.64-.107-1.387-.128-2.24-.064-.832.043-1.771.203-2.816.48-.917.235-1.909.544-2.976.928-1.045.363-2.155.8-3.328 1.312a1.004 1.004 0 01-.704 0 .87.87 0 01-.512-.48.812.812 0 01-.032-.736c.107-.277.277-.459.512-.544a46.122 46.122 0 013.424-1.376 28.642 28.642 0 013.136-.96c2.624-.661 4.768-.768 6.432-.32.491.128.832.427 1.024.896.192.469.149.992-.128 1.568a19.206 19.206 0 01-.992 1.792 1.421 1.421 0 01-.096.16 2.125 2.125 0 00-.128.224c.491-.107 1.216-.32 2.176-.64.96-.32 2.283-.789 3.968-1.408a.825.825 0 01.704.064.863.863 0 01.512.544.884.884 0 010 .736c-.107.235-.299.405-.576.512-.981.341-1.877.651-2.688.928-.811.277-1.536.512-2.176.704-.853.256-1.504.437-1.952.544-.448.085-.789.128-1.024.128zm11.868-.64a.841.841 0 01-.256-.032c-.342-.085-.587-.213-.736-.384a2.66 2.66 0 01-.256-.448c-.15-.469-.096-.949.16-1.44.256-.512.586-1.045.992-1.6.128-.171.245-.352.352-.544.128-.213.234-.395.32-.544a.99.99 0 00.096-.128 5.784 5.784 0 00-.48.192 4.372 4.372 0 00-.608.384c-.384.235-.79.544-1.216.928-.427.363-.864.747-1.312 1.152-.107.085-.224.181-.352.288l-.32.32a.978.978 0 01-.672.256.912.912 0 01-.672-.352.815.815 0 01-.256-.672.96.96 0 01.32-.672c.106-.107.224-.213.352-.32a3.63 3.63 0 01.32-.288 33.522 33.522 0 012.016-1.696c.661-.533 1.312-.939 1.952-1.216.64-.277 1.258-.331 1.856-.16.362.085.618.235.768.448.17.192.266.363.288.512.192.469.149.971-.128 1.504-.278.512-.63 1.077-1.056 1.696a1.221 1.221 0 00-.16.224 1.708 1.708 0 01-.16.256c.32-.128.736-.288 1.248-.48s1.13-.427 1.856-.704a.958.958 0 01.768.064.876.876 0 01.48.544c.106.235.096.48-.032.736a1.003 1.003 0 01-.512.512l-1.856.64a41.188 41.188 0 00-1.984.736c-.15.043-.288.085-.416.128-.15.043-.278.085-.384.128a1.662 1.662 0 01-.32.032zm8.812 0a.846.846 0 01-.256-.032c-.341-.085-.586-.213-.736-.384a2.732 2.732 0 01-.256-.448c-.149-.469-.096-.949.16-1.44.256-.512.587-1.045.992-1.6a4.69 4.69 0 00.352-.544c.128-.213.235-.395.32-.544a.832.832 0 00.096-.128 5.784 5.784 0 00-.48.192c-.17.085-.373.213-.608.384a8.43 8.43 0 00-1.216.928c-.426.363-.864.747-1.312 1.152-.106.085-.224.181-.352.288l-.32.32a.978.978 0 01-.672.256.916.916 0 01-.672-.352.818.818 0 01-.256-.672.965.965 0 01.32-.672 5.34 5.34 0 01.352-.32 3.94 3.94 0 01.32-.288 34.158 34.158 0 012.016-1.696c.662-.533 1.312-.939 1.952-1.216.64-.277 1.259-.331 1.856-.16.363.085.619.235.768.448.171.192.267.363.288.512.192.469.15.971-.128 1.504a18.735 18.735 0 01-1.056 1.696 1.272 1.272 0 00-.16.224 1.63 1.63 0 01-.16.256c.32-.128.736-.288 1.248-.48s1.131-.427 1.856-.704a.957.957 0 01.768.064.87.87 0 01.48.544c.107.235.096.48-.032.736a.996.996 0 01-.512.512l-1.856.64a41.987 41.987 0 00-1.984.736c-.149.043-.288.085-.416.128a4.092 4.092 0 00-.384.128 1.646 1.646 0 01-.32.032zm8.813 0a.841.841 0 01-.256-.032c-.342-.085-.587-.213-.736-.384a2.66 2.66 0 01-.256-.448c-.15-.469-.096-.949.16-1.44.256-.512.586-1.045.992-1.6.128-.171.245-.352.352-.544.128-.213.234-.395.32-.544a.99.99 0 00.096-.128 5.784 5.784 0 00-.48.192 4.372 4.372 0 00-.608.384c-.384.235-.79.544-1.216.928-.427.363-.864.747-1.312 1.152-.107.085-.224.181-.352.288l-.32.32a.978.978 0 01-.672.256.912.912 0 01-.672-.352.815.815 0 01-.256-.672.96.96 0 01.32-.672c.106-.107.224-.213.352-.32a3.63 3.63 0 01.32-.288 33.522 33.522 0 012.016-1.696c.661-.533 1.312-.939 1.952-1.216.64-.277 1.258-.331 1.856-.16.362.085.618.235.768.448.17.192.266.363.288.512.192.469.149.971-.128 1.504-.278.512-.63 1.077-1.056 1.696a1.221 1.221 0 00-.16.224 1.708 1.708 0 01-.16.256c.32-.128.736-.288 1.248-.48s1.13-.427 1.856-.704a.958.958 0 01.768.064.876.876 0 01.48.544c.106.235.096.48-.032.736a1.003 1.003 0 01-.512.512l-1.856.64a41.188 41.188 0 00-1.984.736c-.15.043-.288.085-.416.128-.15.043-.278.085-.384.128a1.662 1.662 0 01-.32.032zm15.788.64a1.3 1.3 0 01-.416-.064c-.405-.085-.693-.331-.864-.736-.128-.363-.096-.768.096-1.216.214-.448.491-.949.832-1.504.128-.192.246-.384.352-.576.128-.213.235-.405.32-.576.043-.064.075-.117.096-.16.022-.064.043-.117.064-.16-.64-.107-1.386-.128-2.24-.064-.832.043-1.77.203-2.816.48-.917.235-1.909.544-2.976.928-1.045.363-2.154.8-3.328 1.312a1.004 1.004 0 01-.704 0 .873.873 0 01-.512-.48.815.815 0 01-.032-.736c.107-.277.278-.459.512-.544a46.122 46.122 0 013.424-1.376 28.709 28.709 0 013.136-.96c2.624-.661 4.768-.768 6.432-.32.491.128.832.427 1.024.896.192.469.15.992-.128 1.568a19.206 19.206 0 01-.992 1.792 1.421 1.421 0 01-.096.16 2.318 2.318 0 00-.128.224c.491-.107 1.216-.32 2.176-.64.96-.32 2.283-.789 3.968-1.408a.824.824 0 01.704.064.863.863 0 01.512.544.884.884 0 010 .736c-.106.235-.298.405-.576.512-.981.341-1.877.651-2.688.928-.81.277-1.536.512-2.176.704-.853.256-1.504.437-1.952.544-.448.085-.789.128-1.024.128zm30.471.32a.937.937 0 01-.64-.224c-.342-.277-.438-.629-.288-1.056 0-.021.074-.277.224-.768l.576-1.664c.106-.363.202-.672.288-.928l.224-.736c-.576.213-1.28.48-2.112.8-.832.299-1.707.619-2.624.96-.896.341-1.771.672-2.624.992a.901.901 0 01-.705-.032 1.103 1.103 0 01-.544-.576.825.825 0 01.064-.704.976.976 0 01.544-.544l2.977-1.056a374.14 374.14 0 012.848-1.056 443.655 443.655 0 012.976-1.152c.106-.021.213-.032.32-.032a.437.437 0 01.288.032c.298.043.512.213.64.512.106.171.149.395.128.672 0 .256-.054.629-.16 1.12-.064.277-.15.587-.256.928-.086.32-.203.693-.352 1.12-.022.085-.043.16-.064.224a2.678 2.678 0 00-.064.224c.853-.469 1.898-.96 3.136-1.472a.812.812 0 01.704 0 .77.77 0 01.512.48c.128.235.138.48.032.736a.992.992 0 01-.512.544 63.96 63.96 0 00-2.592 1.216c-.747.384-1.344.693-1.793.928l-.671.352a.723.723 0 01-.48.16zm12.437 0a.939.939 0 01-.64-.224c-.341-.277-.437-.629-.288-1.056 0-.021.075-.277.224-.768.171-.491.363-1.045.576-1.664.107-.363.203-.672.288-.928l.224-.736c-.576.213-1.28.48-2.112.8-.832.299-1.707.619-2.624.96-.896.341-1.771.672-2.624.992a.899.899 0 01-.704-.032 1.103 1.103 0 01-.544-.576.825.825 0 01.064-.704.976.976 0 01.544-.544l2.976-1.056a374.14 374.14 0 012.848-1.056 488.68 488.68 0 012.976-1.152c.107-.021.213-.032.32-.032a.436.436 0 01.288.032c.299.043.512.213.64.512.107.171.149.395.128.672 0 .256-.053.629-.16 1.12-.064.277-.149.587-.256.928-.085.32-.203.693-.352 1.12-.021.085-.043.16-.064.224a3.124 3.124 0 00-.064.224c.853-.469 1.899-.96 3.136-1.472a.812.812 0 01.704 0 .767.767 0 01.512.48c.128.235.139.48.032.736a.989.989 0 01-.512.544 63.96 63.96 0 00-2.592 1.216c-.747.384-1.344.693-1.792.928l-.672.352a.723.723 0 01-.48.16zm9.174 1.888c-.107 0-.214-.011-.32-.032-.107 0-.224-.011-.352-.032-.256-.085-.47-.267-.64-.544-.086-.171-.128-.405-.128-.704 0-.299.096-.789.288-1.472.192-.683.501-1.696.928-3.04-.47.171-1.014.373-1.632.608-.598.235-1.216.469-1.856.704a.901.901 0 01-.705-.032 1.103 1.103 0 01-.544-.576.825.825 0 01.064-.704.976.976 0 01.544-.544c.918-.341 1.771-.661 2.561-.96.81-.299 1.472-.544 1.983-.736l.769-.288a.863.863 0 01.608-.032c.277.064.48.224.608.48.106.192.138.363.096.512a5.216 5.216 0 01-.096.48 1.108 1.108 0 00-.096.288 5.411 5.411 0 01-.096.32c-.15.363-.31.811-.48 1.344-.15.512-.31 1.035-.48 1.568-.107.299-.192.555-.256.768-.064.213-.118.405-.16.576.405-.085.992-.331 1.76-.736a42.17 42.17 0 002.112-1.248c.768-.491 1.546-1.003 2.336-1.536l.512-.32c.192-.107.362-.224.512-.352a.91.91 0 01.736-.128c.277.043.49.181.64.416a.826.826 0 01.128.704.87.87 0 01-.416.608c-.171.128-.352.256-.544.384-.171.107-.352.224-.544.352-.811.533-1.6 1.045-2.368 1.536-.768.491-1.494.917-2.176 1.28-1.387.725-2.486 1.088-3.296 1.088zm28.031 0c-.107 0-.214-.011-.32-.032-.107 0-.224-.011-.352-.032-.256-.085-.47-.267-.64-.544-.086-.171-.128-.405-.128-.704 0-.299.096-.789.288-1.472.192-.683.501-1.696.928-3.04-.47.171-1.014.373-1.632.608-.598.235-1.216.469-1.856.704a.899.899 0 01-.704-.032 1.1 1.1 0 01-.544-.576.821.821 0 01.064-.704.973.973 0 01.544-.544c.917-.341 1.77-.661 2.56-.96a443.02 443.02 0 002.752-1.024.863.863 0 01.608-.032c.277.064.48.224.608.48.106.192.138.363.096.512a5.216 5.216 0 01-.096.48 1.108 1.108 0 00-.096.288 5.411 5.411 0 01-.096.32c-.15.363-.31.811-.48 1.344-.15.512-.31 1.035-.48 1.568-.107.299-.192.555-.256.768-.064.213-.118.405-.16.576.405-.085.992-.331 1.76-.736a42.17 42.17 0 002.112-1.248c.768-.491 1.546-1.003 2.336-1.536l.512-.32c.192-.107.362-.224.512-.352a.91.91 0 01.736-.128c.277.043.49.181.64.416a.826.826 0 01.128.704.87.87 0 01-.416.608c-.171.128-.352.256-.544.384-.171.107-.352.224-.544.352-.811.533-1.6 1.045-2.368 1.536-.768.491-1.494.917-2.176 1.28-1.387.725-2.486 1.088-3.296 1.088zm12.469 0c-.107 0-.214-.011-.32-.032-.107 0-.224-.011-.352-.032-.256-.085-.47-.267-.64-.544-.086-.171-.128-.405-.128-.704 0-.299.096-.789.288-1.472.192-.683.501-1.696.928-3.04-.47.171-1.014.373-1.632.608-.598.235-1.216.469-1.856.704a.901.901 0 01-.705-.032 1.103 1.103 0 01-.544-.576.825.825 0 01.064-.704.976.976 0 01.544-.544c.918-.341 1.771-.661 2.561-.96.81-.299 1.472-.544 1.983-.736l.769-.288a.863.863 0 01.608-.032c.277.064.48.224.608.48.106.192.138.363.096.512a5.216 5.216 0 01-.096.48 1.108 1.108 0 00-.096.288 5.411 5.411 0 01-.096.32c-.15.363-.31.811-.48 1.344-.15.512-.31 1.035-.48 1.568-.107.299-.192.555-.256.768-.064.213-.118.405-.16.576.405-.085.992-.331 1.76-.736a42.17 42.17 0 002.112-1.248c.768-.491 1.546-1.003 2.336-1.536l.512-.32c.192-.107.362-.224.512-.352a.91.91 0 01.736-.128c.277.043.49.181.64.416a.826.826 0 01.128.704.87.87 0 01-.416.608c-.171.128-.352.256-.544.384-.171.107-.352.224-.544.352-.811.533-1.6 1.045-2.368 1.536-.768.491-1.494.917-2.176 1.28-1.387.725-2.486 1.088-3.296 1.088zm12.468 0c-.106 0-.213-.011-.32-.032-.106 0-.224-.011-.352-.032-.256-.085-.469-.267-.64-.544-.085-.171-.128-.405-.128-.704 0-.299.096-.789.288-1.472.192-.683.502-1.696.928-3.04-.469.171-1.013.373-1.632.608a86.11 86.11 0 01-1.856.704.9.9 0 01-.704-.032 1.103 1.103 0 01-.544-.576.825.825 0 01.064-.704.976.976 0 01.544-.544c.918-.341 1.771-.661 2.56-.96a401.057 401.057 0 002.752-1.024.864.864 0 01.608-.032c.278.064.48.224.608.48.107.192.139.363.096.512a4.624 4.624 0 01-.096.48 1.188 1.188 0 00-.096.288 4.222 4.222 0 01-.096.32c-.149.363-.309.811-.48 1.344a60.194 60.194 0 01-.48 1.568 13.204 13.204 0 00-.416 1.344c.406-.085.992-.331 1.76-.736a41.287 41.287 0 002.112-1.248c.768-.491 1.547-1.003 2.336-1.536l.512-.32c.192-.107.363-.224.512-.352a.911.911 0 01.736-.128.883.883 0 01.64.416c.15.213.192.448.128.704a.864.864 0 01-.416.608c-.17.128-.352.256-.544.384-.17.107-.352.224-.544.352-.81.533-1.6 1.045-2.368 1.536-.768.491-1.493.917-2.176 1.28-1.386.725-2.485 1.088-3.296 1.088zm12.469 0c-.107 0-.213-.011-.32-.032-.107 0-.224-.011-.352-.032-.256-.085-.469-.267-.64-.544-.085-.171-.128-.405-.128-.704 0-.299.096-.789.288-1.472.192-.683.501-1.696.928-3.04-.469.171-1.013.373-1.632.608a86.11 86.11 0 01-1.856.704.899.899 0 01-.704-.032 1.103 1.103 0 01-.544-.576.825.825 0 01.064-.704.976.976 0 01.544-.544c.917-.341 1.771-.661 2.56-.96a401.057 401.057 0 002.752-1.024.863.863 0 01.608-.032c.277.064.48.224.608.48.107.192.139.363.096.512a4.624 4.624 0 01-.096.48 1.108 1.108 0 00-.096.288 4.222 4.222 0 01-.096.32c-.149.363-.309.811-.48 1.344a60.194 60.194 0 01-.48 1.568 13.204 13.204 0 00-.416 1.344c.405-.085.992-.331 1.76-.736a42.17 42.17 0 002.112-1.248c.768-.491 1.547-1.003 2.336-1.536l.512-.32c.192-.107.363-.224.512-.352a.911.911 0 01.736-.128.885.885 0 01.64.416.826.826 0 01.128.704.867.867 0 01-.416.608c-.171.128-.352.256-.544.384-.171.107-.352.224-.544.352-.811.533-1.6 1.045-2.368 1.536-.768.491-1.493.917-2.176 1.28-1.387.725-2.485 1.088-3.296 1.088zm28.255-2.848a.846.846 0 01-.256-.032c-.341-.085-.586-.213-.736-.384a2.732 2.732 0 01-.256-.448c-.149-.469-.096-.949.16-1.44.256-.512.587-1.045.992-1.6a4.69 4.69 0 00.352-.544c.128-.213.235-.395.32-.544a.832.832 0 00.096-.128 5.784 5.784 0 00-.48.192c-.17.085-.373.213-.608.384a8.43 8.43 0 00-1.216.928c-.426.363-.864.747-1.312 1.152-.106.085-.224.181-.352.288l-.32.32a.978.978 0 01-.672.256.916.916 0 01-.672-.352.818.818 0 01-.256-.672.965.965 0 01.32-.672 5.34 5.34 0 01.352-.32 3.94 3.94 0 01.32-.288 34.158 34.158 0 012.016-1.696c.662-.533 1.312-.939 1.952-1.216.64-.277 1.259-.331 1.856-.16.363.085.619.235.768.448.171.192.267.363.288.512.192.469.15.971-.128 1.504a18.735 18.735 0 01-1.056 1.696 1.272 1.272 0 00-.16.224 1.63 1.63 0 01-.16.256c.32-.128.736-.288 1.248-.48s1.131-.427 1.856-.704a.957.957 0 01.768.064.87.87 0 01.48.544c.107.235.096.48-.032.736a.996.996 0 01-.512.512l-1.856.64a41.987 41.987 0 00-1.984.736c-.149.043-.288.085-.416.128a4.092 4.092 0 00-.384.128 1.646 1.646 0 01-.32.032zm24.375 0a.846.846 0 01-.256-.032c-.341-.085-.586-.213-.736-.384a2.732 2.732 0 01-.256-.448c-.149-.469-.096-.949.16-1.44.256-.512.587-1.045.992-1.6a4.69 4.69 0 00.352-.544c.128-.213.235-.395.32-.544a.832.832 0 00.096-.128 5.784 5.784 0 00-.48.192c-.17.085-.373.213-.608.384a8.43 8.43 0 00-1.216.928c-.426.363-.864.747-1.312 1.152-.106.085-.224.181-.352.288l-.32.32a.978.978 0 01-.672.256.916.916 0 01-.672-.352.818.818 0 01-.256-.672.965.965 0 01.32-.672 5.34 5.34 0 01.352-.32 3.94 3.94 0 01.32-.288 34.158 34.158 0 012.016-1.696c.662-.533 1.312-.939 1.952-1.216.64-.277 1.259-.331 1.856-.16.363.085.619.235.768.448.171.192.267.363.288.512.192.469.15.971-.128 1.504a18.735 18.735 0 01-1.056 1.696 1.272 1.272 0 00-.16.224 1.63 1.63 0 01-.16.256c.32-.128.736-.288 1.248-.48s1.131-.427 1.856-.704a.957.957 0 01.768.064.87.87 0 01.48.544c.107.235.096.48-.032.736a.996.996 0 01-.512.512l-1.856.64a41.987 41.987 0 00-1.984.736c-.149.043-.288.085-.416.128a4.092 4.092 0 00-.384.128 1.646 1.646 0 01-.32.032zm15.789.64c-.15 0-.288-.021-.416-.064-.406-.085-.694-.331-.864-.736-.128-.363-.096-.768.096-1.216.213-.448.49-.949.832-1.504.128-.192.245-.384.352-.576.128-.213.234-.405.32-.576.042-.064.074-.117.096-.16.021-.064.042-.117.064-.16-.64-.107-1.387-.128-2.24-.064-.832.043-1.771.203-2.816.48-.918.235-1.91.544-2.976.928-1.046.363-2.155.8-3.328 1.312-.235.085-.47.085-.704 0a.868.868 0 01-.512-.48.812.812 0 01-.032-.736c.106-.277.277-.459.512-.544a45.949 45.949 0 013.424-1.376 28.576 28.576 0 013.136-.96c2.624-.661 4.768-.768 6.432-.32.49.128.832.427 1.024.896.192.469.149.992-.128 1.568a19.44 19.44 0 01-.992 1.792 1.806 1.806 0 01-.096.16 1.963 1.963 0 00-.128.224c.49-.107 1.216-.32 2.176-.64.96-.32 2.282-.789 3.968-1.408a.825.825 0 01.704.064.866.866 0 01.512.544.891.891 0 010 .736c-.107.235-.299.405-.576.512-.982.341-1.878.651-2.688.928-.811.277-1.536.512-2.176.704a38.63 38.63 0 01-1.952.544c-.448.085-.79.128-1.024.128z" fill="#1E40AF"/><path d="M384.861 34.78H87.781v106.26h297.08V34.78z" stroke="#1E3A8A" stroke-width="3.78" stroke-linecap="round" stroke-linejoin="round"/><path d="M93.581 29h-11.58v11.58h11.58V29zM390.661 29h-11.58v11.58h11.58V29zM93.581 78.6h-11.58v11.58h11.58V78.6zM390.661 78.6h-11.58v11.58h11.58V78.6zM241.161 29h-11.58v11.58h11.58V29zM93.581 135.26h-11.58v11.58h11.58v-11.58zM390.661 135.26h-11.58v11.58h11.58v-11.58zM241.161 135.26h-11.58v11.58h11.58v-11.58z" fill="#1E3A8A"/><path d="M337 157.68V126l27.56 17.14-18.02 1.3-9.54 13.24z" fill="#fff"/><path d="M337 157.68V126l27.56 17.14-18.02 1.3-9.54 13.24z" stroke="#1E3A8A" stroke-width="2.6" stroke-linecap="round" stroke-linejoin="round"/></g><path d="M62.303 100.556s-6.04 68.463 19.191 98.4c45.353 53.811 118.435-73.708 176.871-34.495 58.642 39.351-34.337 162.235 34.617 177.493 30 6.639 77.225-15.061 77.225-15.061" stroke="#BFDBFE" stroke-width="3" stroke-linecap="round" stroke-linejoin="round" stroke-dasharray="2 8"/><g clip-path="url(#prefix__clip2_47_1606)"><path d="M264.004 353.583c-.995 3.722-3.739 6.69-6.393 9.507-3.151 3.329-6.287 6.659-9.438 10.003-3.015 3.194-6.09 6.433-9.784 8.829-7.448 4.836-16.66 5.8-25.494 6.644-14.353 1.371-29.912 2.471-42.064-5.273-3.497-2.23-6.573-5.122-10.236-7.096-6.634-3.571-14.489-3.766-21.982-4.685-23.64-2.878-46.194-13.906-62.959-30.795-2.804-2.832-5.548-5.966-6.528-9.822-2.246-8.844 5.488-17.13 13.539-21.409 12.618-6.704 27.378-8.497 41.641-7.487 14.262 1.009 28.177 4.655 42.003 8.271 21.86 5.74 43.751 11.359 65.582 17.205 11.533 3.088 36.741 9.476 32.113 26.108z" fill="#BFDBFE"/><path d="M66.246 313.69c4.719 10.712 14.564 18.681 25.57 22.689 11.005 4.007 22.78 1.552 34.389 0 2.201 3.435 4.432 6.915 7.402 9.702 3.242 3.028 7.207 5.137 11.127 7.216 4.191 2.215 8.397 4.43 12.589 6.644l17.232 9.085c2.88 1.522 5.85 3.073 9.076 3.42 3.709.407 7.402-.799 10.84-2.26 3.754-1.597 7.523-3.224 10.93-5.454.437.422.89.799 1.372 1.13 4.96 3.465 12.272 2.622 17.594-.572 5.835-3.511 9.936-9.205 14.368-14.373 2.548-2.983 5.277-5.875 7.192-9.31 3.452-6.177 3.965-13.65 2.819-20.625-1.116-6.72-3.709-13.394-6.287-19.721-.09-.256-.196-.512-.301-.769 8.774-2.983 15.091-12.022 14.865-21.272 0-.211-.015-.437-.03-.648-.241-6.102-1.734-12.64-2.066-18.712.362 3.074 4.207 4.686 7.192 3.872 2.985-.828 5.216-3.239 7.251-5.559 2.232-2.561 4.463-5.152 6.091-8.135 3.453-6.313 3.95-13.74 4.357-20.896.196-3.285.392-6.629-.376-9.838-.754-3.209-2.594-6.313-5.534-7.804-2.864-1.462-6.256-1.19-9.377-1.974-3.121-.783-5.895-2.621-8.94-3.661-5.368-1.838-11.549-1.115-16.328 1.944-5.789-3.435-11.639-6.704-17.79-8.994-5.036-1.884-10.267-3.119-15.8-3.285-2.247-.06-4.478.091-6.694.362-3.061.392-6.106 1.024-9.106 1.717-9.182 2.094-18.846 5.062-24.846 12.309-2.986-.663-3.121.618-6.167.301-1.613-.181-3.286-.286-4.839.181-1.598.482-2.925 1.552-4.237 2.591a7066.883 7066.883 0 01-11.005 8.814c.588.482-.86.226-1.599.196-5.729-.287-11.443-1.055-17.187-.965-18.212.287-36.032 9.883-46.284 24.934-13.177 19.344-16.87 46.282-7.463 67.705v.015z" fill="#60A5FA"/><path d="M233.895 253.201a6.028 6.028 0 01-6.03-6.026c0-3.328 2.7-6.026 6.03-6.026a6.028 6.028 0 016.031 6.026c0 3.328-2.7 6.026-6.031 6.026zM191.681 251.695a6.028 6.028 0 01-6.03-6.026c0-3.328 2.7-6.026 6.03-6.026a6.028 6.028 0 016.031 6.026c0 3.328-2.7 6.026-6.031 6.026zM220.855 268.734c1.598.648 3.241 1.386 4.281 2.757 1.523 2.004 1.342 4.987-.075 7.066-1.417 2.079-3.845 3.314-6.317 3.751-2.473.437-5.036.166-7.508-.256a63.197 63.197 0 01-5.82-1.281c-.965-.256-1.945-.557-2.713-1.175-1.041-.843-1.583-2.184-1.734-3.51-.573-4.881 3.09-8 7.402-9.19 4.056-1.115 8.73.331 12.499 1.838h-.015z" fill="#172554"/><path d="M161.242 285.803c.256 2.125 1.266 4.113 1.522 6.253.106.768.106 1.582.468 2.26.346.678.98 1.145 1.598 1.581a177.423 177.423 0 0021.016 12.776c.875.437 1.779.919 2.307 1.763.482.753.558 1.702.603 2.606.377 5.785.618 12.068-2.653 16.859-1.463 2.124-3.664 4.323-3.016 6.809.423 1.597 1.915 2.652 3.302 3.556a8564.21 8564.21 0 0112.152 7.909c.392.256.799.512 1.266.573 1.342.15 2.171-1.371 2.684-2.622 2.729-6.614 7.432-12.399 13.342-16.436 3.965-2.712 8.428-4.641 12.363-7.383 3.935-2.757 7.448-6.628 8.171-11.374.257-1.672.151-3.39.664-5.002.754-2.395 2.955-4.218 5.427-4.685a6.369 6.369 0 011.93-.076c4.794-1.22 7.825-3.661 10.885-7.532 1.448-1.823 2.608-3.917 3.061-6.207.603-2.983-.076-6.087-1.342-8.874l-.317-.678c-4.025-8.105-12.166-13.213-20.036-17.672-3.196-1.808-6.528-3.676-8.714-6.629-3.212-4.324-3.362-10.094-4.267-15.397-.588-3.495-1.553-6.9-2.246-10.365a71.385 71.385 0 01-.272-26.772c.121-.708.257-1.461.332-2.229-5.036-1.884-10.267-3.119-15.8-3.285-2.247-.06-4.478.091-6.694.362.332 4.354 2.246 8.602 3.679 12.806 4.055 11.841 5.246 23.999 5.156 36.519-.046 5.273-5.051 8.949-9.589 11.63a391.272 391.272 0 01-23.022 12.64c-3.407 1.733-6.905 3.45-9.679 6.102-2.774 2.636-4.749 6.403-4.281 10.199v.015z" fill="#EFF6FF"/><path d="M203.306 273.058c1.07-3.496 4.553-5.394 7.975-5.71 4.9-.467 11.338-.663 14.142 4.248 1.312 2.29 1.191 5.454-.663 7.337-1.01 1.025-2.397 1.582-3.769 2.004a27.757 27.757 0 01-13.057.753c-1.13-.211-2.306-.527-3.105-1.356-.649-.678-.95-1.612-1.191-2.531-.438-1.551-.799-3.224-.332-4.76v.015z" fill="#172554"/><path d="M157.323 359.926l17.232 9.085c2.88 1.522 5.85 3.073 9.076 3.42 3.709.407 7.403-.799 10.84-2.26 3.754-1.597 7.523-3.224 10.931-5.454.437.422-.634 1.145-.151 1.477.452-.769 2.322-1.944 2.533-2.818.754-3.028-.226-6.282-1.93-8.903-1.704-2.607-4.086-4.701-6.423-6.765-5.322-4.67-10.779-9.416-17.292-12.173l2.879 1.19c-2.925-2.922-7.357-4.143-11.428-3.45-4.07.693-7.734 3.224-10.086 6.629-1.462 2.124-2.442 4.55-3.332 6.991-1.522 4.188-2.819 8.632-2.849 13.031z" fill="#EFF6FF"/><path d="M227.517 263.687c-7.674-4.158-17.353-6.659-25.193-1.446-1.613 1.069-3.136-1.537-1.522-2.607 8.744-5.815 19.629-3.209 28.223 1.447 1.703.919.18 3.525-1.523 2.606h.015z" fill="#172554"/><path d="M220.598 267.484c-4.206-1.597-8.774-1.989-13.177-1.01-1.884.422-2.698-2.485-.799-2.907 4.915-1.085 10.071-.769 14.79 1.009.754.286 1.282 1.01 1.056 1.853-.196.723-1.086 1.341-1.855 1.055h-.015zM249.636 288.696c-3.06 5.333-8.563 9.009-14.594 10.109-6.905 1.266-13.976-.648-19.84-4.339-1.644-1.024-.121-3.646 1.522-2.606 5.141 3.239 11.428 5.152 17.519 4.037 5.292-.964 10.086-4.007 12.785-8.723.965-1.687 3.573-.165 2.608 1.522z" fill="#172554"/><path d="M217.749 292.764c-3.83 5.755-12.031 7.292-18.424 7.985-7.297.798-14.744-.678-20.489-5.424-1.492-1.235.649-3.36 2.126-2.124 4.93 4.068 11.458 5.167 17.685 4.595 3.196-.286 6.422-.995 9.483-1.974 2.714-.874 5.397-2.154 7.026-4.58 1.07-1.612 3.678-.105 2.608 1.522h-.015z" fill="#172554"/><path d="M217.765 281.073c.15 2.561.241 5.122.241 7.683 0 1.236-.015 2.486-.06 3.721-.031.754-.016 1.477-.558 2.064-.543.588-1.417.769-2.081.302-.663-.467-.98-1.311-.543-2.064.392-.663 1.387-1.01 2.066-.543l.075.061-1.161-.151.091-.03-.664.392c-.211.572-.301.647-.241.226v-.241c.015-.242.015-.498.03-.739 0-.497.016-.994.031-1.491v-3.104a136.868 136.868 0 00-.227-6.071c-.045-.814.724-1.507 1.508-1.507.859 0 1.462.693 1.508 1.507l-.015-.015zM226.418 291.092c-1.945 0-1.945-3.013 0-3.013s1.945 3.013 0 3.013zM225.331 286.918c-1.944 0-1.944-3.013 0-3.013 1.945 0 1.945 3.013 0 3.013zM208.13 287.174h.181c.211 0 .407.03.588.136.181.06.347.166.483.316.15.136.256.302.316.482.091.181.136.377.136.588l-.06.407a1.424 1.424 0 01-.392.663l-.302.241a1.503 1.503 0 01-.754.211h-.181c-.211 0-.407-.031-.588-.136a1.132 1.132 0 01-.482-.316 1.132 1.132 0 01-.317-.483 1.295 1.295 0 01-.135-.587l.06-.407c.075-.256.196-.482.392-.663l.302-.241c.241-.135.482-.211.753-.211zM200.531 290.067h.362c.211 0 .407.03.588.136.181.06.347.165.483.316.15.136.256.301.316.482.091.181.136.377.136.588l-.06.407a1.416 1.416 0 01-.392.662l-.302.241a1.493 1.493 0 01-.754.211h-.361c-.212 0-.408-.03-.588-.135a1.123 1.123 0 01-.483-.317 1.112 1.112 0 01-.316-.482 1.283 1.283 0 01-.136-.587l.06-.407c.076-.256.196-.482.392-.663l.302-.241c.241-.136.482-.211.753-.211zM203.245 286.918c-1.944 0-1.944-3.013 0-3.013 1.945 0 1.945 3.013 0 3.013zM235.659 266.776c4.885 4.595 8.594 10.304 10.885 16.602.287.768-.316 1.657-1.055 1.853-.844.226-1.568-.286-1.854-1.055-2.126-5.8-5.624-11.043-10.117-15.276-1.417-1.326.724-3.465 2.126-2.124h.015zM195.931 271.28c-2.186 4.956-6.663 9.265-7.206 14.854-.075.814-.633 1.507-1.508 1.507-.754 0-1.583-.693-1.507-1.507.603-6.297 5.156-10.802 7.613-16.376.332-.738 1.417-.919 2.066-.542.769.452.874 1.31.542 2.064zM235.812 257.631c9.679 4.098 19.87 11.645 19.644 23.276-.03 1.944-3.045 1.944-3.015 0 .196-10.546-9.513-17.024-18.152-20.685-.754-.316-.905-1.416-.543-2.064.437-.783 1.312-.859 2.066-.542v.015zM188.335 264.877c-7.87 6.222-15.71 14.629-14.609 25.446.196 1.929-2.82 1.913-3.016 0-1.176-11.57 7.041-20.896 15.499-27.57 1.508-1.19 3.648.934 2.126 2.124zM234.197 303.973c-13.494 6.523-28.676 4.685-42.606.632-1.855-.542-1.071-3.45.799-2.907 13.071 3.796 27.56 5.815 40.284-.332 1.734-.843 3.272 1.763 1.523 2.607z" fill="#172554"/><path d="M214.282 310.285c-6.875 2.622-14.413 3.119-21.574 1.537-1.9-.422-1.086-3.33.799-2.908 6.663 1.477 13.599.904 19.976-1.537 1.809-.693 2.593 2.215.799 2.908zM161.362 327.098c-3.89-5.484-10.252-9.145-16.961-9.717-1.914-.166-1.93-3.179 0-3.013a26.872 26.872 0 0119.569 11.208c1.116 1.582-1.492 3.089-2.608 1.522z" fill="#172554"/><path d="M164.226 328.785a28.177 28.177 0 00-7.734-2.802 25.004 25.004 0 00-3.965-.497c-.874-.045-2.246-.286-2.91.467-1.296 1.446-3.422-.693-2.125-2.124.98-1.1 2.487-1.386 3.904-1.371 1.689 0 3.378.196 5.036.482 3.256.557 6.407 1.702 9.317 3.269 1.704.919.181 3.526-1.523 2.607v-.031z" fill="#172554"/><path d="M166.128 325.592c3.965 3.736 8.774 6.297 13.569 8.813 5.096 2.667 10.086 5.499 15.016 8.437 4.191 2.486 9.015 4.776 11.729 9.009 2.488 3.872 3.016 8.814 1.538 13.137-.618 1.823-3.543 1.04-2.91-.798 1.478-4.309.618-9.22-2.608-12.535-1.779-1.823-4.04-3.088-6.211-4.384-2.171-1.295-4.493-2.681-6.77-3.992-4.387-2.561-8.865-4.942-13.357-7.322-4.493-2.38-8.549-4.836-12.152-8.226-1.417-1.326.724-3.465 2.126-2.124l.03-.015z" fill="#172554"/><path d="M193.174 349.862c3.935 1.838 7.538 5.002 8.548 9.401 1.01 4.399-.934 8.663-5.035 10.38-.754.317-1.659-.346-1.855-1.054-.241-.874.302-1.537 1.056-1.853 2.879-1.205 3.573-4.821 2.698-7.503-1.055-3.254-3.965-5.378-6.935-6.764-.739-.347-.919-1.401-.543-2.064.438-.754 1.327-.889 2.066-.543zM186.373 352.047c3.603 2.847 6.166 7.533 5.94 12.188-.105 2.38-.995 4.761-2.804 6.358-1.809 1.597-3.965 2.214-6.257 1.778-1.899-.362-1.1-3.27.799-2.908 1.463.286 2.925-.482 3.875-1.552 1.176-1.326 1.462-3.179 1.357-4.881-.241-3.51-2.352-6.719-5.051-8.859-.633-.512-.527-1.597 0-2.124.634-.633 1.493-.512 2.126 0h.015zM127.501 338.458c-4.658-2.064-8.985-4.806-12.89-8.105-3.905-3.3-7.719-7.202-9.694-11.963-.317-.753.346-1.642 1.055-1.853.859-.241 1.538.302 1.854 1.055 1.795 4.339 5.669 7.925 9.197 10.877 3.528 2.953 7.689 5.484 12.001 7.398 1.764.783.241 3.389-1.523 2.606v-.015z" fill="#172554"/><path d="M120.474 335.189a28.943 28.943 0 01-19.991-2.998c-1.704-.934-.181-3.541 1.522-2.607 5.353 2.968 11.67 3.947 17.67 2.682 1.9-.392 2.699 2.501.799 2.908v.015zM142.713 269.788c3.83 14.915 12.65 28.354 24.937 37.665 1.523 1.16.03 3.781-1.523 2.606-12.935-9.808-22.298-23.744-26.323-39.472-.483-1.883 2.427-2.682 2.909-.799z" fill="#172554"/><path d="M152.664 296.696c-2.638-.572-5.035-2.154-7.523-3.194a64.225 64.225 0 00-7.9-2.682c-1.869-.512-1.07-3.419.799-2.907a64.205 64.205 0 017.9 2.681 70.096 70.096 0 013.769 1.688c1.237.602 2.397 1.22 3.754 1.506 1.9.407 1.101 3.315-.799 2.908zM175.987 229.684c-3.378-.738-6.468 1.672-7.976 4.535-1.598 3.013-1.884 6.538-2.231 9.883l-1.086 10.862c-.346 3.42-.723 6.915-2.08 10.094-1.025 2.441-2.714 4.821-5.156 5.996-2.563 1.251-5.307.769-7.78-.512-5.623-2.923-8.593-8.934-10.599-14.644-1.341-3.811-2.457-7.698-4.115-11.389-1.659-3.691-3.694-7.187-6.001-10.501-1.115-1.597 1.508-3.103 2.608-1.522 3.83 5.484 6.709 11.45 8.82 17.793 2.111 6.343 3.905 13.182 9.574 16.934 2.804 1.853 5.804 2.259 8.156-.467 2.186-2.516 2.834-6.042 3.272-9.236.904-6.734.799-13.77 2.382-20.383 1.432-5.936 6.287-11.827 13.026-10.35 1.899.421 1.085 3.314-.799 2.907h-.015z" fill="#172554"/><path d="M129.522 233.315c2.367-6.93 7.493-12.354 13.131-16.843 5.639-4.49 12.619-8.497 20.188-7.759 1.914.181 1.929 3.209 0 3.013-6.951-.678-13.253 2.983-18.484 7.216-5.232 4.234-9.8 8.934-11.941 15.186-.618 1.823-3.543 1.04-2.909-.798l.015-.015zM242.745 216.547c9.363 1.084 12.498 10.862 12.483 18.997 0 5.319-.497 10.637-.723 15.94-.106 2.44-.242 5.182.934 7.412.965 1.823 3.317 3.51 5.413 2.546 1.749-.813 3.287 1.793 1.523 2.607-3.528 1.642-7.524-.121-9.423-3.405-2.518-4.369-1.417-10.245-1.176-15.021.271-5.408 1.07-11.178-.166-16.512-1.01-4.369-4.04-8.979-8.865-9.536-1.9-.226-1.93-3.239 0-3.013v-.015zM220.658 321.223c-10.04 1.551-20.202 1.265-30.137-.904-1.9-.407-1.086-3.315.799-2.908a77.968 77.968 0 0028.524.904c1.9-.301 2.714 2.606.799 2.908h.015zM229.358 324.356c-5.623 2.999-11.006 6.449-16.026 10.366-4.644 3.646-9.513 7.608-11.895 13.152-.769 1.778-3.362.241-2.609-1.522 2.488-5.77 7.523-9.973 12.363-13.77a114.15 114.15 0 0116.629-10.847c1.719-.919 3.242 1.687 1.523 2.606l.015.015zM221.548 357.998a25.377 25.377 0 01-6.257 4.52c-2.307 1.175-5.231 2.591-7.749 1.31-.724-.361-.935-1.386-.543-2.064.437-.738 1.327-.904 2.066-.542.678.347 1.688-.06 2.442-.331.965-.347 1.9-.784 2.804-1.266a22.648 22.648 0 005.096-3.766c1.387-1.356 3.528.768 2.126 2.124l.015.015zM212.668 348.793c-.904 2.802-3.241 5.077-6.121 5.785-.769.181-1.673-.241-1.854-1.054-.181-.814.241-1.658 1.055-1.854.362-.09.709-.21 1.056-.346l-.362.151a7.867 7.867 0 001.161-.633c.09-.06.181-.121.271-.196.045-.03.196-.151 0 0a6.788 6.788 0 00.935-.934c.045-.045.075-.09.12-.136.136-.15-.09.106-.105.136.03-.09.135-.196.196-.271.256-.377.482-.769.663-1.19l-.151.361c.091-.211.166-.407.227-.618.241-.753 1.055-1.31 1.854-1.054.754.241 1.312 1.054 1.055 1.853zM218.684 224.004a27.924 27.924 0 01-1.402 4.641c-.151.376-.332.693-.693.903-.317.196-.799.272-1.161.151-.362-.12-.724-.346-.905-.693-.181-.346-.301-.783-.151-1.16a30.96 30.96 0 001.402-4.64c.166-.769 1.116-1.296 1.855-1.055.814.271 1.221 1.025 1.055 1.853zM214.07 220.178c.105 2.35-.875 4.745-2.578 6.357-.573.543-1.568.618-2.126 0-.558-.617-.618-1.552 0-2.124.151-.136.286-.271.407-.422.06-.06.106-.12.166-.196.03-.045.075-.09.105-.135l-.135.165c.241-.271.437-.647.603-.964l.136-.271c.045-.105.12-.377-.016.045.061-.165.136-.346.181-.512a7.29 7.29 0 00.257-1.1l-.061.407c.061-.422.076-.844.061-1.266-.046-.783.723-1.536 1.507-1.506.845.045 1.463.663 1.508 1.506l-.015.016zM208.989 221.79l-.407 1.009a1.116 1.116 0 01-.271.512 1.181 1.181 0 01-.422.392 1.227 1.227 0 01-.558.181c-.196.045-.407.03-.603-.03l-.362-.151a1.565 1.565 0 01-.543-.542l-.15-.362a1.425 1.425 0 010-.798l.407-1.01c.045-.196.135-.361.271-.512.106-.166.241-.286.422-.392.166-.105.362-.166.558-.181.196-.045.407-.03.603.031l.362.15c.226.136.407.317.543.543l.15.361c.076.271.076.527 0 .799zM99.926 295.34l.211 6.252c.03.784-.709 1.537-1.508 1.507a1.532 1.532 0 01-1.508-1.507l-.21-6.252c-.03-.783.708-1.536 1.507-1.506.844.03 1.478.663 1.508 1.506zM94.936 296.154c-.06.753-.03 1.506.06 2.244l-.06-.406c.121.828.317 1.642.619 2.425.135.347.03.859-.151 1.16-.181.301-.543.618-.905.693-.392.091-.814.076-1.16-.15-.347-.226-.543-.513-.694-.904a12.102 12.102 0 01-.739-5.078c.03-.406.15-.768.437-1.069.257-.256.694-.452 1.07-.437.77.03 1.569.663 1.508 1.506l.015.016zM91.891 300.221l1.251 1.989c.106.166.166.362.181.557.046.196.03.407-.03.603a1.123 1.123 0 01-.271.512 1.178 1.178 0 01-.422.392c-.347.181-.77.271-1.161.151a1.553 1.553 0 01-.905-.693l-1.251-1.989a1.222 1.222 0 01-.181-.558 1.17 1.17 0 01.03-.602c.045-.196.136-.362.271-.512a1.17 1.17 0 01.423-.392c.346-.181.769-.271 1.16-.151.392.121.694.347.905.693z" fill="#172554"/><path d="M79.473 379.608l5.05-6.184 8.05.58-4.427-6.63 3.05-7.343-7.787 2.088L77.246 357l-.386 7.921-6.86 4.178 7.548 2.808 1.925 7.701z" fill="#3B82F6"/><path d="M121.464 214l3.487-3.826 5.049.777-2.47-4.583 2.282-4.687-5.013.993-3.64-3.674-.629 5.198-4.53 2.415 4.625 2.22.839 5.167z" fill="#1D4ED8"/></g><g clip-path="url(#prefix__clip3_47_1606)"><path d="M140.909 198.893c2.686-3.002 15.839-6.332 29.337-9.063 1.093-13.767 3.349-32.131 3.349-32.131s-.82.946-2.826-.554c-2.006-1.5-.365-3.451-.365-3.451s-1.661.037-3.56-.849c-1.9-.887-.864-2.786-.864-2.786s-15.68.029-16.409-4.717c-.728-4.746 10.95-19.194 37.446-14 22.481 4.406 37.599 33.372 44.428 49.641 3.81-.211 7.728-.324 11.569-.278 9.621.11 25.979 3.632 19.267 15.727s-41.337 35.491-84.632 29.358c-43.295-6.133-42.619-20.329-36.74-26.897z" fill="#2563EB"/><path d="M212.448 160.072l5.721 2.603-5.541 2.983-.703 6.272-4.526-4.368-6.154 1.275 2.741-5.683-3.102-5.485 6.223.857 4.239-4.666 1.102 6.212zM190.151 186.683l1.255-6.186 4.121 4.756 6.243-.722-3.234 5.418 2.603 5.741-6.121-1.409-4.631 4.269-.551-6.287-5.467-3.102 5.782-2.478zM171.434 176.981c.646-6.315 1.322-12.209 1.742-15.779l2.367 2.414 6.187-1.103-2.898 5.604 2.948 5.571-6.197-1.03-4.149 4.323zM244.789 190.651l-7.082 1.379 1.599-3.835-5.436-3.164 7.815-.043 3.724-3.333 3.23 3.808 7.735 1.102-5.816 2.397 1.057 4.015-6.826-2.326zM196.767 134.93l-3.005 2.565.632 6.28-5.345-3.308-5.748 2.552 1.486-6.136-4.185-4.702 6.264-.482.2-.346c3.403.674 6.638 1.909 9.698 3.579l.003-.002zM151.84 194.167l1.667.004.898-.714a171.72 171.72 0 012.896-.747l1.753 1.839 6.173.831-4.624 1.672.867 2.864-5.457-1.697-5.638.94 1.253-2.72-2.661-1.396a96.215 96.215 0 012.873-.874v-.002zM161.446 216.642l-1.26 3.279-1.868-3.218-3.545-.453 2.294-2.579-.932-3.56 3.285 1.625 2.971-1.746-.263 3.582 2.767 2.479-3.449.591zM215.273 221.222l-7.257-.648-6.78 2.684.837-3.723-6.033-1.678 7.774-1.654 3.052-3.721 3.965 2.703 7.919-.622-5.321 3.324 1.844 3.335z" fill="#DBEAFE"/></g><g clip-path="url(#prefix__clip4_47_1606)" fill="#60A5FA"><path d="M335.989 219.032s-1.6 6.463-5.02 9.689c-3.072 2.898-6.99 3.918-6.99 3.918s9.893 6.45 10.422 16.068c0 0 2.26-12.377 11.14-14.213 0 0-8.485-6.416-9.552-15.462zM351.392 209.12s-1.164 4.707-3.656 7.057c-2.239 2.11-5.092 2.853-5.092 2.853s7.206 4.697 7.592 11.702c0 0 1.645-9.014 8.113-10.351 0 0-6.179-4.672-6.957-11.261z"/></g><g clip-path="url(#prefix__clip5_47_1606)"><path d="M202.972 350.26l5.614 9.867 100.717-71.155-6.584-10.19-99.747 71.478z" fill="#172554"/><path d="M328.005 268.461a8.326 8.326 0 00-.155-.228c-1.618-2.32-3.889-2.697-5.624-2.557a6.906 6.906 0 00-3.549 1.345l-15.958 11.761 6.583 10.191 16.613-10.841c3.227-2.106 4.204-6.447 2.09-9.668v-.003z" fill="#93C5FD"/><path d="M311.833 244.665l.989 6.507 5.92 2.875-5.882 2.952-.906 6.518-4.624-4.683-6.478 1.154 3.024-5.844-3.099-5.806 6.493 1.071 4.563-4.744zM336.252 266.414c-1.764-1.934-2.126-4.477-.808-5.679 1.318-1.203 3.817-.609 5.581 1.326 1.765 1.934 2.127 4.477.809 5.679-1.318 1.203-3.817.609-5.582-1.326zM328.263 297.687c-.941 1.191-3.123 1.038-4.874-.345-1.751-1.383-2.406-3.47-1.464-4.661.941-1.192 3.123-1.039 4.874.344 1.749 1.382 2.405 3.47 1.464 4.662z" fill="#3B82F6"/></g><path d="M62.728 91.963l-46.208 27.65s-2.095 2.665-.544 5.782L47.4 190.912l50.218-20.764-34.889-78.185z" fill="#60A5FA"/><path d="M27.941 128.158s-9.538 3.233-8.991-4.277c.09-1.247.746-2.381 1.815-3.021l44.408-26.608 11.16 6.165-48.391 27.743v-.002z" fill="#DBEAFE"/><path d="M18.407 126.207s1.034 2.078 9.445-1.484c8.41-3.563 49.91-29.2 49.91-29.2l31.495 75.052-48.593 29.6c-3.02 1.808-8.689.651-10.2-2.54l-32.056-71.428z" fill="#60A5FA"/><path d="M77.004 95.45l-13.096 8.005a1.26 1.26 0 00-.447 1.68c1.001 1.819 3.525 5.324 8.29 5.79 4.785.467 9.16-1.208 11.119-2.116a1.26 1.26 0 00.627-1.632l-4.673-11.134a1.264 1.264 0 00-1.823-.594h.003zM109.477 169.106l-6.138-13.777a1.264 1.264 0 00-1.635-.596c-1.892.835-5 4.481-5.86 9.192-.863 4.731.68 10.325 1.42 12.361.233.637.927.977 1.573.773l9.902-6.188a1.259 1.259 0 00.741-1.764l-.003-.001zM26.383 125.317s-5.818 2.274-8.17-.572c-2.176-2.632-1.692-5.134-1.692-5.134s-.85.603-1.441 1.769c-.652 1.286-.633 2.81-.008 4.113l34.772 72.373s1.732 4.806 9.308 3.536l2.544-1.162-35.312-74.922-.001-.001z" fill="#2563EB"/><path d="M23.415 142.86s1.896.447 3.442.111c1.544-.338 6.611-2.618 6.611-2.618l2.046 4.342s-4.942 3.186-10.288 1.935l-1.812-3.769.001-.001zM27.064 150.387s1.895.446 3.441.11c1.545-.337 6.612-2.617 6.612-2.617l2.046 4.342s-4.943 3.186-10.289 1.935l-1.81-3.77z" fill="#60A5FA"/><path d="M52.85 185.681s8.095 1.994 10.903 4.037 5.073 5.973 5.073 5.973l-7.13 4.549-8.846-14.56v.001z" fill="#2563EB"/><path d="M40.586 178.596s1.928.593 3.474.255c1.544-.338 6.611-2.618 6.611-2.618l2.046 4.342s-4.81 3.101-10.075 1.983a.448.448 0 01-.308-.247l-1.75-3.715h.002zM44.267 186.271s1.895.446 3.441.11c1.545-.337 6.612-2.618 6.612-2.618l2.046 4.343s-4.943 3.185-10.29 1.933l-1.812-3.769.003.001z" fill="#60A5FA"/><path d="M80.782 136.631s-13.891-9.359-20.136-9.078c-6.246.281-6.038 19.903-4.418 23.681 1.619 3.776 19.038 18.66 23.08 13.845 4.04-4.815 5.848-22.419 1.474-28.446v-.002z" fill="#2563EB"/><path d="M75.044 142.062s-2.758-4.986-8.427-4.437c-5.67.548-5.277 11.87-.355 15.615 4.924 3.745 9.855 2.963 9.786-1.349-.07-4.312.063-8.135-1.004-9.829z" fill="#DBEAFE"/><path d="M31.095 140.496s6.834-6.728 6.199-10.941c-.636-4.214-3.25-8-3.25-8s-7.142 3.616-8.96 4.387c-1.816.772 6.01 14.552 6.01 14.552l.001.002z" fill="#2563EB"/><path d="M30.67 119.97l-12.55-16.912 8.013-.864 2.688-5.028 11.188 16.679-9.339 6.125z" fill="#93C5FD"/></g><defs><clipPath id="prefix__clip0_47_1606"><path fill="#fff" d="M0 0h400v400H0z"/></clipPath><clipPath id="prefix__clip1_47_1606"><path fill="#fff" transform="translate(82 29)" d="M0 0h325.46v132.16H0z"/></clipPath><clipPath id="prefix__clip2_47_1606"><path fill="#fff" transform="matrix(-1 0 0 1 280 195.531)" d="M0 0h219v194H0z"/></clipPath><clipPath id="prefix__clip3_47_1606"><path fill="#fff" transform="scale(-1 1) rotate(-7.827 907.91 2049.174)" d="M0 0h122.802v94.95H0z"/></clipPath><clipPath id="prefix__clip4_47_1606"><path fill="#fff" transform="rotate(3.452 -3281.209 5504.564)" d="M0 0h33.57v40.538H0z"/></clipPath><clipPath id="prefix__clip5_47_1606"><path fill="#fff" transform="scale(-1 1) rotate(-36.68 230.085 662.126)" d="M0 0h69.076v157.888H0z"/></clipPath></defs></svg>