<svg width="600" height="428" viewBox="0 0 600 428" fill="none" xmlns="http://www.w3.org/2000/svg">
<g clip-path="url(#clip0_26_190)">
<path d="M298.77 162.185C298.77 167.87 294.24 172.475 288.66 172.475H12.1647C6.58469 172.475 2.05469 167.87 2.05469 162.185V131.24C2.05469 125.555 6.58469 120.95 12.1647 120.95H288.66C294.255 120.95 298.77 125.555 298.77 131.24V162.185Z" fill="#1E3A8A"/>
<path d="M53.1447 120.95H12.1647C6.58469 120.95 2.05469 125.555 2.05469 131.24V162.185C2.05469 167.87 6.58469 172.475 12.1647 172.475H53.1447V120.95Z" fill="#1E3A8A"/>
<path d="M298.77 162.185C298.77 167.87 294.24 172.475 288.66 172.475H12.1647C6.58469 172.475 2.05469 167.87 2.05469 162.185V131.24C2.05469 125.555 6.58469 120.95 12.1647 120.95H288.66C294.255 120.95 298.77 125.555 298.77 131.24V162.185Z" fill="#1E3A8A"/>
<path d="M11.3694 117.38H284.37C289.875 117.38 294.36 121.85 294.36 127.37V157.415C294.36 162.92 289.89 167.405 284.37 167.405H11.3694C5.8644 167.405 1.37939 162.935 1.37939 157.415V127.37C1.37939 121.865 5.8644 117.38 11.3694 117.38Z" fill="#EFF6FF"/>
<path d="M51.8244 117.38H11.3694C5.8644 117.38 1.37939 121.85 1.37939 127.37V157.415C1.37939 162.935 5.8494 167.405 11.3694 167.405H51.8244V117.38Z" fill="#BFDBFE"/>
<path d="M11.3694 117.38H284.37C289.875 117.38 294.36 121.85 294.36 127.37V157.415C294.36 162.92 289.89 167.405 284.37 167.405H11.3694C5.8644 167.405 1.37939 162.935 1.37939 157.415V127.37C1.37939 121.865 5.8644 117.38 11.3694 117.38Z" stroke="#1E3A8A" stroke-width="2.775" stroke-linecap="round" stroke-linejoin="round"/>
<path d="M17.25 156.305C16.41 157.145 14.82 156.92 13.695 155.81C12.57 154.685 12.36 153.11 13.2 152.255L19.575 145.88C20.415 145.04 22.005 145.265 23.13 146.375C24.255 147.5 24.465 149.075 23.625 149.93L17.25 156.305Z" fill="#1E3A8A"/>
<path d="M38.3101 143.075C35.0251 146.36 29.7151 146.36 26.4301 143.075C23.1451 139.79 23.1451 134.48 26.4301 131.195C29.7151 127.91 35.0251 127.91 38.3101 131.195C41.5951 134.48 41.5951 139.79 38.3101 143.075Z" stroke="#1E3A8A" stroke-width="2.775" stroke-linecap="round" stroke-linejoin="round"/>
<path d="M26.4296 143.075L21.1646 148.34" stroke="#1E3A8A" stroke-width="2.775" stroke-linecap="round" stroke-linejoin="round"/>
<path d="M65.9546 156.2C65.9546 156.965 65.3246 157.595 64.5596 157.595C63.7796 157.595 63.1646 156.965 63.1646 156.2V127.31C63.1646 126.545 63.7946 125.915 64.5596 125.915C65.3246 125.915 65.9546 126.545 65.9546 127.31V156.2Z" fill="#93C5FD"/>
</g>
<g clip-path="url(#clip1_26_190)">
<path d="M599.03 174.75C599.03 180.36 594.5 184.92 588.92 184.92H350.9C345.32 184.92 340.79 180.375 340.79 174.75V50.1149C340.79 44.5049 345.32 39.9449 350.9 39.9449H588.92C594.5 39.9449 599.03 44.4899 599.03 50.1149V174.75Z" fill="#1E3A8A"/>
<path d="M349.37 37.38H584.63C590.135 37.38 594.62 41.85 594.62 47.37V169.86C594.62 175.365 590.15 179.85 584.63 179.85H349.37C343.85 179.85 339.38 175.38 339.38 169.86V47.37C339.38 41.865 343.865 37.38 349.37 37.38Z" fill="white"/>
<path d="M584.63 37.8202H349.37C343.865 37.8202 339.38 42.2902 339.38 47.8102V80.7502H594.605V47.8102C594.605 42.2902 590.135 37.8202 584.615 37.8202H584.63Z" fill="#93C5FD"/>
<path opacity="0.24" d="M584.63 37.38H516.29L487.805 80.31H594.62V47.37C594.62 41.85 590.15 37.38 584.63 37.38Z" fill="#3B82F6"/>
<path d="M349.37 37.38H584.63C590.135 37.38 594.62 41.85 594.62 47.37V169.86C594.62 175.365 590.15 179.85 584.63 179.85H349.37C343.85 179.85 339.38 175.38 339.38 169.86V47.37C339.38 41.865 343.865 37.38 349.37 37.38Z" stroke="#1E3A8A" stroke-width="2.775" stroke-linecap="round" stroke-linejoin="round"/>
<path d="M566.765 51.03H579.14C580.565 51.03 581.72 52.185 581.72 53.61V64.62C581.72 66.045 580.565 67.2 579.14 67.2H566.765C565.34 67.2 564.185 66.045 564.185 64.62V53.61C564.185 52.185 565.34 51.03 566.765 51.03Z" fill="#3B82F6"/>
<path d="M540.83 51.03H553.205C554.63 51.03 555.785 52.185 555.785 53.61V64.62C555.785 66.045 554.63 67.2 553.205 67.2H540.83C539.405 67.2 538.25 66.045 538.25 64.62V53.61C538.25 52.185 539.405 51.03 540.83 51.03Z" fill="white"/>
<path d="M566.765 51.03H579.14C580.565 51.03 581.72 52.185 581.72 53.61V64.62C581.72 66.045 580.565 67.2 579.14 67.2H566.765C565.34 67.2 564.185 66.045 564.185 64.62V53.61C564.185 52.185 565.34 51.03 566.765 51.03Z" stroke="#1E3A8A" stroke-width="2.1" stroke-linecap="round" stroke-linejoin="round"/>
<path d="M577.445 54.585L568.46 63.555" stroke="#1E3A8A" stroke-width="2.1" stroke-linecap="round" stroke-linejoin="round"/>
<path d="M577.445 63.555L568.46 54.585" stroke="#1E3A8A" stroke-width="2.1" stroke-linecap="round" stroke-linejoin="round"/>
<path d="M540.83 51.03H553.205C554.63 51.03 555.785 52.185 555.785 53.61V64.62C555.785 66.045 554.63 67.2 553.205 67.2H540.83C539.405 67.2 538.25 66.045 538.25 64.62V53.61C538.25 52.185 539.405 51.03 540.83 51.03Z" stroke="#1E3A8A" stroke-width="2.1" stroke-linecap="round" stroke-linejoin="round"/>
<path d="M542 61.41H551.405" stroke="#1E3A8A" stroke-width="2.1" stroke-linecap="round" stroke-linejoin="round"/>
<path opacity="0.6" d="M434.69 140.475H503.9C506.21 140.475 508.1 142.35 508.1 144.675V160.755C508.1 163.065 506.225 164.955 503.9 164.955H434.705C432.395 164.955 430.505 163.08 430.505 160.755V144.675C430.505 142.365 432.38 140.49 434.69 140.49V140.475Z" fill="#DBEAFE"/>
<path opacity="0.6" d="M475.34 164.94H503.9C506.21 164.94 508.1 163.065 508.1 160.755V144.675C508.1 142.35 506.225 140.475 503.9 140.475H490.07C485.93 147.165 479.93 157.215 475.34 164.94Z" fill="#DBEAFE"/>
<path d="M438.519 153.035C438.5 151.914 438.847 150.891 439.558 149.966C440.396 148.863 441.485 148.245 442.825 148.113C443.495 148.045 443.939 148.015 444.158 148.024C444.377 148.029 444.68 148.077 445.067 148.168C445.819 148.35 446.528 148.733 447.193 149.316C447.371 149.471 447.515 149.622 447.624 149.767C447.733 149.913 447.815 150.073 447.87 150.246C447.925 150.419 447.923 150.604 447.863 150.8C447.804 150.996 447.686 151.198 447.508 151.408C446.956 152.064 446.327 152.121 445.621 151.579C445.006 151.109 444.653 150.847 444.562 150.793C444.179 150.583 443.757 150.517 443.297 150.594C442.841 150.672 442.454 150.868 442.135 151.182C441.674 151.629 441.41 152.149 441.342 152.741C441.278 153.333 441.444 153.889 441.841 154.409C442.064 154.682 442.322 154.892 442.613 155.038C442.905 155.179 443.194 155.254 443.481 155.263C443.769 155.268 444.047 155.229 444.315 155.147C444.584 155.061 444.824 154.935 445.033 154.771C445.106 154.717 445.254 154.594 445.478 154.402L445.929 154.033C445.997 153.978 446.084 153.946 446.188 153.937C447.054 153.928 447.588 154.281 447.788 154.997C447.893 155.375 447.813 155.758 447.549 156.145C447.289 156.528 446.879 156.881 446.318 157.205C445.958 157.419 445.635 157.569 445.348 157.656C445.061 157.743 444.739 157.793 444.384 157.806C444.033 157.816 443.591 157.813 443.058 157.8C442.616 157.795 442.155 157.699 441.677 157.512C441.198 157.321 440.743 157.05 440.31 156.699C439.744 156.239 439.296 155.676 438.963 155.01C438.63 154.341 438.482 153.682 438.519 153.035ZM451.633 150.547H451.687C451.696 150.528 451.719 150.481 451.756 150.403C451.792 150.321 451.819 150.262 451.838 150.225C452.216 149.441 452.471 148.929 452.603 148.687C452.699 148.496 452.827 148.341 452.986 148.222C453.15 148.104 453.328 148.038 453.519 148.024C453.62 148.02 453.727 148.02 453.841 148.024C453.923 148.015 454.002 148.015 454.08 148.024C454.271 148.038 454.447 148.104 454.606 148.222C454.77 148.341 454.9 148.496 454.996 148.687C455.046 148.783 455.201 149.088 455.461 149.603C455.474 149.644 455.575 149.852 455.762 150.225C455.957 150.631 456.096 150.927 456.179 151.114C456.192 151.141 456.233 151.226 456.302 151.367C456.37 151.504 456.434 151.634 456.493 151.757C456.557 151.884 456.621 152.019 456.684 152.16C456.753 152.301 456.805 152.415 456.842 152.502C456.883 152.588 456.915 152.652 456.937 152.693C457.06 152.962 457.179 153.206 457.293 153.425C457.434 153.716 457.584 154.033 457.744 154.375C457.785 154.466 457.84 154.587 457.908 154.737C457.981 154.883 458.026 154.976 458.045 155.017C458.391 155.728 458.633 156.273 458.769 156.651C458.86 156.897 458.849 157.123 458.735 157.328C458.594 157.601 458.302 157.754 457.86 157.786C457.824 157.79 457.764 157.797 457.682 157.806C457.568 157.816 457.509 157.82 457.505 157.82C457.359 157.811 457.252 157.797 457.183 157.779C457.129 157.779 457.054 157.759 456.958 157.718C456.789 157.64 456.662 157.538 456.575 157.41C456.493 157.278 456.379 157.034 456.233 156.678C456.065 156.264 455.91 155.965 455.768 155.783C455.632 155.596 455.458 155.446 455.249 155.332C455.139 155.273 455.03 155.234 454.921 155.216C454.811 155.197 454.593 155.184 454.264 155.175H453.841H453.752H453.335C453.007 155.184 452.788 155.197 452.679 155.216C452.569 155.234 452.46 155.273 452.35 155.332C452.141 155.446 451.965 155.596 451.824 155.783C451.687 155.965 451.532 156.264 451.359 156.678C451.218 157.034 451.104 157.278 451.017 157.41C450.931 157.538 450.803 157.64 450.635 157.718C450.543 157.759 450.468 157.779 450.409 157.779C450.35 157.797 450.245 157.811 450.095 157.82C450.09 157.82 450.031 157.816 449.917 157.806L449.732 157.786C449.55 157.772 449.404 157.743 449.295 157.697C448.803 157.501 448.664 157.105 448.878 156.508C448.969 156.266 449.213 155.726 449.609 154.887C450.193 153.68 450.539 152.957 450.648 152.72C450.639 152.73 450.635 152.736 450.635 152.741C450.639 152.736 450.646 152.72 450.655 152.693C450.669 152.666 450.678 152.65 450.682 152.645C450.728 152.545 450.869 152.249 451.106 151.757C451.211 151.533 451.387 151.169 451.633 150.663V150.547ZM453.396 153.192H454.292C454.429 153.188 454.536 153.185 454.613 153.185C454.709 153.181 454.752 153.133 454.743 153.042C454.743 153.019 454.736 152.994 454.722 152.967L454.517 152.536C454.344 152.153 454.221 151.918 454.148 151.832L454.128 151.804C454.018 151.613 453.918 151.542 453.827 151.593C453.736 151.583 453.651 151.649 453.574 151.791C453.56 151.8 453.544 151.814 453.526 151.832C453.471 151.896 453.417 151.984 453.362 152.098C453.248 152.372 453.111 152.661 452.952 152.967C452.938 152.994 452.931 153.019 452.931 153.042C452.927 153.087 452.941 153.124 452.972 153.151C453.004 153.174 453.05 153.188 453.109 153.192C453.15 153.192 453.184 153.19 453.212 153.185C453.276 153.185 453.337 153.188 453.396 153.192ZM467.608 152.823V150.97C467.608 150.05 467.61 149.428 467.615 149.104C467.615 148.867 467.665 148.664 467.765 148.496C467.984 148.049 468.408 147.856 469.037 147.915C469.324 147.938 469.554 148.045 469.727 148.236C469.809 148.327 469.875 148.416 469.926 148.503C469.976 148.585 470.01 148.692 470.028 148.824C470.046 148.956 470.058 149.059 470.062 149.132C470.067 149.205 470.067 149.346 470.062 149.555C470.058 149.765 470.055 149.915 470.055 150.007C470.055 150.526 470.058 150.875 470.062 151.052V154.429C470.053 154.771 470.051 155.122 470.055 155.482V156.637C470.051 157.002 469.953 157.287 469.762 157.492C469.57 157.692 469.31 157.793 468.982 157.793C468.485 157.793 468.105 157.674 467.841 157.437C467.832 157.428 467.818 157.417 467.8 157.403L467.718 157.328C467.467 157.15 467.207 156.899 466.938 156.576L466.931 156.569L466.911 156.549C466.592 156.198 465.769 155.33 464.443 153.944C464.361 153.862 464.24 153.737 464.081 153.568C463.926 153.395 463.839 153.299 463.821 153.281C463.725 153.181 463.637 153.09 463.554 153.008C463.55 153.003 463.486 152.976 463.363 152.926C463.208 152.866 463.06 152.898 462.919 153.021C462.887 153.053 462.862 153.085 462.844 153.117C462.844 153.122 462.841 153.128 462.837 153.137C462.837 153.142 462.834 153.147 462.83 153.151H462.823C462.755 153.26 462.716 153.374 462.707 153.493C462.698 153.858 462.695 154.382 462.7 155.065V156.74C462.691 157.013 462.582 157.262 462.372 157.485C462.194 157.677 461.937 157.788 461.599 157.82C461.262 157.847 460.984 157.786 460.765 157.635C460.465 157.412 460.31 157.111 460.301 156.733V149.282C460.305 149.241 460.307 149.195 460.307 149.145C460.321 148.913 460.378 148.717 460.478 148.557L460.485 148.551C460.708 148.186 461.064 147.985 461.552 147.949C461.83 147.935 462.035 147.972 462.167 148.058C462.299 148.145 462.611 148.439 463.103 148.94C463.153 148.99 463.192 149.031 463.22 149.063C463.251 149.091 463.29 149.129 463.336 149.179C463.386 149.23 463.431 149.275 463.472 149.316L463.794 149.637C463.844 149.688 463.903 149.751 463.971 149.829C464.04 149.902 464.083 149.95 464.101 149.972L464.58 150.451C464.717 150.592 464.876 150.754 465.058 150.936L465.954 151.866C466.41 152.331 466.71 152.641 466.856 152.796C467.075 153.024 467.221 153.165 467.294 153.219C467.358 153.27 467.417 153.283 467.471 153.26C467.563 153.219 467.608 153.074 467.608 152.823ZM466.918 156.555L466.911 156.549L466.918 156.555ZM466.931 156.576C466.941 156.576 466.941 156.576 466.931 156.576V156.576ZM471.481 153.035C471.463 151.914 471.81 150.891 472.521 149.966C473.359 148.863 474.448 148.245 475.788 148.113C476.458 148.045 476.902 148.015 477.121 148.024C477.34 148.029 477.643 148.077 478.03 148.168C478.782 148.35 479.491 148.733 480.156 149.316C480.334 149.471 480.478 149.622 480.587 149.767C480.696 149.913 480.778 150.073 480.833 150.246C480.888 150.419 480.885 150.604 480.826 150.8C480.767 150.996 480.648 151.198 480.471 151.408C479.919 152.064 479.29 152.121 478.584 151.579C477.969 151.109 477.616 150.847 477.524 150.793C477.142 150.583 476.72 150.517 476.26 150.594C475.804 150.672 475.417 150.868 475.098 151.182C474.637 151.629 474.373 152.149 474.305 152.741C474.241 153.333 474.407 153.889 474.804 154.409C475.027 154.682 475.285 154.892 475.576 155.038C475.868 155.179 476.157 155.254 476.444 155.263C476.731 155.268 477.009 155.229 477.278 155.147C477.547 155.061 477.786 154.935 477.996 154.771C478.069 154.717 478.217 154.594 478.44 154.402L478.892 154.033C478.96 153.978 479.047 153.946 479.151 153.937C480.017 153.928 480.55 154.281 480.751 154.997C480.856 155.375 480.776 155.758 480.512 156.145C480.252 156.528 479.842 156.881 479.281 157.205C478.921 157.419 478.598 157.569 478.311 157.656C478.023 157.743 477.702 157.793 477.347 157.806C476.996 157.816 476.554 157.813 476.021 157.8C475.578 157.795 475.118 157.699 474.64 157.512C474.161 157.321 473.705 157.05 473.272 156.699C472.707 156.239 472.258 155.676 471.926 155.01C471.593 154.341 471.445 153.682 471.481 153.035ZM482.394 149.719V149.084C482.394 148.747 482.488 148.484 482.675 148.298C482.866 148.106 483.126 148.013 483.454 148.017C484.776 148.017 486.66 148.02 489.107 148.024C489.34 148.024 489.547 148.088 489.729 148.216C489.912 148.339 490.044 148.494 490.126 148.68C490.212 148.867 490.242 149.077 490.215 149.309C490.192 149.542 490.105 149.754 489.955 149.945C489.804 150.136 489.581 150.232 489.285 150.232C487.635 150.223 486.514 150.223 485.922 150.232C485.872 150.232 485.79 150.232 485.676 150.232C485.562 150.228 485.486 150.228 485.45 150.232C485.418 150.232 485.359 150.237 485.272 150.246C485.19 150.25 485.136 150.262 485.108 150.28C485.085 150.298 485.047 150.326 484.992 150.362C484.937 150.394 484.899 150.435 484.876 150.485C484.858 150.535 484.835 150.597 484.807 150.67C484.785 150.743 484.764 150.829 484.746 150.929V151.141C484.75 151.419 484.858 151.606 485.067 151.702C485.204 151.738 485.373 151.757 485.573 151.757C486.876 151.757 487.569 151.759 487.651 151.763C488.175 151.782 488.501 151.957 488.629 152.29C488.761 152.613 488.763 152.944 488.636 153.281C488.513 153.614 488.296 153.814 487.986 153.883C487.822 153.924 487.653 153.949 487.48 153.958C487.307 153.962 486.988 153.96 486.523 153.951C485.762 153.942 485.368 153.94 485.341 153.944C485.172 153.949 485.035 154.019 484.93 154.156C484.812 154.316 484.76 154.591 484.773 154.983C484.773 155.006 484.778 155.04 484.787 155.086L484.801 155.161C484.828 155.366 484.912 155.491 485.054 155.537C485.195 155.582 485.455 155.605 485.833 155.605C485.874 155.605 485.903 155.605 485.922 155.605C486.514 155.614 487.635 155.614 489.285 155.605C489.581 155.605 489.804 155.701 489.955 155.892C490.105 156.084 490.192 156.296 490.215 156.528C490.242 156.76 490.212 156.97 490.126 157.157C490.044 157.344 489.912 157.501 489.729 157.629C489.547 157.752 489.34 157.813 489.107 157.813C486.66 157.818 484.776 157.82 483.454 157.82C483.126 157.825 482.866 157.733 482.675 157.547C482.488 157.355 482.394 157.091 482.394 156.754C482.399 156.672 482.401 156.323 482.401 155.708H482.394C482.394 155.293 482.397 154.833 482.401 154.327V152.816V151.312H482.394V150.13V149.719ZM492.596 152.919V149.036C492.596 148.799 492.671 148.592 492.822 148.414C492.977 148.236 493.175 148.124 493.417 148.079C493.799 148.006 494.15 148.036 494.469 148.168C494.62 148.232 494.75 148.359 494.859 148.551C494.973 148.737 495.03 148.922 495.03 149.104C495.03 150.389 495.039 151.868 495.057 153.541C495.057 154.051 495.066 154.413 495.085 154.628C495.098 154.851 495.178 155.033 495.324 155.175C495.47 155.316 495.654 155.389 495.878 155.393C497.017 155.412 497.773 155.423 498.147 155.427C498.598 155.437 498.858 155.437 498.926 155.427C499.1 155.423 499.245 155.425 499.364 155.434C499.487 155.439 499.612 155.457 499.74 155.489C499.872 155.521 499.977 155.566 500.054 155.626C500.136 155.685 500.205 155.769 500.259 155.879C500.319 155.983 500.355 156.113 500.369 156.268C500.414 156.856 500.273 157.289 499.945 157.567C499.781 157.713 499.612 157.795 499.439 157.813C499.266 157.827 498.954 157.82 498.503 157.793C496.434 157.811 495.105 157.811 494.517 157.793C493.747 157.765 493.259 157.663 493.054 157.485C492.749 157.294 492.596 156.956 492.596 156.473V152.919Z" fill="#1E3A8A"/>
<path d="M434.69 140.475H503.9C506.21 140.475 508.1 142.35 508.1 144.675V160.755C508.1 163.065 506.225 164.955 503.9 164.955H434.705C432.395 164.955 430.505 163.08 430.505 160.755V144.675C430.505 142.365 432.38 140.49 434.69 140.49V140.475Z" stroke="#1E3A8A" stroke-width="2.775" stroke-linecap="round" stroke-linejoin="round"/>
<path opacity="0.6" d="M362.48 99H578.015C580.325 99 582.215 100.875 582.215 103.2V119.28C582.215 121.59 580.34 123.48 578.015 123.48H362.48C360.17 123.48 358.28 121.605 358.28 119.28V103.2C358.28 100.89 360.155 99 362.48 99Z" fill="#DBEAFE"/>
<path d="M549.455 123.465H578.015C580.325 123.465 582.215 121.59 582.215 119.265V103.185C582.215 100.86 580.34 98.985 578.015 98.985H564.185C560.045 105.675 554.045 115.725 549.455 123.45V123.465Z" fill="#DBEAFE"/>
<path d="M362.48 99H578.015C580.325 99 582.215 100.875 582.215 103.2V119.28C582.215 121.59 580.34 123.48 578.015 123.48H362.48C360.17 123.48 358.28 121.605 358.28 119.28V103.2C358.28 100.89 360.155 99 362.48 99Z" stroke="#1E3A8A" stroke-width="2.775" stroke-linecap="round" stroke-linejoin="round"/>
<path d="M368.375 104.355H368.825C371.045 104.355 372.845 106.155 372.845 108.375V113.745C372.845 115.965 371.045 117.765 368.825 117.765H368.375C366.155 117.765 364.355 115.965 364.355 113.745V108.375C364.355 106.155 366.155 104.355 368.375 104.355Z" fill="#93C5FD"/>
<path d="M368.375 104.355H368.825C371.045 104.355 372.845 106.155 372.845 108.375V113.745C372.845 115.965 371.045 117.765 368.825 117.765H368.375C366.155 117.765 364.355 115.965 364.355 113.745V108.375C364.355 106.155 366.155 104.355 368.375 104.355Z" stroke="#1E3A8A" stroke-width="2.655" stroke-linecap="round" stroke-linejoin="round"/>
<path d="M381.35 104.355H381.8C384.02 104.355 385.82 106.155 385.82 108.375V113.745C385.82 115.965 384.02 117.765 381.8 117.765H381.35C379.13 117.765 377.33 115.965 377.33 113.745V108.375C377.33 106.155 379.13 104.355 381.35 104.355Z" fill="#93C5FD"/>
<path d="M381.35 104.355H381.8C384.02 104.355 385.82 106.155 385.82 108.375V113.745C385.82 115.965 384.02 117.765 381.8 117.765H381.35C379.13 117.765 377.33 115.965 377.33 113.745V108.375C377.33 106.155 379.13 104.355 381.35 104.355Z" stroke="#1E3A8A" stroke-width="2.655" stroke-linecap="round" stroke-linejoin="round"/>
<path d="M394.325 104.355H394.775C396.995 104.355 398.81 106.155 398.81 108.39V113.76C398.81 115.98 397.01 117.78 394.79 117.78H394.34C392.12 117.78 390.32 115.98 390.32 113.76V108.39C390.32 106.17 392.12 104.37 394.34 104.37L394.325 104.355Z" fill="#93C5FD"/>
<path d="M394.325 104.355H394.775C396.995 104.355 398.81 106.155 398.81 108.39V113.76C398.81 115.98 397.01 117.78 394.79 117.78H394.34C392.12 117.78 390.32 115.98 390.32 113.76V108.39C390.32 106.17 392.12 104.37 394.34 104.37L394.325 104.355Z" stroke="#1E3A8A" stroke-width="2.655" stroke-linecap="round" stroke-linejoin="round"/>
<path d="M407.3 104.355H407.75C409.97 104.355 411.77 106.155 411.77 108.375V113.745C411.77 115.965 409.97 117.765 407.75 117.765H407.3C405.08 117.765 403.28 115.965 403.28 113.745V108.375C403.28 106.155 405.08 104.355 407.3 104.355Z" fill="#93C5FD"/>
<path d="M407.3 104.355H407.75C409.97 104.355 411.77 106.155 411.77 108.375V113.745C411.77 115.965 409.97 117.765 407.75 117.765H407.3C405.08 117.765 403.28 115.965 403.28 113.745V108.375C403.28 106.155 405.08 104.355 407.3 104.355Z" stroke="#1E3A8A" stroke-width="2.655" stroke-linecap="round" stroke-linejoin="round"/>
<path d="M420.275 104.355H420.725C422.945 104.355 424.745 106.155 424.745 108.375V113.745C424.745 115.965 422.945 117.765 420.725 117.765H420.275C418.055 117.765 416.255 115.965 416.255 113.745V108.375C416.255 106.155 418.055 104.355 420.275 104.355Z" fill="#93C5FD"/>
<path d="M420.275 104.355H420.725C422.945 104.355 424.745 106.155 424.745 108.375V113.745C424.745 115.965 422.945 117.765 420.725 117.765H420.275C418.055 117.765 416.255 115.965 416.255 113.745V108.375C416.255 106.155 418.055 104.355 420.275 104.355Z" stroke="#1E3A8A" stroke-width="2.655" stroke-linecap="round" stroke-linejoin="round"/>
<path d="M433.25 104.355H433.7C435.92 104.355 437.72 106.155 437.72 108.375V113.745C437.72 115.965 435.92 117.765 433.7 117.765H433.25C431.03 117.765 429.23 115.965 429.23 113.745V108.375C429.23 106.155 431.03 104.355 433.25 104.355Z" fill="#93C5FD"/>
<path d="M433.25 104.355H433.7C435.92 104.355 437.72 106.155 437.72 108.375V113.745C437.72 115.965 435.92 117.765 433.7 117.765H433.25C431.03 117.765 429.23 115.965 429.23 113.745V108.375C429.23 106.155 431.03 104.355 433.25 104.355Z" stroke="#1E3A8A" stroke-width="2.655" stroke-linecap="round" stroke-linejoin="round"/>
<path d="M446.225 104.355H446.675C448.895 104.355 450.695 106.155 450.695 108.375V113.745C450.695 115.965 448.895 117.765 446.675 117.765H446.225C444.005 117.765 442.205 115.965 442.205 113.745V108.375C442.205 106.155 444.005 104.355 446.225 104.355Z" fill="#93C5FD"/>
<path d="M446.225 104.355H446.675C448.895 104.355 450.695 106.155 450.695 108.375V113.745C450.695 115.965 448.895 117.765 446.675 117.765H446.225C444.005 117.765 442.205 115.965 442.205 113.745V108.375C442.205 106.155 444.005 104.355 446.225 104.355Z" stroke="#1E3A8A" stroke-width="2.655" stroke-linecap="round" stroke-linejoin="round"/>
<path d="M459.215 104.355H459.665C461.885 104.355 463.685 106.155 463.685 108.375V113.745C463.685 115.965 461.885 117.765 459.665 117.765H459.215C456.995 117.765 455.195 115.965 455.195 113.745V108.375C455.195 106.155 456.995 104.355 459.215 104.355Z" fill="#93C5FD"/>
<path d="M459.215 104.355H459.665C461.885 104.355 463.685 106.155 463.685 108.375V113.745C463.685 115.965 461.885 117.765 459.665 117.765H459.215C456.995 117.765 455.195 115.965 455.195 113.745V108.375C455.195 106.155 456.995 104.355 459.215 104.355Z" stroke="#1E3A8A" stroke-width="2.655" stroke-linecap="round" stroke-linejoin="round"/>
<path d="M472.175 104.355H472.625C474.845 104.355 476.66 106.155 476.66 108.39V113.76C476.66 115.98 474.86 117.78 472.64 117.78H472.19C469.97 117.78 468.17 115.98 468.17 113.76V108.39C468.17 106.17 469.97 104.37 472.19 104.37L472.175 104.355Z" fill="#93C5FD"/>
<path d="M472.175 104.355H472.625C474.845 104.355 476.66 106.155 476.66 108.39V113.76C476.66 115.98 474.86 117.78 472.64 117.78H472.19C469.97 117.78 468.17 115.98 468.17 113.76V108.39C468.17 106.17 469.97 104.37 472.19 104.37L472.175 104.355Z" stroke="#1E3A8A" stroke-width="2.655" stroke-linecap="round" stroke-linejoin="round"/>
<path d="M356.863 58.0271H356.922C356.932 58.0076 356.956 57.9563 356.995 57.8733C357.034 57.7854 357.063 57.7219 357.083 57.6829C357.488 56.843 357.762 56.2937 357.903 56.0349C358.006 55.8298 358.143 55.6638 358.313 55.5369C358.489 55.4099 358.68 55.3391 358.885 55.3245C358.992 55.3196 359.107 55.3196 359.229 55.3245C359.317 55.3147 359.402 55.3147 359.485 55.3245C359.69 55.3391 359.878 55.4099 360.049 55.5369C360.225 55.6638 360.364 55.8298 360.467 56.0349C360.521 56.1375 360.687 56.4646 360.965 57.0164C360.979 57.0603 361.087 57.2825 361.287 57.6829C361.497 58.1174 361.646 58.4348 361.734 58.635C361.749 58.6643 361.792 58.7546 361.866 58.906C361.939 59.0525 362.007 59.1917 362.071 59.3235C362.139 59.4602 362.208 59.6042 362.276 59.7556C362.349 59.907 362.405 60.0291 362.444 60.1218C362.488 60.2146 362.522 60.283 362.547 60.3269C362.679 60.615 362.806 60.8762 362.928 61.1106C363.079 61.4231 363.24 61.7625 363.411 62.1287C363.455 62.2263 363.514 62.3557 363.587 62.5168C363.665 62.6731 363.714 62.7732 363.733 62.8171C364.104 63.5789 364.363 64.1624 364.51 64.5676C364.607 64.8313 364.595 65.073 364.473 65.2927C364.322 65.5857 364.009 65.7493 363.536 65.7834C363.497 65.7883 363.433 65.7957 363.345 65.8054C363.223 65.8152 363.16 65.8201 363.155 65.8201C362.999 65.8103 362.884 65.7957 362.811 65.7761C362.752 65.7761 362.671 65.7542 362.569 65.7102C362.388 65.6272 362.251 65.5173 362.159 65.3806C362.071 65.239 361.949 64.9778 361.792 64.5969C361.612 64.1526 361.446 63.8328 361.294 63.6375C361.148 63.4373 360.962 63.2761 360.738 63.1541C360.621 63.0906 360.503 63.0491 360.386 63.0295C360.269 63.01 360.035 62.9954 359.683 62.9856H359.229H359.134H358.687C358.335 62.9954 358.101 63.01 357.984 63.0295C357.867 63.0491 357.75 63.0906 357.632 63.1541C357.408 63.2761 357.22 63.4373 357.068 63.6375C356.922 63.8328 356.756 64.1526 356.57 64.5969C356.419 64.9778 356.297 65.239 356.204 65.3806C356.111 65.5173 355.975 65.6272 355.794 65.7102C355.696 65.7542 355.616 65.7761 355.552 65.7761C355.489 65.7957 355.376 65.8103 355.215 65.8201C355.21 65.8201 355.147 65.8152 355.025 65.8054L354.827 65.7834C354.632 65.7688 354.476 65.7371 354.358 65.6882C353.831 65.4783 353.682 65.0535 353.912 64.4138C354.009 64.155 354.271 63.5764 354.695 62.678C355.32 61.384 355.691 60.6101 355.809 60.3562C355.799 60.366 355.794 60.3733 355.794 60.3782C355.799 60.3733 355.806 60.3562 355.816 60.3269C355.831 60.2976 355.84 60.2805 355.845 60.2756C355.894 60.1682 356.045 59.8508 356.299 59.3235C356.412 59.0842 356.6 58.6936 356.863 58.1516V58.0271ZM358.753 60.8616H359.712C359.859 60.8567 359.974 60.8542 360.057 60.8542C360.159 60.8494 360.206 60.7981 360.196 60.7004C360.196 60.676 360.188 60.6492 360.174 60.6199L359.954 60.1584C359.769 59.7483 359.637 59.4968 359.559 59.4041L359.537 59.3748C359.419 59.1697 359.312 59.094 359.214 59.1477C359.117 59.1379 359.026 59.2087 358.943 59.3601C358.929 59.3699 358.912 59.3845 358.892 59.4041C358.833 59.4724 358.775 59.5676 358.716 59.6897C358.594 59.9827 358.448 60.2927 358.277 60.6199C358.262 60.6492 358.255 60.676 358.255 60.7004C358.25 60.7493 358.265 60.7883 358.299 60.8176C358.333 60.842 358.382 60.8567 358.445 60.8616C358.489 60.8616 358.526 60.8591 358.555 60.8542C358.624 60.8542 358.689 60.8567 358.753 60.8616ZM374.73 60.4661V58.4812C374.73 57.4949 374.732 56.8284 374.737 56.4817C374.737 56.2278 374.791 56.0105 374.898 55.8298C375.133 55.3513 375.587 55.1438 376.261 55.2073C376.568 55.2317 376.815 55.3464 377 55.5515C377.088 55.6492 377.159 55.7444 377.213 55.8372C377.267 55.925 377.303 56.0398 377.323 56.1814C377.342 56.323 377.354 56.4329 377.359 56.511C377.364 56.5891 377.364 56.7405 377.359 56.9651C377.354 57.1897 377.352 57.3508 377.352 57.4485C377.352 58.0051 377.354 58.3787 377.359 58.5691V62.1873C377.35 62.5535 377.347 62.9294 377.352 63.3152V64.553C377.347 64.9436 377.242 65.2488 377.037 65.4685C376.832 65.6833 376.554 65.7908 376.202 65.7908C375.67 65.7908 375.262 65.6638 374.979 65.4099C374.969 65.4001 374.955 65.3879 374.935 65.3733L374.847 65.2927C374.579 65.1023 374.3 64.8337 374.012 64.4871L374.005 64.4797L373.983 64.4578C373.641 64.0818 372.76 63.1516 371.339 61.6672C371.251 61.5793 371.122 61.4451 370.951 61.2644C370.785 61.0789 370.692 60.9763 370.672 60.9568C370.57 60.8494 370.475 60.7517 370.387 60.6638C370.382 60.6589 370.313 60.6296 370.182 60.5759C370.016 60.5125 369.857 60.5466 369.706 60.6785C369.671 60.7126 369.645 60.7468 369.625 60.781C369.625 60.7859 369.623 60.7932 369.618 60.803C369.618 60.8079 369.615 60.8127 369.61 60.8176H369.603C369.53 60.9348 369.488 61.0569 369.479 61.1838C369.469 61.5745 369.466 62.136 369.471 62.8684V64.6628C369.461 64.9558 369.344 65.2219 369.12 65.4612C368.929 65.6663 368.653 65.7859 368.292 65.8201C367.931 65.8494 367.633 65.7834 367.398 65.6223C367.076 65.3831 366.91 65.0608 366.9 64.6555V56.6721C366.905 56.6282 366.908 56.5793 366.908 56.5256C366.922 56.2766 366.983 56.0667 367.091 55.8958L367.098 55.8884C367.337 55.4978 367.718 55.283 368.241 55.2439C368.539 55.2292 368.758 55.2683 368.9 55.3611C369.042 55.4539 369.376 55.7688 369.903 56.3059C369.957 56.3596 369.999 56.4036 370.028 56.4377C370.062 56.467 370.104 56.5085 370.152 56.5623C370.206 56.616 370.255 56.6648 370.299 56.7087L370.643 57.053C370.697 57.1067 370.76 57.175 370.833 57.2581C370.907 57.3362 370.953 57.3875 370.973 57.4119L371.485 57.9246C371.632 58.0759 371.803 58.2493 371.998 58.4446L372.958 59.4407C373.446 59.9387 373.768 60.2708 373.924 60.4368C374.159 60.6809 374.315 60.8323 374.393 60.8909C374.461 60.9446 374.525 60.9592 374.583 60.9348C374.681 60.8909 374.73 60.7346 374.73 60.4661ZM373.99 64.4651L373.983 64.4578L373.99 64.4651ZM374.005 64.4871C374.015 64.4871 374.015 64.4871 374.005 64.4871V64.4871ZM382.349 58.0271H382.407C382.417 58.0076 382.441 57.9563 382.48 57.8733C382.52 57.7854 382.549 57.7219 382.568 57.6829C382.974 56.843 383.247 56.2937 383.389 56.0349C383.491 55.8298 383.628 55.6638 383.799 55.5369C383.975 55.4099 384.165 55.3391 384.37 55.3245C384.478 55.3196 384.592 55.3196 384.714 55.3245C384.802 55.3147 384.888 55.3147 384.971 55.3245C385.176 55.3391 385.364 55.4099 385.535 55.5369C385.71 55.6638 385.85 55.8298 385.952 56.0349C386.006 56.1375 386.172 56.4646 386.45 57.0164C386.465 57.0603 386.572 57.2825 386.772 57.6829C386.982 58.1174 387.131 58.4348 387.219 58.635C387.234 58.6643 387.278 58.7546 387.351 58.906C387.424 59.0525 387.493 59.1917 387.556 59.3235C387.625 59.4602 387.693 59.6042 387.761 59.7556C387.834 59.907 387.891 60.0291 387.93 60.1218C387.974 60.2146 388.008 60.283 388.032 60.3269C388.164 60.615 388.291 60.8762 388.413 61.1106C388.564 61.4231 388.726 61.7625 388.896 62.1287C388.94 62.2263 388.999 62.3557 389.072 62.5168C389.15 62.6731 389.199 62.7732 389.219 62.8171C389.59 63.5789 389.849 64.1624 389.995 64.5676C390.093 64.8313 390.081 65.073 389.958 65.2927C389.807 65.5857 389.495 65.7493 389.021 65.7834C388.982 65.7883 388.918 65.7957 388.831 65.8054C388.708 65.8152 388.645 65.8201 388.64 65.8201C388.484 65.8103 388.369 65.7957 388.296 65.7761C388.237 65.7761 388.157 65.7542 388.054 65.7102C387.874 65.6272 387.737 65.5173 387.644 65.3806C387.556 65.239 387.434 64.9778 387.278 64.5969C387.097 64.1526 386.931 63.8328 386.78 63.6375C386.633 63.4373 386.448 63.2761 386.223 63.1541C386.106 63.0906 385.989 63.0491 385.872 63.0295C385.754 63.01 385.52 62.9954 385.168 62.9856H384.714H384.619H384.172C383.821 62.9954 383.586 63.01 383.469 63.0295C383.352 63.0491 383.235 63.0906 383.118 63.1541C382.893 63.2761 382.705 63.4373 382.554 63.6375C382.407 63.8328 382.241 64.1526 382.056 64.5969C381.904 64.9778 381.782 65.239 381.689 65.3806C381.597 65.5173 381.46 65.6272 381.279 65.7102C381.182 65.7542 381.101 65.7761 381.038 65.7761C380.974 65.7957 380.862 65.8103 380.701 65.8201C380.696 65.8201 380.632 65.8152 380.51 65.8054L380.312 65.7834C380.117 65.7688 379.961 65.7371 379.844 65.6882C379.316 65.4783 379.167 65.0535 379.397 64.4138C379.495 64.155 379.756 63.5764 380.181 62.678C380.806 61.384 381.177 60.6101 381.294 60.3562C381.284 60.366 381.279 60.3733 381.279 60.3782C381.284 60.3733 381.292 60.3562 381.301 60.3269C381.316 60.2976 381.326 60.2805 381.331 60.2756C381.379 60.1682 381.531 59.8508 381.785 59.3235C381.897 59.0842 382.085 58.6936 382.349 58.1516V58.0271ZM384.238 60.8616H385.198C385.344 60.8567 385.459 60.8542 385.542 60.8542C385.645 60.8494 385.691 60.7981 385.681 60.7004C385.681 60.676 385.674 60.6492 385.659 60.6199L385.439 60.1584C385.254 59.7483 385.122 59.4968 385.044 59.4041L385.022 59.3748C384.905 59.1697 384.797 59.094 384.7 59.1477C384.602 59.1379 384.512 59.2087 384.429 59.3601C384.414 59.3699 384.397 59.3845 384.377 59.4041C384.319 59.4724 384.26 59.5676 384.202 59.6897C384.08 59.9827 383.933 60.2927 383.762 60.6199C383.748 60.6492 383.74 60.676 383.74 60.7004C383.735 60.7493 383.75 60.7883 383.784 60.8176C383.818 60.842 383.867 60.8567 383.931 60.8616C383.975 60.8616 384.011 60.8591 384.041 60.8542C384.109 60.8542 384.175 60.8567 384.238 60.8616ZM392.386 60.5686V56.4084C392.386 56.1545 392.466 55.9324 392.627 55.7419C392.793 55.5515 393.006 55.4319 393.265 55.3831C393.675 55.3049 394.051 55.3367 394.393 55.4783C394.554 55.5466 394.693 55.6833 394.81 55.8884C394.932 56.0886 394.993 56.2864 394.993 56.4817C394.993 57.8586 395.003 59.4431 395.022 61.2351C395.022 61.782 395.032 62.1702 395.052 62.3997C395.066 62.6389 395.152 62.8342 395.308 62.9856C395.464 63.137 395.662 63.2151 395.901 63.22C397.122 63.2395 397.933 63.2517 398.333 63.2566C398.816 63.2664 399.095 63.2664 399.168 63.2566C399.354 63.2517 399.51 63.2542 399.637 63.2639C399.769 63.2688 399.903 63.2883 400.04 63.3225C400.181 63.3567 400.293 63.4055 400.376 63.469C400.464 63.5325 400.538 63.6228 400.596 63.74C400.66 63.8523 400.699 63.9915 400.713 64.1575C400.762 64.7874 400.611 65.2512 400.259 65.5491C400.083 65.7053 399.903 65.7932 399.717 65.8127C399.532 65.8274 399.197 65.8201 398.714 65.7908C396.497 65.8103 395.074 65.8103 394.444 65.7908C393.619 65.7615 393.096 65.6516 392.876 65.4612C392.549 65.2561 392.386 64.8948 392.386 64.3772V60.5686ZM411.477 55.991C411.57 56.2595 411.536 56.55 411.375 56.8625C411.277 57.053 410.625 58.0222 409.419 59.7703C408.984 60.4099 408.657 60.9202 408.438 61.301C408.223 61.6819 408.091 61.9431 408.042 62.0847C407.998 62.2263 407.959 62.407 407.925 62.6267C407.915 62.7 407.905 62.8147 407.896 62.9709C407.886 63.1125 407.886 63.342 407.896 63.6594C407.896 64.0061 407.893 64.2356 407.888 64.3479C407.874 64.6946 407.817 64.9827 407.72 65.2122C407.622 65.4368 407.449 65.6052 407.2 65.7175C407.078 65.7712 406.938 65.8054 406.782 65.8201C406.626 65.8298 406.465 65.8201 406.299 65.7908C406.133 65.7615 405.979 65.6882 405.837 65.571C405.696 65.4539 405.591 65.3025 405.522 65.1169C405.435 64.8875 405.388 64.6848 405.383 64.509C405.378 64.2795 405.378 63.8108 405.383 63.1028C405.388 62.6047 405.31 62.1726 405.149 61.8064C404.988 61.4402 404.57 60.7615 403.896 59.7703C402.69 58.0222 402.039 57.053 401.941 56.8625C401.775 56.5549 401.748 56.24 401.86 55.9177C401.978 55.5955 402.205 55.3684 402.542 55.2366C402.678 55.1829 402.781 55.1438 402.849 55.1194C402.922 55.095 403.008 55.0803 403.105 55.0754C403.203 55.0657 403.274 55.0657 403.318 55.0754C403.362 55.0852 403.428 55.1194 403.516 55.178C403.608 55.2366 403.682 55.3 403.735 55.3684C403.789 55.4319 403.872 55.5369 403.984 55.6833C404.097 55.825 404.199 55.969 404.292 56.1155C404.39 56.2571 404.524 56.4548 404.695 56.7087C404.709 56.7283 404.719 56.7454 404.724 56.76C404.734 56.7698 404.746 56.7869 404.761 56.8113C404.775 56.8308 404.788 56.8479 404.797 56.8625L406.357 59.0525C406.421 59.1453 406.492 59.2039 406.57 59.2283C406.584 59.2332 406.604 59.2356 406.628 59.2356C406.741 59.2649 406.851 59.2039 406.958 59.0525L408.518 56.8625C409.172 55.8909 409.536 55.3757 409.609 55.3171C409.907 55.0876 410.259 55.051 410.664 55.2073C411.074 55.3586 411.345 55.6199 411.477 55.991ZM419.854 63.4104H421.773C422.003 63.4104 422.223 63.4299 422.433 63.469C422.833 63.5471 423.065 63.8157 423.128 64.2747C423.192 64.7629 423.109 65.1389 422.879 65.4026C422.655 65.6663 422.379 65.8005 422.052 65.8054C420.572 65.8201 418.363 65.8225 415.423 65.8127C414.896 65.8127 414.493 65.7712 414.215 65.6882C413.937 65.6003 413.736 65.4294 413.614 65.1755C413.541 65.0046 413.504 64.8313 413.504 64.6555C413.5 64.4749 413.561 64.2625 413.688 64.0183C413.819 63.7693 414.024 63.4885 414.303 63.176C414.4 63.0637 415.111 62.28 416.434 60.825C416.644 60.5906 416.896 60.3171 417.188 60.0046C417.394 59.7751 417.828 59.2966 418.492 58.5691C418.565 58.4958 418.666 58.386 418.792 58.2395C418.963 57.9758 418.919 57.822 418.661 57.7781H414.771C414.366 57.7781 414.066 57.6511 413.871 57.3972C413.739 57.2263 413.663 57.0017 413.644 56.7234C413.624 56.4402 413.68 56.1692 413.812 55.9104C413.949 55.6467 414.154 55.4783 414.427 55.405C414.632 55.3513 414.801 55.3245 414.933 55.3245C417.94 55.3196 420.226 55.3196 421.788 55.3245C422.481 55.3342 422.911 55.6028 423.077 56.1301C423.126 56.2815 423.155 56.4207 423.165 56.5476C423.18 56.6697 423.165 56.7966 423.121 56.9285C423.082 57.0603 423.043 57.1726 423.004 57.2654C422.97 57.3533 422.892 57.4729 422.77 57.6243C422.647 57.7756 422.55 57.8953 422.477 57.9832C422.403 58.0662 422.269 58.2102 422.074 58.4153C421.883 58.6155 421.737 58.7742 421.634 58.8914C420.506 60.1365 419.696 61.03 419.203 61.572C418.773 62.0554 418.402 62.4583 418.089 62.7805C418.06 62.8147 418.033 62.8635 418.009 62.927C417.989 62.9856 417.979 63.0515 417.979 63.1248C417.979 63.1931 418.009 63.2542 418.067 63.3079C418.126 63.3616 418.214 63.3933 418.331 63.4031H418.441C418.675 63.408 419.146 63.4104 419.854 63.4104ZM428.238 64.1062C428.238 64.5847 428.145 64.9778 427.959 65.2854C427.779 65.5881 427.498 65.7615 427.117 65.8054C426.702 65.8542 426.351 65.7883 426.062 65.6077C425.774 65.4221 425.616 65.156 425.586 64.8093C425.562 64.5212 425.55 63.801 425.55 62.6487C425.55 62.0725 425.542 61.3938 425.528 60.6125C425.523 60.2952 425.521 59.9143 425.521 59.47C425.521 58.2249 425.53 57.2581 425.55 56.5696C425.56 56.3254 425.652 56.0959 425.828 55.8811C426.004 55.6663 426.219 55.5295 426.473 55.4709C426.976 55.3489 427.427 55.4221 427.828 55.6907C428.072 55.8616 428.196 56.0935 428.201 56.3865C428.211 56.9675 428.223 58.2053 428.238 60.0999V64.1062ZM439.394 60.4661V58.4812C439.394 57.4949 439.396 56.8284 439.401 56.4817C439.401 56.2278 439.455 56.0105 439.562 55.8298C439.797 55.3513 440.251 55.1438 440.925 55.2073C441.232 55.2317 441.479 55.3464 441.665 55.5515C441.752 55.6492 441.823 55.7444 441.877 55.8372C441.931 55.925 441.967 56.0398 441.987 56.1814C442.006 56.323 442.019 56.4329 442.023 56.511C442.028 56.5891 442.028 56.7405 442.023 56.9651C442.019 57.1897 442.016 57.3508 442.016 57.4485C442.016 58.0051 442.019 58.3787 442.023 58.5691V62.1873C442.014 62.5535 442.011 62.9294 442.016 63.3152V64.553C442.011 64.9436 441.906 65.2488 441.701 65.4685C441.496 65.6833 441.218 65.7908 440.866 65.7908C440.334 65.7908 439.926 65.6638 439.643 65.4099C439.633 65.4001 439.619 65.3879 439.599 65.3733L439.511 65.2927C439.243 65.1023 438.964 64.8337 438.676 64.4871L438.669 64.4797L438.647 64.4578C438.305 64.0818 437.424 63.1516 436.003 61.6672C435.915 61.5793 435.786 61.4451 435.615 61.2644C435.449 61.0789 435.356 60.9763 435.336 60.9568C435.234 60.8494 435.139 60.7517 435.051 60.6638C435.046 60.6589 434.978 60.6296 434.846 60.5759C434.68 60.5125 434.521 60.5466 434.37 60.6785C434.335 60.7126 434.309 60.7468 434.289 60.781C434.289 60.7859 434.287 60.7932 434.282 60.803C434.282 60.8079 434.279 60.8127 434.274 60.8176H434.267C434.194 60.9348 434.152 61.0569 434.143 61.1838C434.133 61.5745 434.13 62.136 434.135 62.8684V64.6628C434.125 64.9558 434.008 65.2219 433.784 65.4612C433.593 65.6663 433.317 65.7859 432.956 65.8201C432.595 65.8494 432.297 65.7834 432.062 65.6223C431.74 65.3831 431.574 65.0608 431.564 64.6555V56.6721C431.569 56.6282 431.572 56.5793 431.572 56.5256C431.586 56.2766 431.647 56.0667 431.755 55.8958L431.762 55.8884C432.001 55.4978 432.382 55.283 432.905 55.2439C433.203 55.2292 433.422 55.2683 433.564 55.3611C433.706 55.4539 434.04 55.7688 434.567 56.3059C434.621 56.3596 434.663 56.4036 434.692 56.4377C434.726 56.467 434.768 56.5085 434.816 56.5623C434.87 56.616 434.919 56.6648 434.963 56.7087L435.307 57.053C435.361 57.1067 435.424 57.175 435.498 57.2581C435.571 57.3362 435.617 57.3875 435.637 57.4119L436.149 57.9246C436.296 58.0759 436.467 58.2493 436.662 58.4446L437.622 59.4407C438.11 59.9387 438.432 60.2708 438.588 60.4368C438.823 60.6809 438.979 60.8323 439.057 60.8909C439.125 60.9446 439.189 60.9592 439.248 60.9348C439.345 60.8909 439.394 60.7346 439.394 60.4661ZM438.654 64.4651L438.647 64.4578L438.654 64.4651ZM438.669 64.4871C438.679 64.4871 438.679 64.4871 438.669 64.4871V64.4871ZM454.974 61.7625C454.974 63.0613 454.95 63.9866 454.901 64.5383C454.876 65.051 454.693 65.4172 454.352 65.637C454.015 65.8567 453.592 65.8811 453.084 65.7102C452.518 65.5198 451.837 65.51 451.041 65.6809C450.372 65.8225 449.728 65.8396 449.107 65.7322C448.487 65.6248 447.916 65.427 447.394 65.1389C446.871 64.8508 446.417 64.5017 446.031 64.0916C445.646 63.6765 445.353 63.2322 445.152 62.7585C444.894 62.1482 444.735 61.5476 444.676 60.9568C444.623 60.3611 444.657 59.824 444.779 59.3455C444.906 58.8669 445.089 58.4177 445.328 57.9978C445.567 57.573 445.851 57.2043 446.178 56.8918C446.51 56.5793 446.852 56.3157 447.203 56.1008C447.555 55.886 447.909 55.7249 448.265 55.6174C448.714 55.4758 449.261 55.3806 449.906 55.3318C451.537 55.1951 452.984 55.7468 454.249 56.9871C454.513 57.2605 454.635 57.5583 454.615 57.8806C454.601 58.2029 454.461 58.5129 454.198 58.8108C453.934 59.1086 453.666 59.2576 453.392 59.2576C453.304 59.2576 453.221 59.2527 453.143 59.2429C453.07 59.2332 452.992 59.2112 452.909 59.177C452.831 59.1428 452.767 59.116 452.718 59.0964C452.674 59.0769 452.611 59.0378 452.528 58.9792C452.445 58.9158 452.389 58.8743 452.359 58.8547C452.335 58.8352 452.274 58.7864 452.176 58.7083C452.083 58.6252 452.027 58.5764 452.008 58.5618C451.715 58.3225 451.546 58.1858 451.502 58.1516C451.107 57.8977 450.685 57.7634 450.235 57.7488C449.791 57.7292 449.381 57.8123 449.005 57.9978C448.629 58.1785 448.314 58.4324 448.06 58.7595C447.655 59.2478 447.435 59.8191 447.401 60.4734C447.367 61.1277 447.518 61.6746 447.855 62.114C448.529 63.0173 449.498 63.4104 450.763 63.2932C451.28 63.2395 451.732 63.0247 452.118 62.6487C452.152 62.6145 452.181 62.5657 452.206 62.5022C452.23 62.4387 452.232 62.3948 452.213 62.3704C452.198 62.3508 452.181 62.3337 452.162 62.3191C452.142 62.2996 452.123 62.2849 452.103 62.2751C452.088 62.2605 452.064 62.2483 452.03 62.2385C452 62.2288 451.976 62.2214 451.957 62.2166C451.937 62.2068 451.905 62.1995 451.861 62.1946C451.817 62.1897 451.783 62.1873 451.759 62.1873C451.739 62.1824 451.703 62.1775 451.649 62.1726C451.595 62.1677 451.556 62.1653 451.532 62.1653C451.297 62.1506 451.168 62.1409 451.144 62.136C450.611 62.0823 450.357 61.6624 450.382 60.8762C450.396 60.8127 450.404 60.7737 450.404 60.759C450.379 60.2073 450.663 59.9216 451.253 59.9021C452.24 59.863 453.221 59.8826 454.198 59.9607C454.496 59.9851 454.703 60.0706 454.82 60.217C454.938 60.3635 454.994 60.6101 454.989 60.9568L454.974 61.8137V61.7625ZM469.333 55.4197C469.635 55.4246 469.884 55.4856 470.08 55.6028C470.28 55.7151 470.412 55.8567 470.475 56.0276C470.539 56.1985 470.558 56.3865 470.534 56.5916C470.514 56.7917 470.453 56.9797 470.351 57.1555C470.253 57.3264 470.121 57.4705 469.955 57.5876C469.789 57.7048 469.608 57.7683 469.413 57.7781C469.174 57.7878 469.015 57.7952 468.937 57.8C468.864 57.8049 468.71 57.8196 468.476 57.844C468.246 57.8684 468.073 57.8977 467.956 57.9319C467.843 57.9661 467.716 58.0173 467.575 58.0857C467.438 58.1541 467.333 58.2371 467.26 58.3347C467.099 58.5642 467.013 58.8499 467.003 59.1917V61.7112C467.003 62.9905 467.001 63.8279 466.996 64.2234C466.996 64.5701 466.957 64.8533 466.879 65.073C466.679 65.615 466.242 65.8616 465.568 65.8127L465.128 65.7688C464.542 65.6223 464.245 65.156 464.235 64.3699C464.23 64.1892 464.228 62.3704 464.228 58.9133C464.228 58.5862 464.132 58.3274 463.942 58.137C463.751 57.9465 463.49 57.8464 463.158 57.8367C462.274 57.7976 461.72 57.7561 461.496 57.7122C461.212 57.6584 461 57.5168 460.858 57.2874C460.717 57.0579 460.668 56.8162 460.712 56.5623C460.819 55.8005 461.188 55.4197 461.818 55.4197H469.333ZM472.366 57.1409V56.4597C472.366 56.0984 472.466 55.8176 472.667 55.6174C472.872 55.4124 473.15 55.3123 473.501 55.3171C474.917 55.3171 476.937 55.3196 479.559 55.3245C479.808 55.3245 480.03 55.3928 480.225 55.5295C480.42 55.6614 480.562 55.8274 480.65 56.0276C480.743 56.2278 480.774 56.4524 480.745 56.7014C480.721 56.9504 480.628 57.1775 480.467 57.3826C480.306 57.5876 480.066 57.6902 479.749 57.6902C477.981 57.6804 476.78 57.6804 476.146 57.6902C476.092 57.6902 476.004 57.6902 475.882 57.6902C475.76 57.6853 475.679 57.6853 475.64 57.6902C475.606 57.6902 475.542 57.6951 475.45 57.7048C475.362 57.7097 475.303 57.7219 475.274 57.7415C475.25 57.761 475.208 57.7903 475.149 57.8293C475.091 57.8635 475.049 57.9075 475.025 57.9612C475.005 58.0149 474.981 58.0808 474.952 58.1589C474.927 58.2371 474.905 58.3298 474.886 58.4373V58.6643C474.891 58.9622 475.005 59.1624 475.23 59.2649C475.376 59.304 475.557 59.3235 475.772 59.3235C477.168 59.3235 477.911 59.3259 477.999 59.3308C478.56 59.3503 478.909 59.5383 479.046 59.8948C479.188 60.2415 479.19 60.5955 479.053 60.9568C478.921 61.3132 478.689 61.5281 478.357 61.6013C478.182 61.6453 478.001 61.6721 477.815 61.6819C477.63 61.6868 477.288 61.6843 476.79 61.6746C475.975 61.6648 475.552 61.6624 475.523 61.6672C475.342 61.6721 475.196 61.7478 475.083 61.8943C474.957 62.0652 474.9 62.3606 474.915 62.7805C474.915 62.8049 474.92 62.8416 474.93 62.8904L474.944 62.9709C474.974 63.1907 475.064 63.325 475.215 63.3738C475.367 63.4226 475.645 63.447 476.05 63.447C476.094 63.447 476.126 63.447 476.146 63.447C476.78 63.4568 477.981 63.4568 479.749 63.447C480.066 63.447 480.306 63.5496 480.467 63.7546C480.628 63.9597 480.721 64.1868 480.745 64.4358C480.774 64.6848 480.743 64.9094 480.65 65.1096C480.562 65.3098 480.42 65.4783 480.225 65.615C480.03 65.7468 479.808 65.8127 479.559 65.8127C476.937 65.8176 474.917 65.8201 473.501 65.8201C473.15 65.825 472.872 65.7273 472.667 65.5271C472.466 65.322 472.366 65.0388 472.366 64.6775C472.371 64.5896 472.374 64.2161 472.374 63.5569H472.366C472.366 63.1125 472.369 62.6194 472.374 62.0774V60.4587V58.8474H472.366V57.5803V57.1409ZM492.774 56.7307C492.794 57.0481 492.682 57.3362 492.438 57.595C491.476 58.6252 490.763 59.4504 490.299 60.0706C490.196 60.2073 490.135 60.3489 490.116 60.4954C490.101 60.6418 490.111 60.7761 490.145 60.8982C490.179 61.0154 490.252 61.157 490.365 61.323C490.477 61.4841 490.58 61.616 490.672 61.7185C490.77 61.821 490.904 61.9651 491.075 62.1506C491.251 62.3362 491.383 62.4778 491.471 62.5754C491.729 62.8733 491.993 63.1663 492.262 63.4543C492.413 63.6252 492.533 63.7888 492.621 63.9451C492.708 64.0964 492.772 64.2625 492.811 64.4431C492.85 64.6238 492.826 64.8044 492.738 64.9851C492.655 65.1609 492.508 65.3293 492.298 65.4905C492.035 65.6907 491.766 65.8005 491.493 65.8201C491.224 65.8347 491.019 65.7615 490.877 65.6003C490.736 65.4587 490.414 65.1194 489.911 64.5823L489.383 63.989C488.875 63.4519 488.595 63.1541 488.541 63.0955C488.39 62.9294 488.224 62.8464 488.043 62.8464C487.867 62.8464 487.701 62.927 487.545 63.0881C487.462 63.176 486.998 63.679 486.153 64.5969C486.041 64.7288 485.768 65.0339 485.333 65.5125C485.133 65.7175 484.898 65.8201 484.63 65.8201C484.361 65.8201 484.098 65.7224 483.839 65.5271C483.653 65.3855 483.509 65.2268 483.407 65.051C483.309 64.8704 483.27 64.6677 483.29 64.4431C483.304 64.2136 483.395 63.9939 483.561 63.7839L484.146 63.1101L484.161 63.0955L484.168 63.0881L484.176 63.0808L484.183 63.0735V63.0662L484.19 63.0588L484.198 63.0515L484.205 63.0442L484.212 63.0369L484.22 63.0295L484.227 63.0222L484.234 63.0149L484.242 63.0076V63.0002L484.249 62.9929L484.256 62.9856L484.264 62.9783L484.271 62.9709L484.278 62.9636C484.371 62.8562 484.552 62.6487 484.82 62.3411C485.089 62.0334 485.245 61.8552 485.289 61.8064L485.743 61.2864C485.836 61.179 485.907 61.0764 485.956 60.9788C486.004 60.8762 486.021 60.7712 486.007 60.6638C485.997 60.5564 485.982 60.4636 485.963 60.3855C485.943 60.3074 485.89 60.2073 485.802 60.0852C485.714 59.9631 485.646 59.8704 485.597 59.8069C485.548 59.7434 485.458 59.6384 485.326 59.4919C485.194 59.3455 485.104 59.2429 485.055 59.1843C484.649 58.7107 484.188 58.1882 483.67 57.6169C483.465 57.3972 483.353 57.2043 483.333 57.0383C483.294 56.7991 483.304 56.5867 483.363 56.4011C483.421 56.2107 483.517 56.0593 483.648 55.947C483.78 55.8298 483.922 55.7395 484.073 55.676C484.229 55.6077 484.393 55.5637 484.564 55.5442C484.925 55.5051 485.24 55.6492 485.509 55.9763C485.753 56.2839 485.985 56.5647 486.205 56.8186C486.62 57.3069 486.922 57.6536 487.113 57.8586C487.308 58.0588 487.521 58.2444 487.75 58.4153C487.833 58.4836 487.945 58.5129 488.087 58.5032C488.229 58.4885 488.351 58.4348 488.453 58.342C488.98 57.8684 489.471 57.3386 489.925 56.7527C489.95 56.7185 489.989 56.6672 490.042 56.5989C490.169 56.4377 490.282 56.301 490.379 56.1887C490.482 56.0715 490.597 55.9568 490.724 55.8445C490.855 55.7322 490.995 55.6516 491.141 55.6028C491.292 55.554 491.451 55.5417 491.617 55.5662C491.935 55.615 492.215 55.7517 492.459 55.9763C492.708 56.2009 492.813 56.4524 492.774 56.7307ZM503.862 55.4197C504.165 55.4246 504.414 55.4856 504.609 55.6028C504.809 55.7151 504.941 55.8567 505.004 56.0276C505.068 56.1985 505.087 56.3865 505.063 56.5916C505.043 56.7917 504.982 56.9797 504.88 57.1555C504.782 57.3264 504.65 57.4705 504.484 57.5876C504.318 57.7048 504.138 57.7683 503.942 57.7781C503.703 57.7878 503.544 57.7952 503.466 57.8C503.393 57.8049 503.239 57.8196 503.005 57.844C502.775 57.8684 502.602 57.8977 502.485 57.9319C502.373 57.9661 502.246 58.0173 502.104 58.0857C501.967 58.1541 501.862 58.2371 501.789 58.3347C501.628 58.5642 501.542 58.8499 501.533 59.1917V61.7112C501.533 62.9905 501.53 63.8279 501.525 64.2234C501.525 64.5701 501.486 64.8533 501.408 65.073C501.208 65.615 500.771 65.8616 500.097 65.8127L499.658 65.7688C499.072 65.6223 498.774 65.156 498.764 64.3699C498.759 64.1892 498.757 62.3704 498.757 58.9133C498.757 58.5862 498.662 58.3274 498.471 58.137C498.281 57.9465 498.02 57.8464 497.688 57.8367C496.804 57.7976 496.25 57.7561 496.025 57.7122C495.742 57.6584 495.529 57.5168 495.388 57.2874C495.246 57.0579 495.197 56.8162 495.241 56.5623C495.349 55.8005 495.717 55.4197 496.347 55.4197H503.862Z" fill="#1E3A8A"/>
</g>
<path d="M44.648 231.913C44.648 231.913 44.0707 262.591 56.2319 275.145C78.0913 297.711 106.704 238.662 133.94 254.323C161.272 270.039 123.654 327.637 154.835 332.304C168.401 334.335 188.764 323.213 188.764 323.213" stroke="#DBEAFE" stroke-width="3" stroke-linecap="round" stroke-linejoin="round" stroke-dasharray="8 8"/>
<path d="M103.207 294.399C104.14 293.465 106.101 292.079 108.4 294.377C110.698 296.675 109.924 299.216 108.974 300.166C108.024 301.116 105.664 301.673 103.384 299.393C101.103 297.112 102.4 295.206 103.207 294.399Z" fill="#60A5FA"/>
<path d="M100.964 302.409C101.898 301.475 103.859 300.089 106.157 302.387C108.455 304.685 107.682 307.226 106.732 308.176C105.781 309.126 103.421 309.683 101.141 307.403C98.8606 305.123 100.158 303.216 100.964 302.409Z" fill="#60A5FA"/>
<path d="M114.587 288.189C112.289 285.891 110.328 287.278 109.394 288.212C108.588 289.018 107.291 290.925 109.571 293.206C111.852 295.486 114.212 294.929 115.162 293.979C116.112 293.029 116.885 290.488 114.587 288.189Z" fill="#60A5FA"/>
<path d="M117.293 286.08C118.227 285.146 120.188 283.759 122.486 286.057C124.784 288.355 124.011 290.897 123.061 291.847C122.11 292.797 119.75 293.354 117.47 291.073C115.19 288.793 116.487 286.886 117.293 286.08Z" fill="#60A5FA"/>
<path d="M127.547 298.366C123.415 294.234 117.161 293.327 112.786 297.703C108.411 302.078 109.273 308.199 113.493 312.42C117.007 315.933 121.195 311.745 124.001 308.939L124.011 308.928C127.127 305.812 130.95 301.769 127.547 298.366Z" fill="#60A5FA"/>
<path d="M61.8001 254.343C62.6616 253.343 64.5145 251.815 66.9768 253.936C69.4391 256.057 68.8563 258.649 67.9793 259.667C67.1022 260.685 64.7901 261.415 62.3467 259.31C59.9034 257.205 61.0556 255.208 61.8001 254.343Z" fill="#60A5FA"/>
<path d="M60.1581 262.498C61.0196 261.497 62.8725 259.969 65.3348 262.09C67.797 264.212 67.2143 266.803 66.3372 267.821C65.4602 268.839 63.148 269.57 60.7047 267.465C58.2614 265.36 59.4137 263.362 60.1581 262.498Z" fill="#60A5FA"/>
<path d="M72.6883 247.307C70.226 245.185 68.3731 246.714 67.5115 247.714C66.7671 248.578 65.6148 250.576 68.0582 252.681C70.5015 254.786 72.8137 254.055 73.6907 253.037C74.5678 252.019 75.1505 249.428 72.6883 247.307Z" fill="#60A5FA"/>
<path d="M75.2305 245.002C76.0921 244.001 77.945 242.473 80.4073 244.594C82.8695 246.715 82.2868 249.307 81.4097 250.325C80.5326 251.343 78.2205 252.073 75.7772 249.969C73.3338 247.864 74.4861 245.866 75.2305 245.002Z" fill="#60A5FA"/>
<path d="M86.3675 256.493C81.9401 252.679 75.6366 252.239 71.598 256.927C67.5594 261.615 68.8731 267.655 73.3952 271.551C77.1595 274.794 81.0252 270.307 83.6156 267.3L83.6253 267.289C86.5012 263.95 90.0135 259.634 86.3675 256.493Z" fill="#60A5FA"/>
<path d="M108.649 241.79C109.51 240.79 111.363 239.261 113.825 241.383C116.288 243.504 115.705 246.095 114.828 247.114C113.951 248.132 111.639 248.862 109.195 246.757C106.752 244.652 107.904 242.654 108.649 241.79Z" fill="#60A5FA"/>
<path d="M107.007 249.945C107.868 248.944 109.721 247.416 112.183 249.537C114.646 251.658 114.063 254.25 113.186 255.268C112.309 256.286 109.997 257.016 107.553 254.911C105.11 252.807 106.262 250.809 107.007 249.945Z" fill="#60A5FA"/>
<path d="M119.537 234.753C117.075 232.632 115.222 234.16 114.36 235.161C113.616 236.025 112.463 238.023 114.907 240.128C117.35 242.233 119.662 241.502 120.539 240.484C121.416 239.466 121.999 236.875 119.537 234.753Z" fill="#60A5FA"/>
<path d="M122.079 232.448C122.941 231.448 124.794 229.92 127.256 232.041C129.718 234.162 129.135 236.754 128.258 237.772C127.381 238.79 125.069 239.52 122.626 237.415C120.182 235.31 121.335 233.313 122.079 232.448Z" fill="#60A5FA"/>
<path d="M133.216 243.94C128.789 240.126 122.485 239.686 118.447 244.374C114.408 249.062 115.722 255.102 120.244 258.998C124.008 262.241 127.874 257.754 130.464 254.747L130.474 254.735C133.35 251.397 136.862 247.081 133.216 243.94Z" fill="#60A5FA"/>
<path d="M152.479 293.596C153.596 292.892 155.816 291.974 157.548 294.725C159.279 297.475 157.962 299.781 156.825 300.497C155.688 301.213 153.263 301.233 151.545 298.504C149.826 295.775 151.514 294.203 152.479 293.596Z" fill="#60A5FA"/>
<path d="M148.517 300.909C149.634 300.206 151.854 299.288 153.586 302.039C155.317 304.789 154 307.095 152.863 307.811C151.726 308.527 149.301 308.547 147.583 305.818C145.864 303.089 147.552 301.517 148.517 300.909Z" fill="#60A5FA"/>
<path d="M164.953 290.062C163.221 287.312 161.001 288.23 159.884 288.933C158.919 289.541 157.231 291.113 158.95 293.842C160.668 296.571 163.093 296.551 164.23 295.835C165.367 295.119 166.684 292.813 164.953 290.062Z" fill="#60A5FA"/>
<path d="M168.059 288.605C169.176 287.901 171.396 286.983 173.128 289.734C174.859 292.484 173.542 294.79 172.405 295.506C171.268 296.222 168.843 296.242 167.125 293.513C165.406 290.784 167.094 289.212 168.059 288.605Z" fill="#60A5FA"/>
<path d="M175.335 302.858C172.221 297.912 166.324 295.643 161.088 298.94C155.852 302.237 155.336 308.397 158.516 313.448C161.164 317.652 166.176 314.496 169.534 312.382L169.547 312.374C173.275 310.026 177.899 306.93 175.335 302.858Z" fill="#60A5FA"/>
<path d="M313.169 362.839C303.472 365.616 294.258 370.144 284.3 371.691C271.959 373.611 259.377 370.797 246.906 371.43C233.709 372.101 220.661 376.797 210.442 385.165C203.574 390.774 197.674 399.849 200.931 408.105C202.308 411.59 205.119 414.31 208.209 416.416C219.302 424.001 233.579 424.597 247.017 424.914C279.795 425.715 312.573 426.498 345.352 425.995C358.344 425.79 371.764 425.287 383.546 419.789C390.88 416.36 397.748 410.36 399.07 402.384C400.317 394.93 396.482 387.55 391.792 381.643C373.458 358.572 340.4 355.05 313.169 362.839Z" fill="#BFDBFE"/>
<path d="M352.518 348.899C397.19 360.081 402.774 388.034 399.051 397.352C395.329 406.669 389.745 376.853 371.131 371.262C352.518 365.671 348.795 365.671 348.795 365.671L352.518 348.899Z" fill="#3B82F6"/>
<path d="M374.463 331.27C373.774 339.451 371.094 347.334 368.432 355.105C364.579 366.342 360.224 380.039 349.353 384.81C351.866 386.599 354.416 388.556 355.775 391.332C357.692 395.283 356.52 400.501 353.076 403.222C348.237 407.061 344.942 403.855 340.103 403.035C335.431 402.253 330.238 403.632 325.398 403.073C324.951 403.017 324.467 402.942 324.17 402.588C323.909 402.29 323.89 401.861 323.872 401.451C323.593 394.948 321.378 388.984 322.066 382.518C316.464 388.984 308.981 393.811 300.773 396.215C297.106 397.296 293.309 397.892 289.493 397.743C283.295 397.482 274.789 397.016 269.986 393.084C269.112 396.681 268.013 400.594 264.961 402.681C262.615 404.284 259.582 404.414 256.734 404.433C254.146 404.452 251.522 404.396 249.046 403.669C246.571 402.942 244.058 401.955 242.83 399.681C241.08 402.29 241.359 402.644 238.939 404.657C233.504 409.148 223.807 405.998 222.057 399.178C221.443 396.811 221.666 394.333 221.648 391.91C221.573 386.413 220.196 381.064 218.223 375.921C217.05 372.846 215.654 369.846 214.202 366.901C210.331 359.019 205.994 351.266 203.89 342.768C201.787 334.252 202.234 324.599 207.408 317.536C209.94 314.07 214.091 311.237 218.297 312.057C219.544 312.299 220.698 312.84 221.741 313.585C223.509 314.815 224.961 316.604 226.189 318.431C228.553 321.934 230.079 322.996 231.457 327.003C231.308 325.792 231.178 324.599 231.047 323.388C228.386 297.074 231.122 270.202 239.07 244.97C240.261 241.187 241.564 237.385 242.55 233.527C243.462 230.024 244.077 226.465 244.095 222.831C244.114 216.588 242.271 210.494 241.638 204.27C240.131 189.548 245.342 174.509 242.439 159.973C242.29 159.265 242.104 158.52 241.657 157.942C241.322 157.514 240.875 157.215 240.391 156.973C239.982 156.787 239.572 156.619 239.163 156.451C235.57 154.942 232.629 152.091 230.824 148.643C230.489 148.047 230.191 147.413 229.949 146.78C229.8 146.388 229.651 145.997 229.54 145.605C228.981 143.872 228.721 142.065 228.776 140.238V140.089C228.758 139.996 228.776 139.922 228.776 139.829C226.655 141.189 225.891 143.872 224.384 145.885C222.857 147.898 219.34 149.016 218.092 146.835C217.646 146.09 217.646 145.177 217.664 144.32C217.702 140.593 217.739 136.884 217.776 133.157C217.795 131.405 217.906 129.43 219.172 128.219C220.103 127.305 221.461 127.026 222.746 126.765C229.465 125.479 236.371 123.821 241.731 119.553C244.765 117.131 247.743 113.739 251.615 114C254.816 114.242 257.087 116.907 258.818 119.74C259.153 120.261 259.47 120.783 259.768 121.305C261.61 124.529 263.453 127.753 265.296 130.977C265.612 131.554 265.947 132.113 266.264 132.691C278.716 129.896 291.708 127.585 304.7 126.672C311.885 126.169 319.051 126.094 326.124 126.597C327.185 126.672 328.227 126.765 329.288 126.858C329.139 126.858 329.084 127.082 329.158 127.231C329.158 127.268 329.195 127.324 329.251 127.343C329.4 127.417 329.549 127.38 329.698 127.324C329.772 127.287 329.865 127.231 329.94 127.175C334.816 123.988 339.675 120.783 344.551 117.578C345.017 117.28 345.501 116.981 345.966 116.665C346.636 116.217 347.362 115.752 348.162 115.677C349.54 115.528 350.768 116.497 351.81 117.41C356.762 121.752 361.638 126.206 365.994 131.144C367.837 133.232 369.642 135.505 370.331 138.207C371.094 141.301 370.219 144.767 368.06 147.115C367.669 147.544 367.204 147.935 366.645 148.028C366.087 148.14 365.528 147.916 365.007 147.674C363.63 147.04 362.308 146.295 361.061 145.4C360.391 144.953 359.74 144.45 359.125 143.91C357.823 148.27 355.924 151.718 352.294 154.252C352.034 154.439 351.773 154.625 351.494 154.793C353.728 158.762 351.997 163.756 352.723 168.248C353.058 170.335 353.914 172.273 354.826 174.211C355.366 175.348 355.924 176.484 356.389 177.658C359.926 186.361 357.86 197.747 352.183 205.686C352.183 205.686 352.183 205.705 352.164 205.705C350.712 207.736 349.037 209.544 347.139 211.016C345.184 216.271 344.253 221.918 344.44 227.527C344.514 229.856 344.775 232.167 345.184 234.422C347.232 245.846 352.964 256.561 357.301 267.481C362.513 280.563 366.273 295.472 359.014 307.529C359.367 307.585 359.702 307.678 360.038 307.771C366.161 309.262 371.392 313.995 373.439 319.959C374.668 323.555 374.798 327.45 374.463 331.252V331.27Z" fill="#DBEAFE"/>
<path d="M368.059 147.133C367.668 147.562 367.203 147.953 366.645 148.046C366.086 148.158 365.528 147.935 365.007 147.692C363.629 147.059 362.308 146.313 361.061 145.419C360.391 144.971 359.739 144.468 359.125 143.928C357.822 148.289 355.923 151.736 352.294 154.271C352.033 154.457 351.773 154.643 351.493 154.811C353.727 158.78 351.996 163.775 352.722 168.266C353.057 170.353 353.913 172.291 354.825 174.229C354.714 174.266 354.602 174.304 354.49 174.341C346.896 177.08 341.479 185.41 333.42 185.541C328.953 185.615 324.839 183.006 321.675 179.838C318.511 176.689 315.998 172.925 312.796 169.794C310.898 167.93 308.776 166.29 306.97 164.315C303.657 160.681 301.61 156.097 299.767 151.531C298.669 148.81 297.608 146.015 297.385 143.089C296.994 138.002 299.209 132.97 302.41 129.001C303.08 128.181 303.862 127.436 304.7 126.69C311.884 126.187 319.05 126.112 326.123 126.616C327.184 126.69 328.227 126.783 329.288 126.876C329.139 126.876 329.083 127.1 329.157 127.249C329.157 127.286 329.195 127.342 329.251 127.361C329.399 127.436 329.548 127.398 329.697 127.342C329.772 127.305 329.865 127.249 329.939 127.193C334.816 124.007 339.674 120.801 344.551 117.596C345.016 117.298 345.5 117 345.965 116.683C346.635 116.236 347.361 115.77 348.162 115.695C349.539 115.546 350.767 116.515 351.81 117.428C356.761 121.77 361.638 126.224 365.993 131.163C367.836 133.25 369.641 135.523 370.33 138.225C371.093 141.319 370.218 144.785 368.059 147.133Z" fill="#3B82F6"/>
<path d="M265.296 130.996C264.923 131.368 264.514 131.723 264.123 132.058C261.834 133.959 259.544 135.878 257.273 137.798C254.909 139.773 252.546 141.748 250.405 143.947C246.775 147.674 243.816 151.979 240.875 156.265C240.707 156.508 240.559 156.731 240.391 156.974C239.982 156.787 239.572 156.619 239.163 156.452C232.834 153.787 228.516 146.948 228.776 140.09C232.331 136.568 235.998 132.897 239.125 129.039C239.535 128.536 239.721 128.48 240.075 127.958C242.96 123.653 247.371 120.187 252.471 119.33C254.574 118.976 256.789 119.144 258.818 119.759C259.153 120.28 259.47 120.802 259.767 121.324C261.61 124.548 263.453 127.772 265.296 130.996Z" fill="#BFDBFE"/>
<path d="M361.06 145.419C360.39 144.972 359.739 144.468 359.124 143.928C357.822 148.289 355.923 151.736 352.293 154.271C351.977 153.6 351.735 152.91 351.512 152.239C349.706 147.077 347.454 142.009 344.103 137.685C340.734 133.38 336.174 129.858 330.888 128.479C329.38 128.088 327.798 127.864 326.533 126.951C326.384 126.858 326.253 126.746 326.123 126.616C327.184 126.69 328.226 126.783 329.287 126.877C329.083 126.877 329.045 127.268 329.25 127.361C329.473 127.473 329.734 127.343 329.939 127.193C334.815 124.007 339.674 120.801 344.55 117.596C346.393 118.416 348.087 119.87 349.297 121.23C351.735 123.932 353.317 127.268 354.862 130.566C355.644 132.244 356.444 133.939 357.226 135.617C358.734 138.803 360.241 142.027 361.06 145.419Z" fill="#BFDBFE"/>
<path d="M275.273 167.204C278.357 167.204 280.857 164.701 280.857 161.613C280.857 158.526 278.357 156.023 275.273 156.023C272.189 156.023 269.689 158.526 269.689 161.613C269.689 164.701 272.189 167.204 275.273 167.204Z" fill="#1E40AF"/>
<path d="M320.876 168.136C323.959 168.136 326.459 165.633 326.459 162.545C326.459 159.457 323.959 156.954 320.876 156.954C317.792 156.954 315.292 159.457 315.292 162.545C315.292 165.633 317.792 168.136 320.876 168.136Z" fill="#1E40AF"/>
<path d="M311.718 171.937C311.793 171.043 311.718 170.129 311.365 169.291C310.341 166.831 307.456 165.825 304.869 165.191C299.936 163.98 294.575 163.141 289.885 165.079C288.042 165.843 286.274 167.129 285.585 169.011C284.822 171.117 285.585 173.521 286.981 175.273C288.377 177.025 290.294 178.236 292.193 179.41C295.674 181.59 299.582 183.752 303.473 181.497C307.102 179.391 311.29 176.521 311.718 171.937Z" fill="#1E40AF"/>
<path d="M251.838 194.412C253.588 199.891 255.71 205.873 260.866 209.06C266.562 212.582 274.789 211.799 281.061 210.513C287.334 209.227 293.421 205.78 296.268 199.779C299.34 193.313 299.972 185.374 300.177 178.311C300.252 175.907 296.529 175.907 296.455 178.311C296.287 184.405 295.729 190.927 293.569 196.667C291.41 202.407 286.534 205.426 280.857 206.749C275.663 207.96 268.33 208.817 263.416 206.227C258.502 203.637 256.976 198.158 255.449 193.443C254.724 191.169 251.131 192.139 251.857 194.431L251.838 194.412Z" fill="#1E40AF"/>
<path d="M296.566 179.149C294.537 193.498 302.503 207.978 316.817 211.985C324.002 213.997 331.149 212.711 337.757 209.431C344.904 205.853 347.603 199.182 349.763 191.896C350.451 189.585 346.859 188.616 346.17 190.908C344.346 197.058 342.28 202.946 336.231 206.04C330.181 209.133 324.151 210.196 317.804 208.407C305.612 204.978 298.408 192.511 300.158 180.155C300.493 177.807 296.901 176.801 296.566 179.168V179.149Z" fill="#1E40AF"/>
<path d="M316.594 194.766C318.995 194.766 318.995 191.039 316.594 191.039C314.193 191.039 314.193 194.766 316.594 194.766Z" fill="#1E40AF"/>
<path d="M318.158 188.336C320.559 188.336 320.559 184.609 318.158 184.609C315.757 184.609 315.757 188.336 318.158 188.336Z" fill="#1E40AF"/>
<path d="M286.533 191.094L286.142 190.908C285.938 190.778 285.696 190.703 285.454 190.684C285.212 190.629 284.951 190.647 284.709 190.722C284.467 190.778 284.262 190.889 284.076 191.057C283.872 191.188 283.723 191.355 283.592 191.579L283.406 192.026C283.313 192.362 283.313 192.678 283.406 193.014L283.592 193.461C283.76 193.741 283.983 193.964 284.262 194.132L284.653 194.318C284.858 194.449 285.1 194.523 285.342 194.542C285.584 194.598 285.845 194.579 286.087 194.505C286.329 194.449 286.533 194.337 286.719 194.169C286.924 194.039 287.073 193.871 287.203 193.648L287.389 193.2C287.483 192.865 287.483 192.548 287.389 192.213L287.203 191.765C287.036 191.486 286.812 191.262 286.533 191.094Z" fill="#1E40AF"/>
<path d="M280.149 188.914C282.551 188.914 282.551 185.187 280.149 185.187C277.748 185.187 277.748 188.914 280.149 188.914Z" fill="#1E40AF"/>
<path d="M279.46 194.672V194.486C279.46 194.225 279.423 193.983 279.293 193.759C279.218 193.536 279.088 193.331 278.902 193.163C278.734 192.977 278.529 192.846 278.306 192.772C278.083 192.66 277.841 192.604 277.58 192.604L277.078 192.678C276.761 192.772 276.482 192.921 276.259 193.163L275.961 193.536C275.793 193.834 275.7 194.132 275.7 194.467V194.654C275.7 194.915 275.737 195.157 275.868 195.381C275.942 195.604 276.072 195.809 276.259 195.977C276.426 196.163 276.631 196.294 276.854 196.368C277.078 196.48 277.32 196.536 277.58 196.536L278.083 196.461C278.399 196.368 278.678 196.219 278.902 195.977L279.199 195.604C279.367 195.306 279.46 195.008 279.46 194.672Z" fill="#1E40AF"/>
<path d="M280.148 217.203C290.46 221.918 302.503 221.601 312.498 216.234C314.602 215.097 312.74 211.873 310.618 213.01C301.889 217.706 291.074 218.135 282.028 213.979C279.869 212.991 277.971 216.197 280.148 217.203Z" fill="#1E40AF"/>
<path d="M295.655 222.384C301.257 224.228 307.251 224.489 313.021 223.259C314.007 223.054 314.585 221.899 314.324 220.967C314.045 219.942 313.021 219.458 312.034 219.663C306.916 220.744 301.611 220.408 296.641 218.787C295.692 218.47 294.612 219.16 294.352 220.091C294.073 221.098 294.687 222.067 295.655 222.384Z" fill="#1E40AF"/>
<path d="M286.311 256.654C287.521 261.406 288.023 266.27 287.856 271.171C287.781 273.575 291.504 273.575 291.578 271.171C291.765 265.953 291.188 260.717 289.903 255.648C289.308 253.318 285.734 254.306 286.311 256.635V256.654Z" fill="#1E40AF"/>
<path d="M293.903 252.237L294.313 265.319C294.35 266.326 295.151 267.183 296.174 267.183C297.198 267.183 298.073 266.326 298.036 265.319L297.626 252.237C297.589 251.231 296.789 250.374 295.765 250.374C294.741 250.374 293.866 251.231 293.903 252.237Z" fill="#1E40AF"/>
<path d="M301.703 251.548L300.344 260.53C300.195 261.481 300.586 262.58 301.647 262.822C302.54 263.027 303.787 262.543 303.936 261.518L305.295 252.536C305.444 251.585 305.053 250.486 303.992 250.243C303.099 250.038 301.852 250.523 301.703 251.548Z" fill="#1E40AF"/>
<path d="M241.136 181.889C239.778 188.989 240.001 196.574 243.444 203.078C246.329 208.538 251.523 212.917 257.665 214.11C260.01 214.557 261.015 210.96 258.651 210.513C253.384 209.507 249.14 205.892 246.646 201.195C243.705 195.623 243.556 188.952 244.71 182.877C245.157 180.529 241.564 179.522 241.118 181.889H241.136Z" fill="#1E40AF"/>
<path d="M352.22 178.963C353.17 184.61 353.635 190.443 352.872 196.145C352.5 198.884 351.829 201.624 350.806 204.214C349.856 206.6 348.647 209.246 346.283 210.476C344.161 211.594 346.041 214.799 348.163 213.7C350.769 212.339 352.351 209.823 353.542 207.233C354.919 204.214 355.869 201.028 356.39 197.748C357.413 191.151 356.93 184.517 355.831 177.976C355.44 175.609 351.848 176.615 352.239 178.963H352.22Z" fill="#1E40AF"/>
<path d="M265.185 130.305C256.809 132.728 249.997 138.952 246.646 146.965C246.255 147.897 247.074 149.015 247.949 149.258C249.029 149.556 249.848 148.885 250.239 147.953C253.068 141.188 259.173 135.915 266.19 133.902C268.48 133.231 267.512 129.635 265.204 130.305H265.185Z" fill="#1E40AF"/>
<path d="M328.6 129.02C337.404 130.324 344.421 136.828 346.264 145.568C346.766 147.916 350.359 146.928 349.856 144.58C347.771 134.722 339.563 126.914 329.586 125.423C328.6 125.274 327.594 125.665 327.297 126.727C327.055 127.603 327.594 128.871 328.6 129.02Z" fill="#1E40AF"/>
<path d="M228.999 142.363C236.073 137.518 241.805 130.846 245.379 123.038C245.789 122.125 245.64 121.025 244.709 120.485C243.909 120.019 242.587 120.242 242.159 121.156C238.846 128.386 233.671 134.648 227.12 139.139C226.282 139.698 225.91 140.779 226.449 141.692C226.933 142.512 228.162 142.922 228.999 142.363Z" fill="#1E40AF"/>
<path d="M242.904 129.822C243.37 129.822 243.835 129.822 244.3 129.859C244.431 129.859 244.58 129.878 244.71 129.896C244.877 129.934 244.896 129.915 244.71 129.896C244.933 129.934 245.138 129.971 245.361 130.008C245.827 130.101 246.273 130.213 246.72 130.362C246.962 130.437 247.185 130.511 247.427 130.604C247.539 130.642 247.632 130.679 247.744 130.716C247.502 130.623 247.688 130.698 247.837 130.754C248.693 131.145 249.493 131.611 250.257 132.17C250.275 132.188 250.554 132.393 250.406 132.282C250.257 132.17 250.517 132.375 250.536 132.393C250.722 132.543 250.908 132.71 251.094 132.878C251.448 133.213 251.802 133.567 252.118 133.94C252.751 134.686 254.11 134.648 254.742 133.94C255.468 133.157 255.431 132.095 254.742 131.313C251.839 127.94 247.372 126.001 242.923 126.095C241.955 126.113 241.024 126.933 241.062 127.958C241.099 128.983 241.881 129.84 242.923 129.822H242.904Z" fill="#1E40AF"/>
<path d="M342.113 131.219C342.355 130.977 342.616 130.753 342.876 130.529C343.007 130.418 343.118 130.324 343.249 130.213C343.342 130.138 343.584 130.008 343.211 130.25C343.286 130.213 343.342 130.157 343.398 130.101C343.956 129.691 344.533 129.318 345.129 129.001C345.408 128.852 345.706 128.703 345.985 128.573C346.078 128.535 346.171 128.48 346.264 128.442C346.32 128.424 346.58 128.312 346.32 128.424C346.059 128.535 346.32 128.424 346.376 128.405C346.45 128.368 346.525 128.349 346.599 128.312C347.269 128.051 347.939 127.865 348.628 127.697C349.577 127.473 350.229 126.336 349.931 125.405C349.614 124.417 348.665 123.858 347.641 124.1C344.57 124.827 341.722 126.411 339.47 128.591C338.763 129.262 338.744 130.548 339.47 131.219C340.196 131.89 341.35 131.946 342.095 131.219H342.113Z" fill="#1E40AF"/>
<path d="M345.928 120.038C348.31 121.268 349.613 123.672 350.916 125.908C352.498 128.629 353.969 131.406 355.309 134.257C357.487 138.897 358.883 144.525 363.424 147.451C365.453 148.755 367.314 145.531 365.304 144.227C363.294 142.922 362.177 140.723 361.228 138.58C360.037 135.897 358.938 133.157 357.636 130.511C356.333 127.865 354.825 125.088 353.224 122.498C351.828 120.225 350.209 118.026 347.789 116.777C345.667 115.677 343.769 118.901 345.909 120.001L345.928 120.038Z" fill="#1E40AF"/>
<path d="M342.764 134.201C343.49 134.536 344.197 134.909 344.867 135.356C345.035 135.468 345.202 135.58 345.37 135.691C345.444 135.747 345.519 135.822 345.593 135.859C345.202 135.654 345.426 135.729 345.556 135.84C345.873 136.083 346.17 136.362 346.468 136.623C346.766 136.884 347.045 137.182 347.306 137.48C347.436 137.611 347.548 137.76 347.659 137.89C347.734 137.984 347.79 138.058 347.864 138.151C348.088 138.431 347.622 137.816 347.846 138.114C348.311 138.766 348.739 139.437 349.111 140.164C349.558 141.04 350.842 141.357 351.661 140.835C352.555 140.257 352.815 139.213 352.331 138.282C350.693 135.095 347.92 132.43 344.663 130.958C344.197 130.753 343.751 130.623 343.229 130.772C342.801 130.883 342.336 131.219 342.113 131.629C341.685 132.449 341.833 133.753 342.783 134.182L342.764 134.201Z" fill="#1E40AF"/>
<path d="M250.313 136.716C246.757 136.511 243.109 137.536 240.168 139.53C239.368 140.07 238.921 141.189 239.498 142.083C240.019 142.884 241.192 143.332 242.048 142.754C242.7 142.307 243.37 141.915 244.077 141.58C244.152 141.543 244.766 141.282 244.356 141.449C244.543 141.375 244.747 141.3 244.933 141.226C245.268 141.095 245.622 140.984 245.976 140.89C246.329 140.797 246.683 140.704 247.037 140.63C247.241 140.592 247.446 140.555 247.651 140.518C247.874 140.48 247.856 140.48 247.614 140.518C247.725 140.518 247.818 140.499 247.93 140.48C248.712 140.406 249.494 140.387 250.275 140.425C251.243 140.48 252.174 139.53 252.137 138.561C252.081 137.499 251.318 136.753 250.275 136.697L250.313 136.716Z" fill="#1E40AF"/>
<path d="M267.138 309.877C266.096 313.045 264.904 316.194 264.216 319.455C263.397 323.387 263.341 327.431 263.304 331.438C263.192 341.818 263.155 352.216 263.192 362.615C255.505 364.721 247.091 364.068 239.814 360.807C238.511 352.962 237.208 345.079 235.421 337.327C234.323 332.556 232.722 327.953 231.047 323.387C228.385 297.074 231.121 270.202 239.069 244.969C240.26 241.186 241.563 237.385 242.55 233.527C247.408 236.043 252.08 238.969 256.1 242.677C264.886 250.84 269.986 262.505 271.456 274.432C272.908 286.34 270.916 298.49 267.138 309.877Z" fill="#3B82F6"/>
<path d="M359.013 307.548C359.367 307.604 359.702 307.697 360.037 307.79C360 307.827 359.963 307.864 359.944 307.902C357.599 311.368 357.189 315.729 356.445 319.847C353.448 336.6 344.085 352.086 343.676 369.1C343.657 369.976 343.639 370.889 343.192 371.654C342.28 373.144 340.158 373.219 338.427 372.995C334.258 372.473 329.865 371.132 327.259 367.815C325.156 365.15 324.541 361.609 324.206 358.217C323.313 348.639 324.225 338.911 322.568 329.426C321.898 325.549 320.782 321.766 319.925 317.909C314.676 294.559 318.771 269.252 331.112 248.753C334.053 243.87 339.078 236.323 345.184 234.441C347.231 245.864 352.964 256.58 357.301 267.5C362.513 280.582 366.273 295.49 359.013 307.548Z" fill="#3B82F6"/>
<path d="M261.164 328.27C259.452 346.234 260.345 364.348 263.696 382.07C264.142 384.418 267.735 383.431 267.288 381.083C263.994 363.677 263.212 345.899 264.887 328.27C265.11 325.884 261.388 325.903 261.164 328.27Z" fill="#1E40AF"/>
<path d="M265.054 387.717C266.412 389.338 267.641 391.351 267.399 393.55C267.25 394.891 266.673 396.196 266.245 397.463C265.78 398.786 265.333 400.109 264.868 401.432C264.533 402.383 265.24 403.464 266.171 403.725C267.194 404.004 268.125 403.371 268.46 402.42C268.981 400.911 269.502 399.401 270.042 397.892C270.582 396.382 271.084 394.836 271.159 393.196C271.289 390.102 269.614 387.363 267.697 385.089C267.045 384.325 265.724 384.418 265.072 385.089C264.309 385.853 264.421 386.953 265.072 387.717H265.054Z" fill="#1E40AF"/>
<path d="M239.945 392.786C239.461 396.364 240.503 400.017 243.109 402.57C245.715 405.123 249.381 406.129 252.937 405.57C253.905 405.421 254.519 404.154 254.24 403.278C253.905 402.234 252.992 401.806 251.95 401.973C251.503 402.048 252.192 401.973 251.783 401.992C251.615 401.992 251.448 402.011 251.28 402.029C250.945 402.029 250.61 402.029 250.275 402.011C250.145 402.011 249.772 401.955 250.107 402.011C249.94 401.992 249.772 401.955 249.605 401.917C249.27 401.843 248.953 401.768 248.637 401.675C248.469 401.619 248.321 401.563 248.153 401.508C247.65 401.321 248.469 401.675 247.985 401.433C247.688 401.284 247.39 401.135 247.092 400.967C246.794 400.799 246.515 400.613 246.254 400.408C246.552 400.632 246.143 400.296 246.106 400.278C245.975 400.166 245.864 400.054 245.733 399.942C245.491 399.7 245.268 399.458 245.063 399.197C245.268 399.439 245.007 399.122 244.952 399.029C244.858 398.899 244.765 398.749 244.672 398.6C244.505 398.321 244.337 398.023 244.188 397.725C244.151 397.65 243.965 397.203 244.114 397.557C244.058 397.408 244.002 397.24 243.946 397.091C243.835 396.774 243.742 396.457 243.667 396.122C243.63 395.991 243.611 395.842 243.593 395.712C243.593 395.637 243.556 395.544 243.556 395.47C243.574 395.656 243.593 395.693 243.556 395.544C243.537 395.209 243.5 394.873 243.5 394.538C243.5 394.37 243.5 394.202 243.5 394.035C243.5 393.942 243.574 393.364 243.5 393.774C243.63 392.805 243.276 391.724 242.197 391.482C241.322 391.277 240.056 391.743 239.907 392.786H239.945Z" fill="#1E40AF"/>
<path d="M247.334 391.929C247.241 394.575 247.613 397.277 248.432 399.793C248.786 400.893 249.214 402.048 249.847 403.017C250.61 404.172 251.56 404.955 252.825 405.495C253.719 405.868 254.91 405.086 255.115 404.191C255.357 403.11 254.78 402.309 253.812 401.899C254.165 402.048 253.588 401.731 253.533 401.694C253.849 401.918 253.346 401.489 253.291 401.433C253.216 401.358 253.142 401.265 253.067 401.172C253.179 401.321 253.179 401.303 253.067 401.135C252.974 400.986 252.881 400.837 252.807 400.688C252.695 400.483 252.602 400.278 252.49 400.073C252.397 399.868 252.397 399.868 252.49 400.035C252.453 399.924 252.397 399.83 252.36 399.719C252.174 399.215 252.006 398.694 251.839 398.172C251.224 396.029 251.001 394.184 251.076 391.91C251.113 390.941 250.201 390.009 249.214 390.047C248.172 390.084 247.39 390.867 247.353 391.91L247.334 391.929Z" fill="#1E40AF"/>
<path d="M256.137 391.78C257.515 395.395 257.98 399.29 257.44 402.961C257.291 403.911 257.682 405.011 258.743 405.253C259.637 405.458 260.884 404.974 261.033 403.949C261.703 399.514 261.33 395.004 259.73 390.792C259.376 389.86 258.482 389.208 257.44 389.488C256.547 389.73 255.784 390.829 256.137 391.78Z" fill="#1E40AF"/>
<path d="M235.161 345.843C239.293 361.609 240.745 377.896 239.498 394.146C239.312 396.532 243.035 396.532 243.221 394.146C244.505 377.579 242.979 360.901 238.754 344.837C238.139 342.526 234.547 343.495 235.161 345.825V345.843Z" fill="#1E40AF"/>
<path d="M319.907 324.077C324.393 344.371 324.877 365.429 321.285 385.891C320.875 388.239 324.468 389.245 324.877 386.879C328.6 365.709 328.135 344.055 323.5 323.071C322.979 320.723 319.386 321.729 319.907 324.059V324.077Z" fill="#1E40AF"/>
<path d="M343.862 351.415C342.187 359.838 340.53 368.429 341.033 377.058C341.275 381.176 342.131 385.089 343.229 389.04C344.327 392.991 345.556 397.519 343.732 401.563C342.764 403.725 345.965 405.626 346.952 403.445C350.544 395.469 345.928 387.698 344.979 379.685C343.899 370.535 345.649 361.348 347.436 352.403C347.901 350.055 344.309 349.067 343.843 351.415H343.862Z" fill="#1E40AF"/>
<path d="M321.191 394.444C320.967 396.606 320.837 398.842 321.693 400.892C322.438 402.681 323.871 404.302 325.825 404.731C327.78 405.16 330.051 404.507 331.186 402.7C332.321 400.892 332.563 398.563 332.805 396.569C333.103 394.109 332.954 391.649 332.526 389.226C332.34 388.239 331.149 387.68 330.237 387.922C329.194 388.201 328.766 389.226 328.934 390.214C329.287 392.171 329.325 394.295 329.12 396.345C329.008 397.295 328.804 398.358 328.524 399.345C328.468 399.569 328.413 399.774 328.338 399.998C328.32 400.072 328.078 400.668 328.171 400.501C328.152 400.538 327.873 400.985 328.022 400.799C327.947 400.892 327.873 400.967 327.78 401.041C327.91 400.948 327.929 400.929 327.817 401.004C327.743 401.041 327.668 401.097 327.594 401.134C327.78 401.06 327.78 401.06 327.575 401.134C327.519 401.134 326.998 401.227 327.407 401.19C327.203 401.209 327.017 401.19 326.812 401.19C326.682 401.19 326.7 401.19 326.886 401.19C326.775 401.172 326.663 401.134 326.551 401.116C326.179 401.041 326.663 401.227 326.365 401.041C326.253 400.985 326.16 400.929 326.049 400.855C326.16 400.967 326.142 400.929 325.974 400.799C325.602 400.445 325.602 400.463 325.36 400.053C325.006 399.476 324.802 398.768 324.727 397.929C324.634 396.774 324.764 395.618 324.876 394.481C324.969 393.475 323.945 392.618 323.015 392.618C321.917 392.618 321.246 393.475 321.153 394.481L321.191 394.444Z" fill="#1E40AF"/>
<path d="M329.548 403.929C331.224 404.731 332.973 405.551 334.872 405.513C336.77 405.476 338.576 404.619 339.637 402.979C340.567 401.544 340.958 399.643 341.219 397.966C341.535 396.028 341.666 394.09 341.535 392.152C341.48 391.183 340.716 390.232 339.674 390.288C338.725 390.326 337.738 391.108 337.813 392.152C337.869 392.953 337.887 393.754 337.85 394.556C337.85 394.928 337.813 395.283 337.794 395.637C337.794 395.823 337.757 395.991 337.738 396.177C337.738 396.233 337.682 396.643 337.72 396.438C337.608 397.239 337.459 398.022 337.254 398.786C337.161 399.121 337.087 399.457 336.975 399.811C336.919 399.979 336.863 400.146 336.808 400.333C336.715 400.65 336.845 400.295 336.752 400.482C336.696 400.612 336.621 400.743 336.547 400.873C336.528 400.91 336.286 401.283 336.398 401.134C336.51 400.985 336.231 401.32 336.193 401.358C335.896 401.674 336.417 401.265 336.026 401.47C335.989 401.488 335.598 401.693 335.802 401.6C336.007 401.507 335.598 401.674 335.542 401.674C335.374 401.712 335.207 401.768 335.039 401.786C335.319 401.749 335.077 401.786 334.928 401.786C334.779 401.786 334.648 401.786 334.5 401.786C334.462 401.786 333.96 401.712 334.276 401.786C333.941 401.73 333.606 401.637 333.271 401.525C332.545 401.302 332.136 401.078 331.41 400.724C330.535 400.295 329.362 400.445 328.86 401.395C328.413 402.234 328.599 403.501 329.53 403.948L329.548 403.929Z" fill="#1E40AF"/>
<path d="M345.389 389.748C347.25 391.108 349.186 392.767 350.415 394.742C351.066 395.786 351.476 396.773 351.717 397.985C351.922 399.047 351.848 400.165 351.513 401.246C351.215 402.196 351.866 403.277 352.816 403.538C353.821 403.818 354.807 403.203 355.105 402.234C356.073 399.159 355.384 395.767 353.765 393.046C352.146 390.326 349.763 388.35 347.288 386.524C346.469 385.928 345.203 386.394 344.738 387.195C344.179 388.145 344.589 389.152 345.408 389.748H345.389Z" fill="#1E40AF"/>
<path d="M347.64 387.959C348.124 387.531 348.608 387.121 349.111 386.711C349.241 386.599 349.39 386.487 349.52 386.375C349.576 386.32 349.651 386.282 349.707 386.226C349.632 386.282 349.409 386.45 349.613 386.301C349.874 386.096 350.135 385.91 350.414 385.705C351.475 384.94 352.573 384.232 353.69 383.599C354.527 383.114 354.9 381.884 354.36 381.046C353.82 380.207 352.722 379.853 351.81 380.375C349.39 381.772 347.101 383.431 345.016 385.295C344.29 385.947 344.309 387.27 345.016 387.922C345.798 388.63 346.877 388.612 347.64 387.922V387.959Z" fill="#1E40AF"/>
<path d="M228.554 387.456C224.534 390.363 219.527 393.251 219.322 398.842C219.136 403.948 224.087 406.799 228.61 407.06C229.615 407.116 230.471 406.166 230.471 405.197C230.471 404.135 229.615 403.389 228.61 403.333C225.967 403.184 222.598 401.637 223.063 398.469C223.622 394.686 227.661 392.674 230.416 390.68C231.235 390.083 231.625 389.058 231.086 388.127C230.62 387.325 229.355 386.86 228.536 387.456H228.554Z" fill="#1E40AF"/>
<path d="M229.187 393.866C228.461 395.283 227.939 396.792 227.697 398.376C227.456 399.96 227.4 401.544 227.884 403.054C228.368 404.563 229.298 405.886 230.731 406.539C232.165 407.191 233.933 407.321 235.273 406.352C236.073 405.793 236.52 404.694 235.943 403.799C235.441 403.016 234.249 402.532 233.393 403.128C233.3 403.184 233.207 403.24 233.114 403.315C232.965 403.426 233.449 403.24 233.133 403.315C233.058 403.315 232.723 403.352 233.002 403.352C233.3 403.352 232.928 403.352 232.853 403.352C232.518 403.389 233.095 403.426 232.891 403.352C232.779 403.315 232.667 403.296 232.556 403.277C232.481 403.259 232.165 403.091 232.388 403.221C232.611 403.352 232.295 403.165 232.239 403.128C232.183 403.091 231.867 402.867 232.09 403.035C232.314 403.203 231.979 402.923 231.96 402.905C231.923 402.867 231.681 402.588 231.83 402.774C231.979 402.961 231.718 402.588 231.718 402.588C231.644 402.476 231.606 402.364 231.532 402.252C231.402 402.029 231.644 402.644 231.532 402.196C231.457 401.954 231.383 401.712 231.327 401.451C231.308 401.358 231.29 401.246 231.271 401.153C231.346 401.6 231.271 401.097 231.271 401.022C231.271 400.762 231.253 400.501 231.253 400.24C231.253 399.96 231.271 399.681 231.308 399.401C231.308 399.289 231.327 399.159 231.346 399.047C231.308 399.401 231.346 398.991 231.364 398.917C231.457 398.339 231.606 397.761 231.792 397.184C231.83 397.034 231.885 396.904 231.941 396.755C231.941 396.718 232.127 396.289 232.034 396.475C231.941 396.662 232.146 396.252 232.165 396.214C232.239 396.047 232.314 395.898 232.407 395.73C232.853 394.873 232.667 393.661 231.737 393.177C230.88 392.73 229.671 392.916 229.187 393.848V393.866Z" fill="#1E40AF"/>
<path d="M233.673 397.296C234.324 399.029 235.031 400.874 236.446 402.141C237.861 403.409 240.057 404.266 241.974 403.52C242.439 403.334 242.83 403.11 243.091 402.663C243.333 402.272 243.426 401.675 243.277 401.228C242.998 400.352 241.955 399.551 240.988 399.924C240.764 400.017 240.541 400.073 240.299 400.11L240.801 400.036C240.541 400.073 240.28 400.054 240.001 400.036L240.504 400.11C240.169 400.054 239.852 399.98 239.554 399.849L240.001 400.036C239.629 399.868 239.294 399.681 238.977 399.421L239.35 399.719C239.033 399.458 238.735 399.16 238.475 398.824L238.773 399.197C238.251 398.526 237.879 397.762 237.563 396.998L237.749 397.445C237.6 397.072 237.451 396.681 237.302 396.308C237.116 395.843 236.893 395.451 236.446 395.19C236.055 394.948 235.459 394.855 235.013 395.004C234.119 395.283 233.337 396.327 233.71 397.296H233.673Z" fill="#1E40AF"/>
<path d="M220.326 343.979C219.004 348.713 218.651 353.726 219.246 358.59C219.6 361.459 220.289 364.273 220.456 367.143C220.642 370.013 220.252 373.032 218.632 375.417C218.521 375.585 218.39 375.753 218.223 375.921C217.05 372.846 215.654 369.845 214.202 366.901C210.331 359.018 205.994 351.266 203.89 342.768C201.787 334.252 202.234 324.599 207.408 317.536C209.94 314.07 214.091 311.237 218.297 312.057C219.544 312.299 220.698 312.84 221.741 313.585C222.429 315.56 222.932 317.573 223.304 319.511C224.086 323.592 224.588 327.767 223.937 331.866C223.286 336.041 221.461 339.917 220.326 343.979Z" fill="#3B82F6"/>
<path d="M373.44 367.256C373.756 367.852 374.054 368.448 374.352 369.063C374.501 369.361 374.631 369.678 374.762 369.976C374.799 370.051 375.059 370.647 374.855 370.2C374.929 370.349 374.985 370.517 375.041 370.666C375.543 371.933 375.99 373.238 376.362 374.561C376.623 375.492 377.684 376.182 378.652 375.865C379.62 375.548 380.234 374.579 379.955 373.573C379.154 370.74 378.037 367.982 376.641 365.373C376.176 364.516 374.91 364.181 374.091 364.702C373.217 365.262 372.937 366.324 373.421 367.256H373.44Z" fill="#1E40AF"/>
<path d="M380.921 373.964L382.559 383.263C382.727 384.232 383.955 384.847 384.848 384.567C385.891 384.232 386.338 383.3 386.151 382.275L384.513 372.976C384.346 372.007 383.117 371.392 382.224 371.672C381.182 372.007 380.735 372.939 380.921 373.964Z" fill="#1E40AF"/>
<path d="M386.245 384.381L386.841 389.935C386.897 390.438 387.009 390.885 387.381 391.258C387.697 391.575 388.237 391.817 388.702 391.798C389.168 391.78 389.689 391.612 390.024 391.258C390.34 390.922 390.62 390.419 390.564 389.935L389.968 384.381C389.912 383.878 389.801 383.431 389.428 383.058C389.112 382.741 388.572 382.499 388.107 382.518C387.641 382.536 387.12 382.704 386.785 383.058C386.469 383.394 386.19 383.897 386.245 384.381Z" fill="#1E40AF"/>
<path d="M241.861 286.359C241.135 291.427 241.228 296.496 242.178 301.546C242.364 302.534 243.555 303.093 244.467 302.851C245.509 302.571 245.956 301.546 245.77 300.559C244.951 296.235 244.839 291.726 245.454 287.346C245.602 286.359 245.212 285.352 244.151 285.054C243.276 284.812 242.01 285.352 241.861 286.359Z" fill="#1E40AF"/>
<path d="M247.781 294.521C247.669 296.944 247.874 299.366 248.339 301.752C248.525 302.702 249.717 303.354 250.629 303.056C251.652 302.721 252.136 301.789 251.932 300.764C251.876 300.484 251.82 300.205 251.783 299.925C251.764 299.776 251.727 299.627 251.708 299.478C251.708 299.348 251.671 298.938 251.708 299.459C251.671 298.919 251.578 298.379 251.541 297.838C251.466 296.739 251.448 295.621 251.504 294.521C251.541 293.552 250.61 292.62 249.642 292.658C248.6 292.713 247.837 293.478 247.781 294.521Z" fill="#1E40AF"/>
<path d="M252.267 300.596L252.732 302.46C252.788 302.702 252.9 302.907 253.067 303.093C253.198 303.298 253.365 303.448 253.589 303.578C253.793 303.708 254.035 303.783 254.277 303.802C254.519 303.858 254.78 303.839 255.022 303.764L255.469 303.578C255.748 303.41 255.971 303.187 256.139 302.907L256.325 302.46C256.418 302.124 256.418 301.808 256.325 301.472L255.859 299.609C255.804 299.366 255.692 299.161 255.524 298.975C255.394 298.77 255.227 298.621 255.003 298.491C254.798 298.36 254.557 298.286 254.315 298.267C254.073 298.211 253.812 298.23 253.57 298.304L253.123 298.491C252.844 298.658 252.621 298.882 252.453 299.161L252.267 299.609C252.174 299.944 252.174 300.261 252.267 300.596Z" fill="#1E40AF"/>
<path d="M339.098 282.632L338.168 289.135C338.093 289.657 338.075 290.104 338.354 290.57C338.577 290.962 339.024 291.334 339.47 291.428C339.954 291.539 340.476 291.521 340.904 291.241C341.276 290.999 341.685 290.589 341.76 290.123L342.691 283.619C342.765 283.098 342.784 282.65 342.504 282.184C342.281 281.793 341.834 281.42 341.388 281.327C340.904 281.215 340.383 281.234 339.954 281.513C339.582 281.756 339.173 282.166 339.098 282.632Z" fill="#1E40AF"/>
<path d="M342.839 290.552L341.908 297.298C341.834 297.819 341.815 298.267 342.094 298.733C342.318 299.124 342.765 299.497 343.211 299.59C343.695 299.702 344.216 299.683 344.644 299.403C345.017 299.161 345.445 298.751 345.501 298.285L346.431 291.539C346.506 291.018 346.524 290.57 346.245 290.104C346.022 289.713 345.575 289.34 345.128 289.247C344.644 289.135 344.123 289.154 343.695 289.434C343.323 289.676 342.895 290.086 342.839 290.552Z" fill="#1E40AF"/>
<path d="M345.594 301.473C345.315 303.075 344.868 304.641 344.273 306.15C344.105 306.579 344.236 307.212 344.459 307.585C344.682 307.958 345.129 308.349 345.576 308.442C346.06 308.554 346.581 308.536 347.009 308.256L347.381 307.958C347.605 307.734 347.772 307.455 347.865 307.138C348.461 305.628 348.908 304.063 349.187 302.46C349.28 301.957 349.261 301.473 349.001 301.025C348.777 300.634 348.331 300.261 347.884 300.168C347.4 300.056 346.879 300.075 346.451 300.355C346.06 300.597 345.669 301.007 345.594 301.473Z" fill="#1E40AF"/>
<path d="M124 144.02L98.3398 135.34L100.82 162.32L105.94 154.24L120.48 172.66L129.48 165.56L114.94 147.14L124 144.02Z" fill="white"/>
<path d="M124 144.02L98.3398 135.34L100.82 162.32L105.94 154.24L120.48 172.66L129.48 165.56L114.94 147.14L124 144.02Z" stroke="#1E3A8A" stroke-width="3" stroke-linecap="round" stroke-linejoin="round"/>
<path d="M293.145 4.33521H70.3354V84.0302H293.145V4.33521Z" fill="#DBEAFE"/>
<path d="M293.145 4.33521H70.3354V84.0302H293.145V4.33521Z" stroke="#1E3A8A" stroke-width="2.835" stroke-linecap="round" stroke-linejoin="round"/>
<path d="M74.685 0H66V8.68499H74.685V0Z" fill="#1E3A8A"/>
<path d="M297.496 0.00012207H288.811V8.68512H297.496V0.00012207Z" fill="#1E3A8A"/>
<path d="M74.6855 37.2002H66.0005V45.8852H74.6855V37.2002Z" fill="#1E3A8A"/>
<path d="M297.496 37.2002H288.811V45.8852H297.496V37.2002Z" fill="#1E3A8A"/>
<path d="M185.371 0.00012207H176.686V8.68512H185.371V0.00012207Z" fill="#1E3A8A"/>
<path d="M74.6855 79.6951H66.0005V88.3801H74.6855V79.6951Z" fill="#1E3A8A"/>
<path d="M297.496 79.6951H288.811V88.3801H297.496V79.6951Z" fill="#1E3A8A"/>
<path d="M185.371 79.6951H176.686V88.3801H185.371V79.6951Z" fill="#1E3A8A"/>
<path d="M288.45 98.145V74.385L309.12 87.24L295.605 88.215L288.45 98.145Z" fill="white"/>
<path d="M288.45 98.145V74.385L309.12 87.24L295.605 88.215L288.45 98.145Z" stroke="#1E3A8A" stroke-width="3" stroke-linecap="round" stroke-linejoin="round"/>
<defs>
<clipPath id="clip0_26_190">
<rect width="298.77" height="56.46" fill="white" transform="translate(0 116)"/>
</clipPath>
<clipPath id="clip1_26_190">
<rect width="261.03" height="148.92" fill="white" transform="translate(338 36)"/>
</clipPath>
</defs>
</svg>
