<svg width="24" height="24" viewBox="0 0 24 24" fill="none" xmlns="http://www.w3.org/2000/svg">
<path fill-rule="evenodd" clip-rule="evenodd" d="M12 24C18.6274 24 24 18.6274 24 12C24 5.37258 18.6274 0 12 0C5.37258 0 0 5.37258 0 12C0 18.6274 5.37258 24 12 24ZM17.7848 9.28669C18.1503 8.78421 18.0392 8.08061 17.5367 7.71517C17.0342 7.34973 16.3306 7.46082 15.9652 7.96331L10.7395 15.1486L7.9205 12.3295C7.48116 11.8902 6.76884 11.8902 6.3295 12.3295C5.89017 12.7688 5.89017 13.4812 6.3295 13.9205L10.0795 17.6705C10.3122 17.9031 10.635 18.0223 10.963 17.9966C11.291 17.9708 11.5913 17.8028 11.7848 17.5367L17.7848 9.28669Z" fill="#22C55E"/>
</svg>
