<svg width="24" height="24" viewBox="0 0 24 24" fill="none" xmlns="http://www.w3.org/2000/svg">
<path fill-rule="evenodd" clip-rule="evenodd" d="M12 24C18.6274 24 24 18.6274 24 12C24 5.37258 18.6274 0 12 0C5.37258 0 0 5.37258 0 12C0 18.6274 5.37258 24 12 24ZM9.42049 7.8295C8.98116 7.39017 8.26884 7.39017 7.8295 7.8295C7.39017 8.26884 7.39017 8.98116 7.8295 9.42049L10.409 12L7.8295 14.5795C7.39017 15.0188 7.39017 15.7312 7.8295 16.1705C8.26884 16.6098 8.98116 16.6098 9.42049 16.1705L12 13.591L14.5795 16.1705C15.0188 16.6098 15.7312 16.6098 16.1705 16.1705C16.6098 15.7312 16.6098 15.0188 16.1705 14.5795L13.591 12L16.1705 9.42049C16.6098 8.98116 16.6098 8.26884 16.1705 7.8295C15.7312 7.39017 15.0188 7.39017 14.5795 7.8295L12 10.409L9.42049 7.8295Z" fill="#EF4444"/>
</svg>
